<mxfile host="Electron" agent="Mozilla/5.0 (X11; Linux x86_64) AppleWebKit/537.36 (KHTML, like Gecko) draw.io/28.1.2 Chrome/138.0.7204.243 Electron/37.4.0 Safari/537.36" version="28.1.2">
  <diagram name="Page-1" id="oU1EBS-S0vZvluB8N34H">
    <mxGraphModel dx="2054" dy="1191" grid="1" gridSize="10" guides="1" tooltips="1" connect="1" arrows="1" fold="1" page="1" pageScale="1" pageWidth="850" pageHeight="1100" math="0" shadow="0">
      <root>
        <mxCell id="0" />
        <mxCell id="1" parent="0" />
        <mxCell id="2gEEgpnEOowNjJzgg1Q7-22" value="&lt;font style=&quot;font-size: 16px;&quot;&gt;Node1&lt;/font&gt;" style="rounded=0;whiteSpace=wrap;html=1;labelPosition=center;verticalLabelPosition=top;align=center;verticalAlign=bottom;container=0;" vertex="1" parent="1">
          <mxGeometry x="40" y="80" width="380" height="580" as="geometry" />
        </mxCell>
        <mxCell id="2gEEgpnEOowNjJzgg1Q7-3" value="Start" style="rounded=1;whiteSpace=wrap;html=1;container=0;" vertex="1" parent="1">
          <mxGeometry x="160" y="120" width="120" height="60" as="geometry" />
        </mxCell>
        <mxCell id="2gEEgpnEOowNjJzgg1Q7-4" value="Init Globals" style="rounded=1;whiteSpace=wrap;html=1;container=0;" vertex="1" parent="1">
          <mxGeometry x="160" y="220" width="120" height="60" as="geometry" />
        </mxCell>
        <mxCell id="2gEEgpnEOowNjJzgg1Q7-6" value="Sensor Thread" style="rounded=1;whiteSpace=wrap;html=1;container=0;" vertex="1" parent="1">
          <mxGeometry x="80" y="320" width="120" height="60" as="geometry" />
        </mxCell>
        <mxCell id="2gEEgpnEOowNjJzgg1Q7-7" value="Comm Thread" style="rounded=1;whiteSpace=wrap;html=1;container=0;" vertex="1" parent="1">
          <mxGeometry x="240" y="320" width="120" height="60" as="geometry" />
        </mxCell>
        <mxCell id="2gEEgpnEOowNjJzgg1Q7-8" value="I/O Init&lt;div&gt;Self-Test&lt;/div&gt;" style="rounded=1;whiteSpace=wrap;html=1;container=0;" vertex="1" parent="1">
          <mxGeometry x="80" y="420" width="120" height="60" as="geometry" />
        </mxCell>
        <mxCell id="2gEEgpnEOowNjJzgg1Q7-9" value="Wait4BTConn Rq&lt;div&gt;PSK Key Gen&lt;/div&gt;" style="rounded=1;whiteSpace=wrap;html=1;container=0;" vertex="1" parent="1">
          <mxGeometry x="240" y="420" width="120" height="60" as="geometry" />
        </mxCell>
        <mxCell id="2gEEgpnEOowNjJzgg1Q7-10" value="Sensor Loop" style="rounded=1;whiteSpace=wrap;html=1;container=0;" vertex="1" parent="1">
          <mxGeometry x="80" y="520" width="120" height="60" as="geometry" />
        </mxCell>
        <mxCell id="2gEEgpnEOowNjJzgg1Q7-11" value="Comm Loop" style="rounded=1;whiteSpace=wrap;html=1;container=0;" vertex="1" parent="1">
          <mxGeometry x="240" y="520" width="120" height="60" as="geometry" />
        </mxCell>
        <mxCell id="2gEEgpnEOowNjJzgg1Q7-12" value="" style="endArrow=classic;html=1;rounded=0;exitX=0.5;exitY=1;exitDx=0;exitDy=0;" edge="1" parent="1" source="2gEEgpnEOowNjJzgg1Q7-3" target="2gEEgpnEOowNjJzgg1Q7-4">
          <mxGeometry width="50" height="50" relative="1" as="geometry">
            <mxPoint x="400" y="510" as="sourcePoint" />
            <mxPoint x="450" y="460" as="targetPoint" />
          </mxGeometry>
        </mxCell>
        <mxCell id="2gEEgpnEOowNjJzgg1Q7-13" value="" style="endArrow=classic;html=1;rounded=0;exitX=0.5;exitY=1;exitDx=0;exitDy=0;entryX=0.5;entryY=0;entryDx=0;entryDy=0;" edge="1" parent="1" source="2gEEgpnEOowNjJzgg1Q7-4" target="2gEEgpnEOowNjJzgg1Q7-6">
          <mxGeometry width="50" height="50" relative="1" as="geometry">
            <mxPoint x="330" y="240" as="sourcePoint" />
            <mxPoint x="330" y="280" as="targetPoint" />
          </mxGeometry>
        </mxCell>
        <mxCell id="2gEEgpnEOowNjJzgg1Q7-14" value="" style="endArrow=classic;html=1;rounded=0;exitX=0.5;exitY=1;exitDx=0;exitDy=0;entryX=0.5;entryY=0;entryDx=0;entryDy=0;" edge="1" parent="1" source="2gEEgpnEOowNjJzgg1Q7-4" target="2gEEgpnEOowNjJzgg1Q7-7">
          <mxGeometry width="50" height="50" relative="1" as="geometry">
            <mxPoint x="440" y="280" as="sourcePoint" />
            <mxPoint x="360" y="320" as="targetPoint" />
          </mxGeometry>
        </mxCell>
        <mxCell id="2gEEgpnEOowNjJzgg1Q7-15" value="" style="endArrow=classic;html=1;rounded=0;exitX=0.5;exitY=1;exitDx=0;exitDy=0;entryX=0.5;entryY=0;entryDx=0;entryDy=0;" edge="1" parent="1" source="2gEEgpnEOowNjJzgg1Q7-6" target="2gEEgpnEOowNjJzgg1Q7-8">
          <mxGeometry width="50" height="50" relative="1" as="geometry">
            <mxPoint x="310" y="320" as="sourcePoint" />
            <mxPoint x="230" y="360" as="targetPoint" />
          </mxGeometry>
        </mxCell>
        <mxCell id="2gEEgpnEOowNjJzgg1Q7-16" value="" style="endArrow=classic;html=1;rounded=0;exitX=0.5;exitY=1;exitDx=0;exitDy=0;" edge="1" parent="1" source="2gEEgpnEOowNjJzgg1Q7-7" target="2gEEgpnEOowNjJzgg1Q7-9">
          <mxGeometry width="50" height="50" relative="1" as="geometry">
            <mxPoint x="220" y="410" as="sourcePoint" />
            <mxPoint x="220" y="450" as="targetPoint" />
          </mxGeometry>
        </mxCell>
        <mxCell id="2gEEgpnEOowNjJzgg1Q7-17" value="" style="endArrow=classic;html=1;rounded=0;exitX=0.5;exitY=1;exitDx=0;exitDy=0;entryX=0.5;entryY=0;entryDx=0;entryDy=0;" edge="1" parent="1" source="2gEEgpnEOowNjJzgg1Q7-8" target="2gEEgpnEOowNjJzgg1Q7-10">
          <mxGeometry width="50" height="50" relative="1" as="geometry">
            <mxPoint x="200" y="420" as="sourcePoint" />
            <mxPoint x="200" y="460" as="targetPoint" />
          </mxGeometry>
        </mxCell>
        <mxCell id="2gEEgpnEOowNjJzgg1Q7-18" value="" style="endArrow=classic;html=1;rounded=0;exitX=0.5;exitY=1;exitDx=0;exitDy=0;" edge="1" parent="1" source="2gEEgpnEOowNjJzgg1Q7-9" target="2gEEgpnEOowNjJzgg1Q7-11">
          <mxGeometry width="50" height="50" relative="1" as="geometry">
            <mxPoint x="170" y="500" as="sourcePoint" />
            <mxPoint x="170" y="540" as="targetPoint" />
          </mxGeometry>
        </mxCell>
        <mxCell id="2gEEgpnEOowNjJzgg1Q7-20" value="Comm Loss" style="edgeStyle=elbowEdgeStyle;elbow=horizontal;endArrow=classic;html=1;curved=0;rounded=0;endSize=8;startSize=8;entryX=0;entryY=0.5;entryDx=0;entryDy=0;exitX=0;exitY=0.5;exitDx=0;exitDy=0;" edge="1" parent="1" source="2gEEgpnEOowNjJzgg1Q7-11" target="2gEEgpnEOowNjJzgg1Q7-9">
          <mxGeometry width="50" height="50" relative="1" as="geometry">
            <mxPoint x="500" y="730" as="sourcePoint" />
            <mxPoint x="330" y="670" as="targetPoint" />
            <Array as="points">
              <mxPoint x="220" y="500" />
            </Array>
          </mxGeometry>
        </mxCell>
        <mxCell id="2gEEgpnEOowNjJzgg1Q7-43" value="" style="shape=cylinder3;whiteSpace=wrap;html=1;boundedLbl=1;backgroundOutline=1;size=7;rotation=-90;" vertex="1" parent="1">
          <mxGeometry x="202.5" y="590" width="35" height="53.75" as="geometry" />
        </mxCell>
        <mxCell id="2gEEgpnEOowNjJzgg1Q7-45" value="Sensor Readings" style="edgeStyle=elbowEdgeStyle;elbow=horizontal;endArrow=classic;html=1;curved=0;rounded=0;endSize=8;startSize=8;entryX=0.5;entryY=0;entryDx=0;entryDy=0;exitX=0.5;exitY=1;exitDx=0;exitDy=0;entryPerimeter=0;" edge="1" parent="1" source="2gEEgpnEOowNjJzgg1Q7-10" target="2gEEgpnEOowNjJzgg1Q7-43">
          <mxGeometry width="50" height="50" relative="1" as="geometry">
            <mxPoint x="360" y="710" as="sourcePoint" />
            <mxPoint x="360" y="610" as="targetPoint" />
            <Array as="points">
              <mxPoint x="140" y="600" />
            </Array>
          </mxGeometry>
        </mxCell>
        <mxCell id="2gEEgpnEOowNjJzgg1Q7-46" value="Sensor Readings" style="edgeStyle=elbowEdgeStyle;elbow=horizontal;endArrow=classic;html=1;curved=0;rounded=0;endSize=8;startSize=8;entryX=0.5;entryY=1;entryDx=0;entryDy=0;exitX=0.5;exitY=1;exitDx=0;exitDy=0;exitPerimeter=0;" edge="1" parent="1" source="2gEEgpnEOowNjJzgg1Q7-43" target="2gEEgpnEOowNjJzgg1Q7-11">
          <mxGeometry width="50" height="50" relative="1" as="geometry">
            <mxPoint x="360" y="740" as="sourcePoint" />
            <mxPoint x="413" y="777" as="targetPoint" />
            <Array as="points">
              <mxPoint x="300" y="600" />
            </Array>
          </mxGeometry>
        </mxCell>
        <mxCell id="2gEEgpnEOowNjJzgg1Q7-53" value="" style="group" vertex="1" connectable="0" parent="1">
          <mxGeometry x="580" y="80" width="400" height="610" as="geometry" />
        </mxCell>
        <mxCell id="2gEEgpnEOowNjJzgg1Q7-26" value="&lt;font style=&quot;font-size: 16px;&quot;&gt;Node2&lt;/font&gt;" style="rounded=0;whiteSpace=wrap;html=1;labelPosition=center;verticalLabelPosition=top;align=center;verticalAlign=bottom;container=0;" vertex="1" parent="2gEEgpnEOowNjJzgg1Q7-53">
          <mxGeometry width="400" height="610" as="geometry" />
        </mxCell>
        <mxCell id="2gEEgpnEOowNjJzgg1Q7-29" value="GUI Thread" style="rounded=1;whiteSpace=wrap;html=1;container=0;" vertex="1" parent="2gEEgpnEOowNjJzgg1Q7-53">
          <mxGeometry x="220" y="240" width="120" height="60" as="geometry" />
        </mxCell>
        <mxCell id="2gEEgpnEOowNjJzgg1Q7-36" value="" style="endArrow=classic;html=1;rounded=0;exitX=0.5;exitY=1;exitDx=0;exitDy=0;entryX=0.5;entryY=0;entryDx=0;entryDy=0;" edge="1" parent="2gEEgpnEOowNjJzgg1Q7-53" source="2gEEgpnEOowNjJzgg1Q7-28" target="2gEEgpnEOowNjJzgg1Q7-29">
          <mxGeometry width="50" height="50" relative="1" as="geometry">
            <mxPoint x="310" y="160" as="sourcePoint" />
            <mxPoint x="310" y="200" as="targetPoint" />
          </mxGeometry>
        </mxCell>
        <mxCell id="2gEEgpnEOowNjJzgg1Q7-38" value="" style="endArrow=classic;html=1;rounded=0;exitX=0.5;exitY=1;exitDx=0;exitDy=0;entryX=0.5;entryY=0;entryDx=0;entryDy=0;" edge="1" parent="2gEEgpnEOowNjJzgg1Q7-53" source="2gEEgpnEOowNjJzgg1Q7-29" target="2gEEgpnEOowNjJzgg1Q7-31">
          <mxGeometry width="50" height="50" relative="1" as="geometry">
            <mxPoint x="290" y="240" as="sourcePoint" />
            <mxPoint x="210" y="280" as="targetPoint" />
          </mxGeometry>
        </mxCell>
        <mxCell id="2gEEgpnEOowNjJzgg1Q7-27" value="Start" style="rounded=1;whiteSpace=wrap;html=1;container=0;" vertex="1" parent="2gEEgpnEOowNjJzgg1Q7-53">
          <mxGeometry x="140" y="40" width="120" height="60" as="geometry" />
        </mxCell>
        <mxCell id="2gEEgpnEOowNjJzgg1Q7-28" value="Init Globals" style="rounded=1;whiteSpace=wrap;html=1;container=0;" vertex="1" parent="2gEEgpnEOowNjJzgg1Q7-53">
          <mxGeometry x="140" y="140" width="120" height="60" as="geometry" />
        </mxCell>
        <mxCell id="2gEEgpnEOowNjJzgg1Q7-30" value="Comm Thread" style="rounded=1;whiteSpace=wrap;html=1;container=0;" vertex="1" parent="2gEEgpnEOowNjJzgg1Q7-53">
          <mxGeometry x="60" y="240" width="120" height="60" as="geometry" />
        </mxCell>
        <mxCell id="2gEEgpnEOowNjJzgg1Q7-32" value="StartBTConn Rq&lt;div&gt;PSK Key Gen&lt;/div&gt;" style="rounded=1;whiteSpace=wrap;html=1;container=0;" vertex="1" parent="2gEEgpnEOowNjJzgg1Q7-53">
          <mxGeometry x="60" y="340" width="120" height="60" as="geometry" />
        </mxCell>
        <mxCell id="2gEEgpnEOowNjJzgg1Q7-34" value="Comm Loop" style="rounded=1;whiteSpace=wrap;html=1;container=0;" vertex="1" parent="2gEEgpnEOowNjJzgg1Q7-53">
          <mxGeometry x="60" y="440" width="120" height="60" as="geometry" />
        </mxCell>
        <mxCell id="2gEEgpnEOowNjJzgg1Q7-35" value="" style="endArrow=classic;html=1;rounded=0;exitX=0.5;exitY=1;exitDx=0;exitDy=0;" edge="1" parent="2gEEgpnEOowNjJzgg1Q7-53" source="2gEEgpnEOowNjJzgg1Q7-27" target="2gEEgpnEOowNjJzgg1Q7-28">
          <mxGeometry width="50" height="50" relative="1" as="geometry">
            <mxPoint x="380" y="430" as="sourcePoint" />
            <mxPoint x="430" y="380" as="targetPoint" />
          </mxGeometry>
        </mxCell>
        <mxCell id="2gEEgpnEOowNjJzgg1Q7-37" value="" style="endArrow=classic;html=1;rounded=0;exitX=0.5;exitY=1;exitDx=0;exitDy=0;entryX=0.5;entryY=0;entryDx=0;entryDy=0;" edge="1" parent="2gEEgpnEOowNjJzgg1Q7-53" source="2gEEgpnEOowNjJzgg1Q7-28" target="2gEEgpnEOowNjJzgg1Q7-30">
          <mxGeometry width="50" height="50" relative="1" as="geometry">
            <mxPoint x="420" y="200" as="sourcePoint" />
            <mxPoint x="340" y="240" as="targetPoint" />
          </mxGeometry>
        </mxCell>
        <mxCell id="2gEEgpnEOowNjJzgg1Q7-39" value="" style="endArrow=classic;html=1;rounded=0;exitX=0.5;exitY=1;exitDx=0;exitDy=0;" edge="1" parent="2gEEgpnEOowNjJzgg1Q7-53" source="2gEEgpnEOowNjJzgg1Q7-30" target="2gEEgpnEOowNjJzgg1Q7-32">
          <mxGeometry width="50" height="50" relative="1" as="geometry">
            <mxPoint x="200" y="330" as="sourcePoint" />
            <mxPoint x="200" y="370" as="targetPoint" />
          </mxGeometry>
        </mxCell>
        <mxCell id="2gEEgpnEOowNjJzgg1Q7-41" value="" style="endArrow=classic;html=1;rounded=0;exitX=0.5;exitY=1;exitDx=0;exitDy=0;" edge="1" parent="2gEEgpnEOowNjJzgg1Q7-53" source="2gEEgpnEOowNjJzgg1Q7-32" target="2gEEgpnEOowNjJzgg1Q7-34">
          <mxGeometry width="50" height="50" relative="1" as="geometry">
            <mxPoint x="150" y="420" as="sourcePoint" />
            <mxPoint x="150" y="460" as="targetPoint" />
          </mxGeometry>
        </mxCell>
        <mxCell id="2gEEgpnEOowNjJzgg1Q7-42" value="Comm Loss" style="edgeStyle=elbowEdgeStyle;elbow=horizontal;endArrow=classic;html=1;curved=0;rounded=0;endSize=8;startSize=8;entryX=1;entryY=0.5;entryDx=0;entryDy=0;exitX=1;exitY=0.5;exitDx=0;exitDy=0;" edge="1" parent="2gEEgpnEOowNjJzgg1Q7-53" source="2gEEgpnEOowNjJzgg1Q7-34" target="2gEEgpnEOowNjJzgg1Q7-32">
          <mxGeometry width="50" height="50" relative="1" as="geometry">
            <mxPoint x="480" y="650" as="sourcePoint" />
            <mxPoint x="310" y="590" as="targetPoint" />
            <Array as="points">
              <mxPoint x="200" y="420" />
            </Array>
          </mxGeometry>
        </mxCell>
        <mxCell id="2gEEgpnEOowNjJzgg1Q7-31" value="GUI Init&lt;div&gt;Self-Test&lt;/div&gt;" style="rounded=1;whiteSpace=wrap;html=1;container=0;" vertex="1" parent="2gEEgpnEOowNjJzgg1Q7-53">
          <mxGeometry x="220" y="340" width="120" height="60" as="geometry" />
        </mxCell>
        <mxCell id="2gEEgpnEOowNjJzgg1Q7-33" value="GUI Loop" style="rounded=1;whiteSpace=wrap;html=1;container=0;" vertex="1" parent="2gEEgpnEOowNjJzgg1Q7-53">
          <mxGeometry x="220" y="440" width="120" height="60" as="geometry" />
        </mxCell>
        <mxCell id="2gEEgpnEOowNjJzgg1Q7-40" value="" style="endArrow=classic;html=1;rounded=0;exitX=0.5;exitY=1;exitDx=0;exitDy=0;entryX=0.5;entryY=0;entryDx=0;entryDy=0;" edge="1" parent="2gEEgpnEOowNjJzgg1Q7-53" source="2gEEgpnEOowNjJzgg1Q7-31" target="2gEEgpnEOowNjJzgg1Q7-33">
          <mxGeometry width="50" height="50" relative="1" as="geometry">
            <mxPoint x="180" y="340" as="sourcePoint" />
            <mxPoint x="180" y="380" as="targetPoint" />
          </mxGeometry>
        </mxCell>
        <mxCell id="2gEEgpnEOowNjJzgg1Q7-47" value="" style="shape=cylinder3;whiteSpace=wrap;html=1;boundedLbl=1;backgroundOutline=1;size=7;rotation=-90;" vertex="1" parent="2gEEgpnEOowNjJzgg1Q7-53">
          <mxGeometry x="182.505" y="510.005" width="35" height="53.75" as="geometry" />
        </mxCell>
        <mxCell id="2gEEgpnEOowNjJzgg1Q7-48" value="" style="shape=cylinder3;whiteSpace=wrap;html=1;boundedLbl=1;backgroundOutline=1;size=7;rotation=-90;" vertex="1" parent="2gEEgpnEOowNjJzgg1Q7-53">
          <mxGeometry x="182.505" y="550.005" width="35" height="53.75" as="geometry" />
        </mxCell>
        <mxCell id="2gEEgpnEOowNjJzgg1Q7-49" value="Sensor Readings" style="edgeStyle=elbowEdgeStyle;elbow=horizontal;endArrow=classic;html=1;curved=0;rounded=0;endSize=8;startSize=8;entryX=0.5;entryY=0;entryDx=0;entryDy=0;exitX=0.5;exitY=1;exitDx=0;exitDy=0;entryPerimeter=0;" edge="1" parent="2gEEgpnEOowNjJzgg1Q7-53" source="2gEEgpnEOowNjJzgg1Q7-34" target="2gEEgpnEOowNjJzgg1Q7-47">
          <mxGeometry width="50" height="50" relative="1" as="geometry">
            <mxPoint x="-300" y="650" as="sourcePoint" />
            <mxPoint x="-247" y="687" as="targetPoint" />
            <Array as="points">
              <mxPoint x="120" y="520" />
            </Array>
          </mxGeometry>
        </mxCell>
        <mxCell id="2gEEgpnEOowNjJzgg1Q7-50" value="Sensor Readings" style="edgeStyle=elbowEdgeStyle;elbow=horizontal;endArrow=classic;html=1;curved=0;rounded=0;endSize=8;startSize=8;entryX=0.5;entryY=1;entryDx=0;entryDy=0;exitX=0.5;exitY=1;exitDx=0;exitDy=0;exitPerimeter=0;" edge="1" parent="2gEEgpnEOowNjJzgg1Q7-53" source="2gEEgpnEOowNjJzgg1Q7-47" target="2gEEgpnEOowNjJzgg1Q7-33">
          <mxGeometry width="50" height="50" relative="1" as="geometry">
            <mxPoint x="250" y="630" as="sourcePoint" />
            <mxPoint x="303" y="667" as="targetPoint" />
            <Array as="points">
              <mxPoint x="280" y="520" />
            </Array>
          </mxGeometry>
        </mxCell>
        <mxCell id="2gEEgpnEOowNjJzgg1Q7-51" value="GUI Commands" style="edgeStyle=elbowEdgeStyle;elbow=horizontal;endArrow=classic;html=1;curved=0;rounded=0;endSize=8;startSize=8;entryX=0.5;entryY=1;entryDx=0;entryDy=0;exitX=1;exitY=0.5;exitDx=0;exitDy=0;entryPerimeter=0;" edge="1" parent="2gEEgpnEOowNjJzgg1Q7-53" source="2gEEgpnEOowNjJzgg1Q7-33" target="2gEEgpnEOowNjJzgg1Q7-48">
          <mxGeometry width="50" height="50" relative="1" as="geometry">
            <mxPoint x="480" y="657" as="sourcePoint" />
            <mxPoint x="533" y="620" as="targetPoint" />
            <Array as="points">
              <mxPoint x="360" y="520" />
            </Array>
          </mxGeometry>
        </mxCell>
        <mxCell id="2gEEgpnEOowNjJzgg1Q7-52" value="GUI Commands" style="edgeStyle=elbowEdgeStyle;elbow=horizontal;endArrow=classic;html=1;curved=0;rounded=0;endSize=8;startSize=8;entryX=0;entryY=0.5;entryDx=0;entryDy=0;exitX=0.5;exitY=0;exitDx=0;exitDy=0;exitPerimeter=0;" edge="1" parent="2gEEgpnEOowNjJzgg1Q7-53" source="2gEEgpnEOowNjJzgg1Q7-48" target="2gEEgpnEOowNjJzgg1Q7-34">
          <mxGeometry width="50" height="50" relative="1" as="geometry">
            <mxPoint x="463" y="640" as="sourcePoint" />
            <mxPoint x="350" y="747" as="targetPoint" />
            <Array as="points">
              <mxPoint x="40" y="510" />
            </Array>
          </mxGeometry>
        </mxCell>
        <mxCell id="2gEEgpnEOowNjJzgg1Q7-54" value="" style="shape=flexArrow;endArrow=classic;startArrow=classic;html=1;rounded=0;exitX=0.895;exitY=0.81;exitDx=0;exitDy=0;exitPerimeter=0;entryX=0.075;entryY=0.77;entryDx=0;entryDy=0;entryPerimeter=0;" edge="1" parent="1" source="2gEEgpnEOowNjJzgg1Q7-22" target="2gEEgpnEOowNjJzgg1Q7-26">
          <mxGeometry width="100" height="100" relative="1" as="geometry">
            <mxPoint x="440" y="550" as="sourcePoint" />
            <mxPoint x="570" y="550" as="targetPoint" />
          </mxGeometry>
        </mxCell>
        <mxCell id="2gEEgpnEOowNjJzgg1Q7-55" value="" style="shape=image;aspect=fixed;image=data:image/png,iVBORw0KGgoAAAANSUhEUgAAAdoAAAKECAYAAACgiPu1AAAAAXNSR0IArs4c6QAAAARnQU1BAACxjwv8YQUAAAAJcEhZcwAADsIAAA7CARUoSoAAAP+lSURBVHhe7L0HfFzVnTZ81bs7kLZhs5tsdrPt3fK++35b391NoxkXWX1mVN2AkGRDKiRUg3vvRb1LljslEBISCISQAAmp1EBCc1ef9ny/53/uuffOjGxsCyzLOoffg6TRaDxz7znnOf/6WDBjwo6ojbAH+jE1IkA0AiAIRIJAdAAIDwCRPiDcC0SH5G+GAIRsRKP237svIsP77wzb6AdwDMBRAMdtnATQa/9u0PPa/LsIXzuswLeGcAQYOAIMvwWEjwGRY+p9EaFeREMDiISHnM/E1wnytcPAgP2aCA8DIX4m/iYizzs+DLx4eBg/fqUP3/7lMTQ//gcsO/gr3NT8FGq2PYbC1d/BlXcewD/dvB9//KUHMOOLDyJ38QGkVnbB8rXCKmtRX/1t6uvpUN7x3iL+34tHEdEGq7QNyf5OpJZ3Ir2yE5nV3ciu6cSMG/bi8i8dxF9+87v4p7sfw3+v+inm7Xgei3qO4I4HjqPxB6/jgZ/8AU//LohX+4BjUXXveH0Hwvac4r2SCRJR9ywcAkJBIMw5FTo1eE9CQ+oe8XuC39s/R6NRmSN6rhB6bum5pob9erz70SGFCO85X5v/Bt+PZ6J5wfcuc9leBzIj+xAV8FPyj8ww4/TDin/AjIk1NAnFwx0kW735xW1U0VAM0Wqidl4g/gVtEubz+HxuiHqD1OBr8fGhaBT9oRBCiHreD99LWJFncBCRYL/9frhpDtqbp0uY/Df4etwOuRn32SCZEyfsx/Xv+PNhAC+HgWdPAN9/C+j8ZRhbftyHW+97Hde1P4+S7c/gytWP4V9vfwh//Y37cdmNhzD5hnuRtWAvUio6FXmVNiuQcEm2p0M8Mb7biP/34lHSDqu4HVZZu0O0aRUdimyr2oVoP/Q/h/CJWx7G/17yQ/zXmqcxd+fzmN99BF+/9zh2/PAE9j7bj++/BvyiH3gNwJsA3rYPUDxI8eDkvbcxfBaxD1AJ844PaKaLn4Mkx0EEh/udueR9zdjXsv9ek633NYS4iZB9ACA8f6JJ1nkxzivOyCDCNtSTzDDj9MMQrRkjjhE3PhnuLuQlsxii5ZAX4C7qAX/WL6wRjALDhG3+yM7rIXVaz1Fu1aRCfiUdHkUkehjDkWOycZNINYlqwjwC4PUo8DqAPwB4gz8D+D2A5waB7/4uhM5nT2D5g6/hq7t/g/Ktj+Gzt+/BP36xEX9asxWXlKxF3rzVyMxfg+S5G2DN2Qhr7jZYhXUuiZa1Ibm8A0mB9hjy4mO0btOquuV3p0MCMb7b4L9xCsh7KOsUkGQF5R1IqWhHank70irbkBpoRnqgERlltUgt3IqUORuRPGsd0matR87s1bhk7gpcOuceXDL7Lnxw3t34eGAN/vWL9Zi9ZB8q138Ht3Q/h9Xf/h3anx7Ed/8APDsAvADgVZuQ6cXQh52RyFjPpyjnRIiHqUGPRcrDnn3w0xCLdwjgQWyYv9dE7c5gZ8gctC1n8djw+9h5qqepJnFN6vo9jvSyZpgRPwzRTvjhPb7HDi8fOhZI3KajXXV6Y3T/0LZCuEHqjczZ0OxNjZZEMAgMDykEh4ChfgW9qdqWajhC62UAIQwiJF8HZHOm5UQiJWhNcQPnRv70IPDoCaDhqWNY8cDz+NyO72LO7W349xs3468r7sFH5t2CadfejOyCNUgu3ILkwm1ILt6BVF+9kEtKeQuSAq1IquhEUtVuWFV7YVXth1V1EFa1jZoDsMo7Y4iTROUFrdzTIYEY32XI+z8NUgJdSPF3q6+BLvd9B9rkGiTzWvibkO5rQJavETn+BkzyN2Kyvx6T/Y3IKNmFrLI6eSzPX4fs4u1Iz9+A1FmrkHLNMjmsTM5fian5yzFj3nJc7l+Pf/h8C65a+iAqt/wAS/b+DHXffwkPvxLGr4fVgegt+6BEi/ho1LWIZa5FgGAoglCYk4wW6DAw3AsEiX4gzPnicTN7D3dxc9p92LsG3ENkAki8UXv+29/r1zXDjNMNQ7QTfnjccnGkq/eR+JO8uHZPYXmoP9Ikq63SOMhj3AgHgKHDQPAwEGKs9RgwdAwI9TsuYG6oAxGgz95waa3SCqKL93cAfhwE9r8FbP7JIL7a8ysUrX0Q//LlBnzEvxxTZn0Tl+TfjclzliBn5h3InnUncucuxZTiVZheth6TAzuQWtkGq7onFpXdsAIdsMoYZ6XV2akeq+hRKN+tvlbuRlJFt0OatGL5VZMViTeeWOMRT4zvNuKJNR6p5d0CL9G6B4dWpFV1IrWiFamBFqT7W5AZaEGWrxnpJQ1IKm5EUuVeWNWH1AGkYp+6Nny9qh5k1PTAKm1BaqANmeVtSPc1IaloJ6z8bXKwySzajNz8VZiavxSXFC7HHwfW4X9/sR4Fqx/EN/b8BpseO4wH/gA81afuNQ9T2i1NIqb7Xw53CYxow+uTjidF+1ecx6e2qEm49gGUX+LNWmPSmnGGwxDthB/cQUi0iad6jtORrbPPOBuZdrt5klkcsvVaszoJhqTLpKoT6ivdxHDjvkfDilS5sXKjfeYkcN9vgY0Pvo4vbHsM+XcfwuUVGzHDtwG581Yga85SZM5dgZzCtcgp2Yic0i3I9e1Atn8XMn27kFG2E6mluxR89WKtWbRWK/fACnTD8tPV2iWPJS/cj/TFB5FUswcpNbuRNr8bqTVdSK0kidLabZavyeXKVayJNh7xxBqPeGJ8txFPrPFItglWSDaBaNvtpKlmJPnaxMpNr+hAZlUXsukar+Rhg5b9A7Dm3w+r5j5YlYdgle+HVb4XVmAvrNJOWAEeYPYhqWYvkvg3FV2wAnxceQAkJlzRhjRfkxCwNXsdUq5djvSZ92DK3Hvw8ZpN+MxtPZi/43HcdehFND8XwuMDak7Q+nVi7hEFkqYmTOcQGEO4dijDJlf+LWeeJls1t1UsViVAce7a8VtOej7EJ5kQrRlnOAzRmmFbtfbXUyKWdN0N7DSuYYH79/o19N9zrzoSCjnZxkyc4cZJ9+GvQ8Djx4BlB1/CjbU/xVW3HsJfVNfhsvyNmDRzI3JnbkHW7K2YHGhCdqAOWf5apDGOWLoLKWV1SCltgFXagCR/k1hmDulU7bZdwbbl6m+FVdGGlOpOIdP06g6kVLYgyV8Pq2wn0gP1SBei3oks/y7kBHYit3wHJlfsRG5FPbJrusRyYzyWxCnkxFitndUbT6zxiCfGdxvxxJqAeLc3DxrlHvg02TKDuQNJjOOSmMu7kUzS9HfBqtgDi5YtUb5HWbU8vNTsUeRasxcp1XvVdec1L2eMmIlgnbCq74NV8yCs6vsVaVfQPb8XqdV71LX1NyKnbCeyCjciY84KZM9ZgUtL1+Evrq/HP3+1HTfUPYmV97+MAy8Cz4VU6ICxeM6hNyJqXpE8yY/OBGY4g0lQkYgzD/UhUlmxZFBv5N9OsmP+gJdojUVrxhkOQ7QTfHgP+mrYxOjNzoyxQrm7eJ8Tn5hiP89+TW0B6zIMnfWrE5ZolbwI4CdBoOvXQdy295coWnkv/n7xVlwydwmm569C7pw1yJizCRnzapFV2oos/25k+PYgpaxLLC1al7S2aF0KqUqSUZft7qUbmNnAnS4pVO2DVXkAFomivB1JlXSRtgtSq1qRWtGEtIoGQU5NE7IrG4RkM/3bke3fgZzAdgHJnS5Vx/qzk6E0aZFI42O28YgnxvMO+/06n6G8S9zhI0FZogq0TEme8lhFhwIJlNeAr1XZLh4Aq5yHHBsVbfI4we/lHlXR7fwgrMr7YVXZFjHJllawkHsrUvzNyCpvRW5FE3ID9cj17UJ2yVbkFG5EylVLkDNrKd5XvBZ/uXAXrrx9P77c/nO0PxfGT04q0tVuZk24MRauPgfKz/ytzlNnoEKDP3Ne0xL2nBT135lhxjsMQ7QTeGjrUp3kPXuGQ7JMUKJL1yZSB3GZnyFmBnODUr40bSWQWGmtMqmF7l9aGTpp6cfHVOnMDc0v4rNLn8RHKpuQdfUapF+9FrnztiKvZBdySuuQ7WtEhr9ZCI1EKhs0N/VKvbnzq3LfOuQhmz83eZtoBXZ8tcK2vAS2G1MThQP973jRkgDtNh4NEohvzBFn0fIaavA6luvrqK4dE6ZSyxvPCfxb999Q/56+Ljw4qbhws1i1TMTK8tcj21crELL11cvcYOyYceNcXy2mlG3DjJKN+EDxalxeeA+u+WY7vlL/Q/Q8exK/6VceE123zRkrk7+vHzhxQiXhhe0s9/BxIEQfSx8i0QFEpJxHJchrtzQhayjM39hLJxpFxHZLm2GGHoZoJ/DwWpwxXjAv0QqRnlRNIBhD1eQaZsISCde1YFmpox1u3Mi4qbGc5hUAPwsDe18Cbj/wa8xZ0o2/rlyGGXPuQnZ+LVLz25Fa0IGM4k5k+nYjM9CDtIBK0IkhIxIek5eqbPB7mwgTScsmCk26CYRL2FZaPNh4QtB9CtDtbLuePeRwLkgkurHGOxBtzPUj0bL8p/6USC0nEklWEOABikR5biARe4ma5EziJQFPKtuB6aWbkDfrbplnl8+7E38VWIYrvlaPr7U+iZ7fRvEyXcs0cz0WamggiKEBbfsGxY08HB3CUGQYw5FwTJ7CkB1xORWxDg0JlZthhiHaiTy4SXgTm5xzeTzRxruGWXrD0gl7s9GZm9odzMxQxsp+OgRseuwt1Gx7BP/rus24bN6dmDr3LkwpWIZpxasxPcAM1FpYJZ1I8fcIdF1nWsVuZNbs85CScg0rq1ZblC606zgRZ0Bo2pIVK1mTrU0qJFQp7aEFzPihXeIjUK7TePI8GyS8l/ONeGteW5beWK32Dng9BHJ9+NlVGZCG95648N477+GIGcmJ5KkhJUZyX933lUD+HkvYtYJbhHBVOVId8vy1QryM87IuOqdwPS6t2I6Pz9+BmuUPYOvBF/CTN9yyIp0zcMK2XtUhlP8nAbv13NHBIwgFBxAMBhEKheQrocepCNiMiTcM0U7gcUqLlj/FxGj5WzchSv8NtxtuTgRjYYy1PvgqsPTeX+PqW1vxwYLbMW3O7VJWk1ewEjPKt2FaZS1yyrYjy7cTuVUtyKjqQkoVE2sYG4wtjXFinQEXqX4b9ias6z1PCWezPhVcMlBxQ006I1jBjst5v42Lm2g1Ygg3Ae/wegnP90DX68bcI/1aXnK3Xf6M3RJMmhIw+UqR/enABhw6Xu4kqvnbhNhnlO7Epflr8aHCtfiPL+/GN7pfxH2vAr/VSVUsLXPcxEyIso+T0beAKGnZJVYOkivdx2aY4R2GaCfw0PkgMfHZuExjliLqFBGe8tlAgDEubjF0CbM5RNeLwBdan8L/+3oDPlx6D6bMuRNTi1Zhmm8TplfVYUp1k5BqVmWLND+wSuth+Rija0RSxS5YFTtgle9EcmUt0qqbkF7DhCT2C25UVoqQaxdSfd1IL+uxsRepvh7bvZy4uTqbbDzxxsFrUWlXZjxJx5O1l1jiifNskUB85xMxRKiJVoHvTR9uEt4rn0fr3/EAeGPhZwNP3NyBTaYVmkyJQwpMlhI8oMDf0WVs36+YA5P+bKyFZnZz1V4kLTyIlMX3w1p0L6wavt5eWAVsk9mN9Ko9SGHHr2s3YFrhFvzXLQfx+cZn8cgbwPNBZeXSnlXrhOGUt4HwUWmQQWs23nr1xm3NMMMQrRn28BKs2jS4VZBgj4SA3/UDr4bVKZ+ZwgefD0mG8CcWbsb0klXInbcMeSXrpH41o2iz1KxmlDfJBmiVNsIqJLm2IXPxQUz+woNInc9NbidS5zcjpaYBSVV1sCrrYZXXw6poQHJFM1IqWhVZyoZvdzCyXcxCsv4ej8WVSCTxpOu6mBNJ1LGQPSTLx7yuzJHgJaJzQfx7Pq/QZCTxaJdo+b68XgSXcO2Dhnb/Soz8DIk2xt3rjft6STaebEeAQ74sBdJZz16XdOwBImnBPlicazX7FJgpXbXHfk+7YS0g4e6TkEDS/ENIY1lSQT2SZm5CztWrkPPf38R/3FCLbzX/GN/+zaCERXTTlF67tFbWSjgcQ7YkX2PZmqGHIdoJPeIaTHhcxJpk3x5WFiwJ9vEjwB09z+KTN+3EnxTdiWn5SzDJvx1JJTtgldUivapNGjqoXrp2OY2/UyyJ9BsehFWzH1YJlWJapI41ffEhWCV2jWbFbtXMgJuvn+U4dPHpjdzrioyN8zkbvbNxe12TcSSsk6ac5Ck+z7ao2GCB4M/MrLVfTzdxELe1h3wZB7woiFYnfnncuerz6s/qQluNMdnX8lrutfa6nPW1U68XD3UP1DWIdb/HHoBiDzbeeK4c4uSgYCemObA/i8xFllw1KwSa1AGuskXmakpNC6zKOlhyyGuCRY8LG4/4O5BV1oW8sk5MLWnFtIJaId3L5q3Bf369B1/s+DW6XgVeYtgkLt9JZx2TeA3RmqGHIdoxHl7XbeyyjLcw4+H5o7g/jncJu7/m36lsShex5KrLcnhqZ0nO82Fg43dexKe/uhMfLrwdl8y7C9OKVmBayQbk+XcijZsdiZUbnG5IQJcc+wDTOqhiP+DdsMrYCahLdQiilVFtWxVs2xfYB6tsDyzfblgBNj/Yo1r7samE3jAFtKK4OZKom9XXeItKk20C6Y5ENPxdvAU1EuG6ZBtvAccT59ki4T2dT3gt2hGINgFOYtM7lzjpA0jCa5wO4sqPI1QKGrCnsqBeSnx0mQ9/J+9ZktU8meAeC501u8lVbUirbhNyTa9slvpoZkSnBHbBCmxDUk0dkqsbYfH1fPz9bmRW7Eemfz9Si7uQ69+DrLIOZJY0IbukHmkFWzC1og7/3zd6sPWhl/CzN5WFK5auLcHIlaXWnM5TtqHXaVx3SHfY6zvm8OuuUftPR/g7My7kYYh2DAcXipQJ2F/dqI63YYRXnSQuOUmzqWct8hAdZAJHyH3d3lAEg6LLykd08c1hqRXkS1Cf9VhYxV2Z2MSTetvPB7Fw5w/xweJ7MKN0LSb5tkgrQ9mgytl+cASJtxGTX+IILx4xSS+epBsn+cZrzY5k0cb9m44FewpyjYf8zZlZxPFkMuZE+W7Ae209j8d/TgWdLOa5/vGv5/n7U7/OqRDv6lfwErEXyo090pyL+zz2e/WGEDRia6PV55H3Ylvkuj2lPmS54QRmNTdLedrHarpQvP5Z1D8D/CaqDqhcZSwJUm1F7cYXlHOMRkT9Tzo6shzOlsJ1SDPKv9GSj3Y5nfxdrPyjt47XjAt/GKIdw3FKok0g2fiuS3EWrcfQ9XIvX/NkMCLfK+uWJQhMaVLVrsFQP46GlGuYBPvjoxA1lU9/oxEfLF0O64pbkefbJpaEctNx0/LWkdoW5wgbrYHBxY9uJPv3w5rTCmvmVlxash3//dUO3Nr2JB5/bVgsXK5tChMwYzkUUiVxQpZRoI+qflynwTD6++lH4iK21/3wSbcRjGfde4k2hqDNuKCHIdoxHJoUY1zH8r8415HAdRl7/06B3Zi0KLV6XjQaRoiyc8yWHBxGf99wjMTXUBjojaqa155fDKJ6zX78fdVyXDbrFskaprrN1IpddptBjwU7kvWQsAEZGFz84JrIrGqX1pCTAnWYXLwFk2ctwwfn3IP/O38zim5pxf2/HMZLg7G1ucdD6qjLNRvsP+bWqEeGEQ0yt1mtcypXede5S6pxISQzLvhhiPaCGqdeQJqI9aLT3uJhRDCEYQxD6bWqJWyDJ2FqvpJgo8BJJjbZijgvnADaHj+GK77ahI8FVmPKzG+JUsqMsk2YEtiGzLIdsAq2uS46vcHEu25H2IAMDCYCGELJKN+G7MAmTCrfgUmBXcgp3o6sOZswZe5WfKh4Gz40ZxWK73kQtU/04llPC0jiJImVWrqUixT5yBCCQ8NCsFzbg9GRGsp4rF7bnWzGhT8M0Y7piE96iLVaEy3XhNQKkfMaitoKI4wMRU4AQZ6S+X1Q4kFHT0ZwNKhiR0+fAJbtfx2fuWkP3p+/BpPy1yGLJ/HyekyqakGav0HqV5k9LCU4MXEvO77FzE3GaStOEas1MJgAYB14btVWZJevRVZgC7KrG5FV3Y208h4kl/YguagTmcVtsK5ci8zP3oV/+VI9Vj7wW/zouMri54FX1vlQEL3HjqvtwF7njN3qVEXXouXewEdsohXHtCHa8TAM0Y7p4MrSp1ObOj3ZiPEk64V+TiQ6jEik343lDp0AhqnvytdTp2HGin52HLit65f4u4V1mDJ7LfIKd6ksSnZk0uU4JNTK3ZIZLHJnBczstTM5hWwV0ZJkVVP4RkO0BhMWXAeZ/s3I9G1Aim+rylqWHAZm3FON6AFYJT1Ir9qLaTXtmF66EZfMvR3/sGAFvt76Azz6RhS/H4wVnWdioibXUIT/1+RqE+wpKgbMuLCHIdoxHWdGtPrn2L+zrWDRyLQxEES0nzqbagm+Pgg89Trw1drv4s/9y5B17R1IK9goGq1CnCyLIKFWsuSGwt33wvL3wCqzBb2r7X6+kvREslVxKUO0BgZqLaSVUUGoXnUyk3BKpzqY1uyFNZ9NMvbCqqa0YBNSSrcju2Adcmfeg0tnL8Wfl63C11qexr0vKFUr5ku8NagOx7Lgg/RKUczDBg/SoiKkEhyJ2H3BjAt1GKId0+Et44k9nY5IrkLEnoxkilf3BtWR2D4GSzYjgCdeieCutsfx8YJb5RSdW7gKmeW1sKpaYVWxnpUEyq45h2CVsc6VNa/skkM9UNa+7lekq4lWrFrXfUyyPWWZj4HBBADLgFLLKYDRJb26nfpd6vAu3A3rut2wbtgL6zquLaWbnFvdiWmVnZhc3IRJ+duQeeXduLxsHRZs/xG+/5YiW+k6NWiX8kkI6IRNtFzZimi149gQ7fgYhmjHfJw6ASrGctXkyqQJpv1Tto6JTmGWBwBDTHaii/ht4Cs7HsNfli7HtGvvEqkw1r/S+lQScyTZHvukrRszsIbUK3/m7T/rdR27sVqtnhO/+RgYTBywtE2vF7tRRnUbrOoWWDWNLpzmKupvkgM9SPHtl57daaUtyCurRda1y/EnZatwU/3jePwNFe6R5jEs+7HXfnDwuHzPWC3P1YMUMIjfMnjeDoeNRN8FNgzRjvHQlmui9eqSbHSYgtQeiTq7ccXgQEjqYJnk9Oxx4Jamp/B3VRswdeZdyJyzFhklu6TAXjVi0HWvnu45dg2s0zBA9w2Wx3UDh/iGE6ducmBgMKEgOQ30+ug1xe5l7FzGQ209rMpa+yt/1nXoXIPsQHYIVvlBWEVtyK3ejSnlzciesxKTr7kVf1+1At9qeRQ/P27rOrM8aFCRK/eJ/sGBhD1Dt37kV9P68cIbhmjHcOg4rE5+cJdHYh1thG5i+3n9wSiO96uC+F8AuPvh1/CP/7MDWdfeirT8lcirbkX6/D2yiEUFRS/q8r1gY/4MXweyy1qQXdYsup3xWqBuqz3PhjISPI3oDQwmHDj/q+kq5lctsqDCKlxPXFsZPtUXm12l1N+wRWmPLW7QoyT7iuqQXLwLkyubcElVI7JmL0fezDvxF1VrseTQ8/h5SLmU37b1cSVFangAA71HEQ4xGXIkbxhitHHNGNthiHYMB4lVJzW4RBtLsn29J9y6OkrTnYhKDR6t2IYfvYr//ZVtSCu4A9acOzBpUR3SFrTBKqSYehus+ffDqqSc2H2wyg8h2b8XGWVdyC1tw5SSZkwqbUS2z+0l65WLi2lzpzeWeKLVFm78BmRgMBFAYqUwAUF3MUUJAtS5bUNWmUJ2aYccbClUoP6G7uUuFcetbkPG/A6Rj7RK6mAV7UIy156/CUlFO5FWsBnJV96J/+8rbdjx45MiS/kmG17QoaU3kLhBctUSfcayvXCGIdoxHPFEqx6Mravlc3iK/cMQ8EoYeJUSda8A85bsxtRZNyPTvxqWfyOsql2wqhuUi+q6/Uj53IMq2UnkxPa71mxZF7LL2pBX2ixgv1ZXEcWjShPTT9bbV9ijRWosWoOJDK6JKpKsjsGyJ3MH0n0dss4IqgDxK4lWPESSJ2ETNGO3RVuQXdWM7AU8tLapMjuKcdTslzr29Io2ZJdsFQv3qlu78MArqunFm8yBtKsLBgcHBSTYeLk+My6MYYh2DIeXaJ2zZ0wWskqI+MOAch09PQws2PkELilcjtz8VZhcVQ+reCus+W1Iv44JTu2qOXpNN6zq3UoDVlueMQo0Xsk31bDd0WP1wG3CHtcNyku68ZuPgcFEgpMcqH5Wa4zEqqGsWa3nK8/VClSVzche2IbkQAOsMsZyO2DN3w+r5iCswF5YxZ2wytqR7GvC9IpG5F27FJfnL8GXap/Ak0eUV0unPGlpPj10vNaMC2MYoh3DoWO0nuXhJDpJEpQtWccFtfW7L+HvF25A2tV3ikxYKmXmStqQvuAALLqlihuR7G9FVnWnuJ5SffXIWdCGlIp6JFewkN4+dVcxnkTXFcnYIy3nwFWs8RJtouKJacFoMNGhMogZkuFXd/3Y5GuTqSBGVlBZvkK8AcpM8jmM9fbA8rcrjebyHqQsPITkyh5kVHRjSnUXppc3IW/uWiT/9y34RM1OrLr/VbzMbEh7aGuWBOslXTPGfhiiHdWw+44KlLtGJzeNmOB0ylKe2Md0PJYZhw/+5iSK7mjGlCu+jJw5y6RNYpJkAh+AVX0frLJuZC84iMzqvUgqbUWarxmppXVIKtqOzPI6pJfXCtlK5qO4uXhq7oK1gEX1nkzkeKk4ezNJJFvvV0O0BhMXIqPn3yulOiRbh2g1ydI1rGGTrSZZZeUyoZCuYgrUt8Mqa4Hlb0PKogNIXXgAlq9dHaiLm5Dma5XEqtxAM6YEmpA+dzOmzVqK8jvb8MDTr0veBqtsdV/k/oETiLIU0NNBinuRFyPFeN0Rv1/F4bR/a0b8MEQ7qsGCchaTs+Uh9V6VK4cTnqA12jesT5ZB1enFnvhqnkaUHBaL0qMh9A9F5O8Yg/lJP3D7oRfwweJloqST62OpTrNa5FJKwEYS7uL2anp6tTtdK1S7rXR8NV7wO1F/NQHagjWWrIPYg4jH1X6OzzMYX1C6tbGeIEFCqMX1AHk1eNVz4+Fdl+5zdUhHVwcwvyKrYBdmzNuMmzpexG+hNKWPSrYxRUXY81xR8HBoAMMRlVR5cgA4flJpVzuk6wxNpLFVD7G5I/w6ksFgxqmGIdrRDE466dxCYWcSbUROlLRGdf9S/tw3NIzBQd2+SVnAYVHrUIXooYGTGKZYu92GrfMXQ7ji9h5Yn/w6cn07pN2hWpAkR5KsDZP1O+aIJ85TEWj873UMPP55BgZnjm5YvgPIoXfrqlX4+8/VYf/zQUd4PiQ7UB/CYbayCSIcjWDIFppnB7kBnb0cM96BaOMtWzPOaBiiHcXgJI1NZuLEc13JYuHSaLUJl48Oh4KISPMJ1bf0WN+QLAqeO3/eB3y18TFcevVXMWn2XZhWsSNOdD2uftVYlmOOBOvkDHEuf2Ng4AXnTybzLK7dhBk1rbi0YjvyrroZ1+98FC/boacB2ZgiqumNHOzDONY7ENfC0RDnez0M0Y5ikGBJkjwvSiNwTlSKOEsTcLqD2S7Ntmrt+jcndSHYJx1eSLBcFPe9DFx1cxOyPn0TZhSvQV7pVmSU1SqS5cLy1q1quTrtEh5hERoYGFzckPVfugOTF7UipWwX8iob8aHrupH06dvwt1Ubse+5kJDtIPmT2rZ9bHETkl7Jb/X12xnLHuvVQ7Tct3SiZjy0uznRGjbjVMMQ7SgGCZQTmWRJJ40MEm34hIKOvQ6H0R9VzyFODoZEdIck/RKAL+1+HtlX3Izsa5fgsqpapBRsQUYlyZQLytsGUZGsVs8hjPtxrBHfwOMscLp4uIHBO0CI1r8dWQsbkFTVBKtgJ6ySZsyYvw/v9zVh8qfuwK0NT+P5E2rfUYma7Cp3DMMIIiQ+NnrXdBjLTZrSSZ1e4XkNL+GacWbDEO0ohiQW2HqvnMjKSxMEwrrpfx8Q6sfgQJ9MTJ4gf9/r/s13XhjGv32lFdPKtmJaeR1SC7cijQvkhnthlTJ5glnBseo5XFwk2PRAvcAQ7RgjnjzPFvGvZ2BwpqhoQfb1zFbeAstXi5SFe5BE2cv8FqTOa8GlJc2YfsVSzPp6F777ojIIVJJmGMeGjyKq0zZpHGiyPQXResnWEO3ZD0O0oxg6RqsnoTP5+D8hXErZqUkcCUUxEFEWMLUnNz/8Kv6yYg2y89cio7QeWRVtyKrZDau0Fdbcelisy6M+bOV+RbbSjJzZxS7RppYboh1TCFlqj0OcAMOIzz3F8+Ofa2BwJqCHq7QWSYt3q1rc0gbkLTqA9PLdsOY0YkrFHmTMrUXSp5fiYxWbsfKh34sHjXvQECLoG3hTSe9JQqcmWxXc0ntbPAzBntswRDua4QlWeE+B/KrINgIMMQlBlfPw/PhCGLhu2w8w6arbMKloI/JYX1dSj4yq3bB8HbD83UhdxB7FB2yVj1ii9bqOjfD6GMMhTlsmzevij3+u42LWz9N/Y4jW4BzBuSP7Bsv2OpFW1Sl7Cbu85Sw4IGVHSf4uZPMAP3s98mbdhet2PoKne5VHTVEqSxQ9Fq2U7bhbW3xs1h0meepshiHa0QxOytAAon0sSlNF3P1DwICSiZU4LCfnsYGouIsfew347FfqkXXlraJByeYSusew9BcWhQ9uvHoj9mjCxsVpTTLUBYBTEa2TVdymNj/GzkqbkUwd4MJGpC06KL1spaOXIVqDcwbnTo94v6TOlt4uEQSxu8CxOoHP87UgpbodWb6dyJl5O/7jf7aj/ceHxZXcOxQWQ2B4aAAD/RSXV2IEAwOsiuCIK+dxSn3cmK4Z7zwM0Y5mRCMI9x4V9/DQ8SMIDtB6VSRLdzKra3lyZAOK7Q+/go8W3o7p+SswvbIJaeXtEoclyWrlHJdsuUC8erBea8klW0OyY4wEotUka9fKlrcgjU3kSxuRu3gfrJImFWsvZEvMHqQsoMfCEK3BuYHNMlJ93Uj3ddudptQBXEhWxOcpXmDL+AUakVbRgMm+7Zg+bzX+/aZu3NPzK3Ejv90XcsJffUO6mQ7Qe5JC85pUTwFDtGc0DNGOaqgT3lDvMeV6iQQRDQ5iOBiV5Ch2afkNgC+0PItLClZgculWZJU1wCptglXUiBk33icky97FWbZcHQlXujpJL1QuKE/ijBdGOWfsMQLRaoKlZUEk874yg1xiaI1IqtqtLFp2E2J7PUO0BucIuojzSlsElOIj8cpBjn3MF3TAWtACa0EzrOpayU7OqWnENAqPzNoK64rN+HCgFl/e8T0xBGjd0iiQRjtRoLePFq3uva4zk70ZysaiPZthiHaUIxql/aoaVQQHaMOq7OLXhlUbxeL130PqtUthzduGrAV2y8TSVsz4/LfFpaiJ1qsJqy1bdUL1LK54sjWb9NjCIVrXmtUkmx5QCWtpZfXIrWlHUlmDItsCagbvUweoyt3mHhqcM7hPUFOayGCclnsLBeXnE92w5tOyrYfl34LMqh3IrqxHahkPfnuRSp3qa3di2sxbUXRnK350QiVp0jiQnsnarCWhSm8AbxzXEOzZDkO078LgnBwcHhLXy4kQ8AaAx48B//KlelhX3IFcNvCn1VPaLYo7WdcdQoq/WUp5NLF6ES9V5/ZKta1YL0ZYgAbnC3Y8XaBcxppk2dErI1CLTF8drGvXibg350Hm/N2w8nchuWoPkli2ZWppDc4RPNRl+xoFEnLiga9qP6xqokeE5SkmkuTfjsyKnUj17xRx+ZTqvUi9/nugIEnavA2YUbAM/+fzu9D5W4i4PFs4Sp929msU13F8re2pEqTMONUwRDuqoRIETvSelBgHXS+/iwLNTx/Hh4vvwuSStcibb4sABGi99CD3iw/BmlcLK38bpn/ugOseFsktrziAG+uLJVsTm72gIBaprfVb3iIHJ5Jslr8WWf5dyG99E++7YTesq1eLdOGk6/YipaIdybRmKYkW/3oGBmeKmKRIey46fdCJDiT5mQ/SgiRfHZIDTUijpetn3kArkhcdkoMfPWosM/xw2UpsfeKYY9mqbne2VRtHsrq21hDtmQ1DtKMa9mkPIVAW8nUAyx96GZcU3o3csq1IZp/i6k5YPG0y/Z6TvGCnZKKKZVNYZ8f3mBRDtzLh6lrGkm2sHqxDvvGLz+A8w02AojWrQwHZ/l3I9u9AD4BvPgu874Y9sK5eC2vOVpUYxYxjnyFag1GAxMp4LEGdaSn9sw97vjak+zqQUtaFVO4tfj6nB2mce+UNsEq2IGVRJyzW3Pq6YRXVYVLxelxedBeW9PxUiJZWrRCp06JRkSx3PC2aIqWMZrzjmNBE660Tc05mUqYT2/tT15S5pzf7OYg43aFeA3BTyw8xZc7tyCreJKfI1PkkzU6kL9xrnySbkFbVjiTG6ugirmEyDMt37HpZXcrjEZBOJFvvV0O0Yw1JfrJd/FrCTFm1jcjzbUPrW8BTAJY8EcV0/2ZkFm9DRnkT0qt3q3If+zWc1/TE3uU1bblDJXloP0+eY+sImxjvxAVlLqkpzX1GiLZFwhZMrMwuUwlSGWx4498Hq/oQrMp9kpBHXerMhU3SJ9laeB+s8oNIqepBXnkTJucvx4fmfBNf2PaAhMB017v4Noz655EsWie8G/e4GnHlQhNkTGiiJcHq/sNukwlmD+tOKZSzs1V3bARDFA5ggkAfglFFsN8bAEq3PIqsa29HbukmTK5uhlW4U7loRkhcconT/r1XcN12RSYsKkJbsMaSvSDA+5cRaBGkVHSqe8fMT0GHzIVv/07FvF4FsO1Hx/H+ouVIzV+PtKpuWGUdSK3sQNb8Lqmz5d9Yxc0qK5n/RimT5JQbml9dPeK9sKruU5CDWeJ7M5gAoLvY0ZXWrmQ3v0MqFzgXY/YXe/+oUDX4zBVgWCulvBtp5a3IDTQir3gjPlyxCbOWHsIz9tylhXssrPdJqqOcBEKql7veOjW04aK/JhgoE7AO1xDtqYjWbp3I4m1OhyN9QREGkNNcSMUsaMk+cAy4YsOTyMxfhYzCDcitaEBKoAGp5e1In2+XbzBeoie6uIS1FUQrZYQFZDAuwHuYGWgSKKIl6e2BVb5PmghMLtmA7//msMyt41GXbKfmL0Vy4TZpuUmStmZtQvbiA0hdeADpNzwIa3a9JEoxlkuCVW7oXfK9/NtCtA8YojUYNVIrFMnK14pOkd1LKW2ANWstLvFtwX/duhdPDAO/060byZWU3KNoysDbdi2tGmdOtBOvDndCEy0ngHaFOJNBu45ptdqnrr6+k2LZ0qJ9o3dY0t856Z46Anzytt1In7MCaXPX4pJF7UgTabtm5C4+AKu4yS3/MER70cFr0SbpeloP0U4tXo8fv3ISoeCQkyz3AvtcP34cH/KvQ8q1yzGlukkykunSE0vWx2zRe1XcTDZB2x1oW7VKm5hWDMUmGGo4hffDwOBMIHkCXSpnoLhFQho587uRVrJTLNsZ85bj379Uh++9Bbxpl/6wmZSbjaytUpcw9V7qEqx3xInKG6KdIMMzK2Imhj55BZVAOweTAEiwr0SAh34XwRW3NCH1ym9KLO7SxR2yGTKbWDZg1syWclOMJ1o39maIdnxDEy1dbkkVzCpnMts+WBV7YPkV0f7o+bdkHrG9HRsBHNaiEt//Az5SuhRZs5djxsI2ZFV3SBMTIdpF31YxNT9Ju1v+HVWX22i32LM1ig0MRgkeENPn71NZ8BQ0CXQio6oL2ZXtmFbVhBllmzDp6m/g/y5ai0deVwmf9OTFiMbHkK0N+aX+Gj9MjHaCDe/pynV3OJl0zqltCOFoBEeCaqI98Abwt5/bhuSrbseM6noRXLYKtkqNGuNtSXQjkmSl849OWjFEe7GB95Ekm1rRKtZnPNFOK16Lp154CxhmKzt1+ufc4kbFmFf946/jg0V3I7tgjbiGJVZbyZjZXljV98Na8KBSb6pQZBtTo2vHbJ0EKQODc0GgUxKhGKpQdd3MHWiDVdYsIZGc4s14n28DZsz+Jv5x/nIcfD6ElyJq/r7FKe3sk14rlV9JovprLKFqd/KIHHyRDkO0kthEF/GpiDaISDgorj9OroafHsdfXb8NOb6tUpsmbr+yWlHNYExN4rJSN8uYne1ONER7UUIRrbJoY4jW4zp+7vV+BI+/7ibYUTqRLriQmk/rHvkDPlKxFtZnvomM0u3IWtADq6gV1sKHYNV8W8VhPWSr3cg6ZmusW4NRQZeZlbSqvAB2lvJ3IrmyCxmV7VKqNsm3Be/zr0PeVV/H31Quw/6XgJ+HVA93NZu9lmwc6ca5iL17rI7hToRhiNZj0cYM7fpgXPZYv7iMH34N+F+Lt8C68i5YhfVIWXgIVlGDlOzkLNoPy9cKa16dTF4mtlhVWnnHEO3FiNPHaPdKMtSPXjgMRAdw8vVXbLJlpia3p4h0EaMbeeVDr+BP/cswvWQNrPyNyL3+EKwAvSGH3KSnOLIVC9jPfABDtAbnDrqNadFaZe3qsCgelU6k1tCd3IXMqg4kFWyW8Ngl/o3IueY2fGLBJrS/BPzS9s7EEmZ8ZnFsdjGf+07lQRfjmOBEG+/H4CTRUJOiL6oabnc+fQSfqFiGpKvvQg5dfAuY8blfCJUTUlzFrJldfEi5jEvaYPnsTFRdG+slWt1ecYTJbzA+kJB1LGUULtHmlmzBYy/1uol1zGSnVRvqQ2SoT+bX21E7ZvvI7/DhwttxqW89JlU1qVKfKh7W7oNV7SHb8m4hV+0+NkRrMCqUtalDIsuASLhsYOHvQlINLdt2MSQYGsmuaBKPy5SyLUi75m78UeVWtLygrFo2r+DRMaZTlJdomeNi69xyzvN5Cc+/yMeEJlrtxghGgL6TSqAdwwOIDistxqNDqgZyx6Ov4h9v3A7ryjtgFW5X2aELH1CJK7ppgNNcXj8WBw/R6no3Q7TjGyS57ECDQNzHUv+82ybb/cgp3YZHXh5Sp/iwvaUI6aoTPx/hZkNvCTesuh++hssLvoXs2XdLmZhV3Air+iCsRd+B5T+oLNziTmQsPKjmTmm9mUMG7w6cPcy7b8UaB6rzWT2yfbXI9e3AZSWrpE78DxE1h1/vVwTK+X7ixAmXbA3RGqI9MWTHGVgjO0iLg6rtIbx9ckgs2cYfvYn/70t1SJu9HFMWdSOVyhiFLcq1t+gBz4Q8HdHaE9ZTimGIdvyDRJvpIVoJAzA2L2S7H9mlO/C9l8OqZV1UbSyRuJ0lGAyKC426T0y0I9l+YPbXkZe/TCXZMd4/twnWDY/AWvwwUj73XafOVpLuRnhfBgZnDb0/Jexhel+LDXuRdKeUbcKfl92J777qihFwz9R9CcKhYY9lqxpbaNexIdoJNHjTecNPDLsJUIffOiITgTWPD74YxD8u3oSUmXfDmrtVCXWzFzH7htbwe0/XFbFY4xDf8clDtAbjHxKjLVeuYxItXclJgXa7M9ReIdqHX4mIa42xLO1i4/xy4lrRkMgr8mf+/vdhoO7R3+FjZXch7erbpctYinSR2g1rMS1bttOz62yNzJ7BaBGjDOYlWxuOQIHex+yOVOWqnDHv6m/h72pW4qE3VVMLemaY5OeU/8QQbcTxIupOe4ZoJ8DgTe4Pqxt+clD1LeYEeTMIPH0S+IfqlbA+dTNyK5pUNl5ROygtxSSolJrdEr9whNnjCfVUiJ/oBuMW4k4rb1clPuXtYtEqoqWQRLe4jh9+JSwE6ohqxyeChPlTEMNDA9LS80RUbVTbH3kJf1J8u7iRpy9sRwZ72hYx7t+DpAX3w6qyhQnMnDIYDUaU4Bxh3xoBtGzfv7ARKZ/6Gv56wUZ8r9clWx4slQ1Ll7EbLtH7rl0EZIh2ogx2fKLsIre7w0Hl/nimH/jryhXIvfZOTArUSQG3uAMr9yJp/gGVJFBci8war+vuTDc8Ps8Q70UDKevZrRJK2PXL3yogCTLrmDFaHt6YVEeS1TEsbjB6kxkaYk6AG8Mi2XIe1j72qiRITZq33FNn263KMSp3K1GK+PdjYHA2iJff1KQrv4uHZ98SS7dDytumVjYi49ql+Jvrt+PhY6r/O13IJ1TVZFxilDvPHa/OBBgTnGhVKnokFEa/XYT9w6PAlbfuRu7c5ZhS1YxJi/fDKmmW7Lzk+cwmbYfla0ZGdTvSq9ykpnj9WO/jsZPbEO1FA9lw9sGqPKDKIioU0ab4m5Hka5GGFY++3C8n9wG7hac609tzz1Z/evt4r73hRKRmmxvQ8YiyDDZ97xV8rHwFrE/fioySHSrjvWAX0mpMjNbgXUACySrBAckf8cpxxli93Ltst3JZB6Z87j5MrW5BypW349++3IhnghDlH7ZrlJDcCKU+3oPmRBgTm2h508N9wGCfWBu/HQZKVj2ErNkrkMUsUrrmWF8W6FJxMl+jqPKwXd7kxSzhqRP3iYBqGR5JM7dONi7pySFYN8HAYJyCmw1bJVbdq8iWda7+VqT5mpDsa8IlRSvxxIvHZKqFwvp0z2/YJIWiFSGZd3Qpv3mUzmUe/NRmxO3oLafO9lVc7l+LyaUbYc3diGnX9SCprEFEvU1CncGo4BCrBxWqzafz1dbAdsi2Uh8yKc93CFbFASlvy/PtwKX5d2H2txrxQijOfSzzmq2k3MSoiTQuAqL1tPiyj0n6tER4XRRqo9PfqBseHBoWS4MnsOs2P4jcq25DTtkuFRMLdMMqbUfa/P1IZa2sr1FINsXfJISbwe/tiahFAmK/jlDGExfnSJj4BuMHJFrWuorWp0u0YtH6mzC92Eu0UTXtpLyHClGqhzbnXq+tChWKqJzMSHgIQ8FhcTOzzpauuPXffxMfKFoqmraTqxqR7GuUTmQjzi+PGH3swc/o2RrEwWPBesnW2ddGIlpt1dKiraGerarvzqKYSuFafKBwCapW7XVECFSiqYdspXd8rGUbj9i9XT1X7/OJz7vwxzgnWjvQzhvBq857aTea4K3R9VrEySFAShkj7BvAMp7joAAeJ8OvAHyl45e4bN49mFa0AZMC9bDmbFOaoU6yk968El3EnIDiIo7/anDxQ2JVjN8rD4VKhiIYo12PR19WGcWUF5MDHy1amZ12faFnw9GHQi/4W5b+MGZb/6O38KHie5Axbz0y2erT1y4HuuwaHgLZBrILVkmL1Nly7lKEXtc9spUeBenVezZ6tgYekED1VxvuvuZxHcf/nZ38p/Y6zsEOZFbuRkbhDvxx5Q4s2PZD8ci8Tccht+sw/Tf05PQjGDwp+693nhP6ZzW4r9MKVpKlOsbL38ckFI6DcVERLUnWS7QkWN7aE+GoKquIAq+/zkJq3qE+HBkcwvMk2UOHcXnFdmRcsxRTSnfgkpoO5FQy4anBFk62Xb0C11owbjsDWpWEEy8lyZYz67gTuaUb8IOXB2QuDthWq6JUfUr3uNPsDUaXPejNJmI3T+E8ptdl55PHMG3eMqSU1CJrwV6kljXCmrlRWoDS85JxvdKzpaB3emWnEGyub5eA36uDoNGzNRg9uP/x8MaEKNkn/d1IqjgIq6AZ1tVr8SflW/Gtjp873aPosYlS7zvMo+MABgZPOAdMTbSabGVIbFcTrU22HqIdT+VB45xoOWy3sced4D0l0ZIg2P1pYDgqj/cHo/IYM+M2PnYCH1/UCOtTt2Ja2XbklOxAcsEOZNptEhNqZQ3RGngwKqL11BjyUf4+dgOhi2YIoQGe/pUb7iUAW544gT8q34jkWaswpaIBGX7mDtRJf1qpt2WdbZmat8qqbXSsWv6svDRGz9ZgdOD+x/aMdC/LnPJ3I6V6P7Jq9iG7pB7Ti9bjz0qWouGxNyTRVOrJh3QlufboqMnu3bdd8vTGdrXL2Vi0YzNsdo3KDaArQt0IuQFRIEhGjQKvvvqK/I6363gUYOTs+68Bf1mzGZPnrUVe4SZcUtWIrLI6WLM2y8Yl7jmduOQkLxmiNXAxKqJ1Nhx38+D8dIiWRBxkr+Q+IVvW2XLDojtuy2Nv4fKy5cieswIzapSwgTWvXjRskxY/pJJUSLrsjRxoE7IlaIGQbE1ow+DdAOe+pduP+jvFfZxR0Y3JFR2YWroN02ctwV/57sF9LwQl/MHD4snBIMKSEEUStTVrT8WY8nuvvesaUbGkfGGP8U+0doxc+fvZV5blEZS/89yRYW5fA/L7w9GouDJ+Ngj8vy82Y9KsFZhathNZRduQPG+rBPSpWCExL2Yd645PhmgNRsCoidYudzgl0dLN1vem+kpdZLv5hdTZPv4GPly6DDkFa5BTtlPFaqsp07cfVs0DChW2EEFAuflItrRsdczWzGGD0aEdFuvGKzuRWr0bSb42JJU1Iq2sESn5mzC5eBPeV7wa//L5HXiqT81bku1gKIxQUGXeS9vbiCvmcrqhOXk8kSzH+CdaXnGbaEMYQkiIljfOYzCwhzF6MYg+HLbdb4UrvousK1fgkvJG5JbVI52lOiX1UpbBBhWpVOBhYwpvO0XtZpMkATsbL2HiGUwkvFtEy0f5nSZaTmu1CfVh6K2XgPAxRbahQXlub1htWpsffRMfrVyPpM/eKmSbs2CP6iBFIQInDuuSrXYj65itcvslfi4Dg3cEs49ZncG5z7lV0y1NfBizZegtqbgOWb5GTCmvxbR5KzB36UH80tZh5vyNCLmy1I1Z+Pzqrgc9NKl63couwbrPu9DH+CdaXmtJgGLxv/rPsWjFmh0GQiTaARwLDYvb7eu7fwbr03diSqADOYFWpJY2IKeqE7ncpEqaYBU3I6mKsS66jr19Pg3RGsRiVETridFyaKvWmwyFYJ8Q7MAbLwDhE7Zlq2JbR+0627UPv4o/C6zAJSVrYc3ZgNzFB2xlKY+ebRzZkmhJuIZoDc4Z3A8X7EPSQmpxt8DyNyGtgjXkjRK7tcoovtIpSaWTK1uQcfVd+HLr09Km0clElsMkiVaTrW7X6JKsbOMJ7mK9wY8Psh3/RGsfcfQN0TdD3BDhIDDIzWkI/f294nLb/oPfYfrcO+SkRc3Y1PJOpPhbxeUh7mK2t6MWqCSMjNRQO7bA+1Rp7wYTA6Mi2pisY9eqjUn0CA0hyjlMwfihY6r+NtiH8JDqOPVWRKn+bP/Ba/hI4R2YUbxGCNQqZbnPfruMJ5ZsGaOlNWv0bA1GBe6JpW2weLCr7ERSOb2BLUivbEbafC16sR9WoEdit/S4/FHpKqz59ovijem1jSRFtjbJau3muPWgPT3OutDrxxDt+RgRBIf7MTjYL513vO4F3ohokKU8fQiHBqU84qFf9eJvKtYgdeZycXNQ4JiE6tSB6cSnGII1RGtwaoyeaHWNIH92rVp9aHTcZHLKj3Wt6eeyAw83rqYn/oA/KbwNk+Yuk/ahYlFwo6MbufxeRbYlXVJny9IflRRl5q/BOUKaVrA7FPfHDruTVCNSypvtDlIk2B5YC5gvcBAZle1IvfIu/OOijdj97EmVieyQLZfDoBBtuE9p2YZCqkOaJlqdr6zWhEvI42GMe6KNcKNCUC7+MJM0KXlH/390GBH0SXIUSfalfmDWlxsxY9Yq5PmaYJU1wVq0346/ejOLR0IsyQrRVjCRxBDtRMfoidYuXYg7xesNhl/j41OE/pl6tvyeCSZM8iPZ/tGcmzG1YKX0n5WEvtmNsK7/nhBu6g1Kz5Z1tqohS+JnMjA4I2iitQUGuC+SZLk3yu+qemDd+D112CtskzaNUyvqkHf1bbj6lhY8dVwJxr95Imx7ITmhY9eDPkzGEq23y5Qh2vMwQkKmUdmwlLeYd4Yxdv6GqVGsleUG9MWtj+DSq+9B9pxtSPd1wKomeZI44+pkdSw2Bnbg30O0LgzRTmSMimidGK2O06pNQ5OtjteeCjrGRT1b/g0PlH+IAA0/fA1/7rsbWTPvwqSKRuWxKe6EteDbsHx7Y+psdRa9gcFZQ/ZGbYx498c2WGxZS6KtOQBr/kEl61hYj0lVLcicuxK5V92Kmi3fl3gt9+i3B+2j50C/ItBhlYug14Ih2jEdEQQjffw/wnqfsomWmw5PS0wW2fC9F3HptUswo6QOk8vZkL0TaQt2w/LVxxLtaQlWI45o4yefwYTCqIjWfiQRrtWqCVdvNDpW5RBtSJ3+hwb7Y/Rsa3/wCj5WcidyZ9+DaTWtYk1YBbRw9yBl0beV6lCZPmgmfi4DgzODW/LoCA6QZAUUYmmFVd2D9MUHYZXUwyraIZ6W7KJNmDZ3Ke6572VHVu+k7aYJ9R1VuQgk2zir1hDtGAzxNEQjCEcjCFJU1t6nhoaj4kpjH+NDrwMfKluGSWW7kFLchBR/N7LmU/quDhnzR5gsXpyKXIlKG/F/YzChMDqiVZuIm1fAcXrC9bqTxY0cjQrJ6ueLG9kmW1q2f1p8FybnL3fqbFNoZfg7kVTZozLrR/hMBgZnAnpKRLXMmzxKcnXQgdRFFGaphVWyA9kLqIZWC6toF/IW9iCtYDP+pHw99jyvDCImq8o6kEz7PpUAaGfY6/lviHYMhnYryKbDQLq4HAYQ4ckewHNB4DN37od11VJkz2fQfi+sggakz9+DlNIGpPsa7DaLcZPodARriNbAg9EQLb9LTPKwO+GM4E5OJGX181sisaf+lnq2/D31bJkgxWzkP69YBeuztyOrbBcmMRu0oFa6npnuUAajgep13IJUKpWx1zH7ZnOPJYRo22D5dyGjuh5JxVuQt6AZqRVNsAp2Im3xfbJuUq9aiv/6ait+GVXzVYVDhoD+w06TFn0g9R4wnfwGQ7Tv/fASLaJ0FrOo/5iceF7tB+7o/iVSP7sUkxYeEIFi6/MPwvLTfdaIyZVtSJm7zcm8jIWbVSyQ4H4cwRqiNRgl0XLe0hal94Vbhsxj72ldJ4U4hGtDEzEzFOwwyRuH2VSU9ePD8nu+1pGQKv1Z/fDv8ZHy9ZhatknqbKcu7Eay3ZzFZB0bnCtUTXYzMny2qICIVbCkbL9NtC2w5q7GtAW7ML1mJ9JKN8Hy1cGq3g1r/n2wfF3IKa3D1Fl34ea2n+L5AbVGZN5LNzSWs3F1qIS/BKI15T1nPsT9FXNK97rOYltyeZ/rPKx/EH1PZhkPycbV/ZNjuPSq2zCdG0lgL6z5hyQDM+l66oa2ILWoDpPK29VpbESijSVc15ploN/+ahKhJjxGQ7T8Tgu/n55obbJ14JY2DESAE0H1t8xA5u/p3RkeVjrLrLOlW27jo2/jg8XLMK1kgzSrYNce5faLayUqMVu3zajRszU4FTgfSLK0ah2LtpJES4uWP7dg0sIWJBWuQ075VqSUbYHFGm92kyphu9BD0scgfc4aTL/mFnT9rE88kb19lDEdAAaO2O5jZblyvbhE64ZXxsMYU6LlBYtJ7NCndd2OS1pyqSfqi+yFnGh4M4aPy9/xdvAE/0sAH/WvwrTizXLiUolOOg1dbQyMKxAjus80gcYkQXmI1RCsgY3REC2/eufzKQ+bZ4TYNaK/579i9GwN3ivEHNScLGSdSKqMFZb8aKh9lL+jxUv1qP3Iue5eJM1eg7+5bhueOqESozh3I0OM09qkKwdLsXedeR27Zi7sMaZEywulY1Qu0drdQdjVSch2ZKKVgDj/MnxEtaYD8Lte4GUA1yzZj0t8m5FauF25hkVT1itz50Xi5DEwOFOMjmjVxnHuQ1u/KmGE6yL24Gr0bA0uYJBsFz0Iq6QbaeWtmF66EXOW7JYs5NeYD8WJy7kd7nfINhoJSQ4OZ/yAbYeNhzGmRHtKi1asWq3o4BKthrNR0aVg935lrIqn9h2Pv40pM7+FvOKNyKtWJ3ZvQwqSrsDOmku4+QYGZ4ELg2iNnq3BOASJtvqgdI1Kr2hDdsE6vG/Ordj0vVdlL+fhUEZYW7VDcnBkpr22ag3RnsHwurf0CdxxhcUyq2foTcrN1xzWWcaDwJ+X3SmbSHrhFjklKTJ1rVkvyRqiNRgtxp5o1atqa1bX2cqy4e+Mnq3BhQo71p97wwMqhFG6Ax8IbMJHi+/AUyeVC5lzWXk5KTpAwh1EODTscEcCPVygY0yJlsN7wWIu2ohEqy1eJonQJRbCoE2yjM1Wrd6H7M9+DZdU7EROZat0Ionp+pRAtCbWajA6XPBEa/RsDS5gZCxgT4MmkXdkyWVG4SYJbfjW3i8uZM7V4UgU0QF1YFRkK/SLsEpNGBdjzIlWbToup3rjsDEnFnmCzrjURAu8bWdVbnj4FUy76qv4UNV2pJdsk/iSkwTlyY70kqzZJAxGiwuFaPmq2s/jhGIkBGP0bA0uTEjWcjXbg9Yie+E+lZCXvx2XLWhB5me+jg2P/EHa59KFLK0ZB2z1qnFUP6vHGBOt3nDURdNuZB1n4veOS5mNjGOIlp2MlSX7aC/wf27cgSlz78ElNU1IKmuAVdIMK0CiZRwplmhHLGswMDgHjD3R6jrbkZOhjJ6twYUK7r9JJbuQU9WhElbpbZx/AFZpE1Jmr8ZfLdqCR15XrXS5aoL9x/g/NaftOT9extgTrU5+8mwUOvoas2Ho5zkbS0jqD5ncUbL5B5g8525Mq9gh3Z4oD5a66F5YRSxZcIlW6gJtkjVEa/Bu4MIg2kT9Tn4Vb5DRszW4QMG5k1pap/Zs6oCX74FVc58k4l1ywwGkX3MXrtvxA/yqT1m1YcqySbxWNWUZT1btBUC07omc/yfB8qJqog2GVHKUlCl43GRMgDoMoO7nYXyoaitS567Cpdd1Kfm7MjayPgRr/r12ZqSSA3OI1mlIYYjWYHQYe6LVjS3Ua+nDqn51N/TiaXjh8SBxnWk92+YfvY6PFNwqQgSTK5tg+VnzaPRsDd4bcB/WSXYqk90+2FUelJ/pNWEOAeu/mRglZaAydSMYomatIdozHbF1gPFEqzeKUNAl2RP9Q/K7t4aA50PAv32jA1lF65Hlr0UGe2uSZEWWiW0XdYxWu411hxt7gzCNJwxGiQuHaEenZ8umFlrP9sNzbzF6tgbvObgHpwdUJrvKp2HrRhLtIdm3+bvJ+Svxb1/Yil8FgTdCkDJOdXi015Bzkrywx9gTLZtTxBGt120sJCsNpKkwG5XfvR1Wm8Kde36G7Fl3IjtQi8kLu2AV1yuipdtYOkHZ1myFbc3GtFQ0JGsweow90XpaNNonfK8L+XTQCVPD/arOVje1oGX7F/57kH7V7UbP1uA9g96TVa8DnU9zUBFuRY88nlO6DZNn34Vbun+mGlkM2kZYyF4/hmjPZGiiVRuOl2j5Pbs/DTPTjGUJoUEMhKLi5nopBDxxAviT0nswo3wbcqpbkFnTCcvHeBEL7vdJIlTa9ffbtVq6ZyvLEXSfYls/cYQJYGBwphhbouVQoZVYuFarJly9rvQh1iHaMONdQQwO9GE4otzIWs+W9YxGz9bgvYXu0Kc1we0qETYXYvmPvxHTA9tx2bwleOhtlU/AOcq5quf6eBgXANEmJkM5m4BYsqyd6kc0MiwlCbzQbLNYsOIB5My8C9OrG2EVbYdV1oDkanYaoSXLm7UbSQtYE6hdxqrXpkO0FCjWPTkTbr6BwZlhLIlWk6l2A6txesL1upPld+FwjJ4tf0cBbpIt3chGz9bgPYPsv7Ri9zrE6iaqqgqRjJoeZLFH8lV3Y+byByT59cV+e/UEeWwcH+OCJFplzcr2BASVVNLQYK9kGZNoa38yhMmz7sEUah2W7YRVuE2Rac1uWP52WFU2yVJVQtwTzUgtbxQoyTtDtAbvDsaSaHUykzefQV47Jjs/lnBjSVn9/PYx2gjqb7l58ffH7Dpbo2dr8J5BhAUO2slPbrtPtxlKh/Tfpuckt6oNU0vWYuNjR/GmnvdyQBwfY+yJlpsBexp7Tt5eazbS+zoQ7cXgwEnp1fpsP/CvX6xDzpx1yJOstXpkVDUho5obXCssH0nUtmx9TSqF3CbZWKLtsqWcRpgABgZniLEmWqNnazBuIULxtgpUebeQKzON83w7VDMUxm593dIKNK1mLzKLt+CfPr8TvwnrPsjGdXyGw7ZoI7E1gC7Rsu3WCfQe+4M8zgSom7uexfT8ZUjN34rsSroaGpBZ0wbL3yTEmjrfzjIubYqJzZJkY2O0JFlDtAajw1gT7Wj1bPl3Ws+WGrbq4Bs0erYG7z1o0VaxQoQJUF1IDTRLDTdBy1Y8JswFCJBo98G6Zi0uK1gqSbC6Y5TyzihRDQ33B64vJa8XprfG6/lxnnx+xtgSLbs9sVl0NCQXgBsGwQUuG0GkVzrZ8HrQjcUOUB+p3orM4m3IqGxHzqK9bj3sKbKI9e8TnmeSoQzeBYwl0fKVtDs41iXsjdOeKRLdy0K+UbUmvXq2aXPXIr2a8dkuqaflWmS/2mTxIrWLClBSoF0eN3q2BqcE91/tWZRQXpzuNw9sZa1In79HxOXTC7dievEGfMS3Ft8+CslClryD4WOykgYjwIA+cbL/AlV/oiIlD/YRpOeHEH7hlI9dNO/puGCIlh8+5kLwNE6ijQ7h+DDwKgDfth8ip3QLkuS002ZvaiPcQAOD84SxJNrRj9g6diHWGK8SpIMUB4vsaNnWPnUC0wuWI6lop/SnpWVrzd6CyTfcK7W1qYvuhzWvGekLDoi1a/RsDU4JTaqVLYpoBYzbMvvYFpD3tyF7QTeSimqR56/DJRW1mJS/BoH6F/BrW3QgHO2VOXuk325owck7MAwMnwSiDImcwCBCkq1MSAqVkPFEIVoudJb3RJRZrxtVyCIXouWJRF3M+/8ATJl7twgGpFa2CaxSdhQZ4QYaGJwnXBxEe3o92/Cg8irxEPw7Jkj9uA8fCmyANXMF8vy1yK5ogVXSKJnIqt72AdVOr6zd6NkanBqnI1qbbJMqupFa3g6rqA7T53dgaqAeOfPWYVrRBnS9ovogD0aUoXaSkQ+9vIaGgKHjKvyIAQwjIvxCyKqbUBatLGTGjJTMFy+AIlmbaKNBnBiKij++YOUhpM9ehozyJrlJaVXtUtJzKpexgcH5wPgnWvWutDWr62xl/+HvbD3b4b7jGAqrjY2WLVV/2B4vb95qTK1sRGoZy+yYF7Ef1vz7ldReQJVtaCECo2drEIMYorUrQcSN7LVqd8MqbkR6RQemLdoj7uNLqpphXbkU81Y/LA1W6HNhnoEYqFFSxxAQDioBAlH6Ud3PNL+ouc2577SZes/HGBOt/sCek4X8TCs3KA/Rmu3+RZ90B8mtaFAbmV9tblI7a7IeDcYQFz3RDh8H+t+K0bM9FlGJiYzZfsS/EplzV0reRN7CHqQsOAjLtwdW5b2qR7LRszU4FU5HtNLZzybbkhZkVO1GVkU70orrcUlNB7KLd+CSglVo+fFx6YN8eFiRaHC4DxHOWfGI0ltjT3XNMfKzd/2p/IT3eow90XLoC8AyH8Zs7bgtFz3LCz75tUakz1uDVN4IXyesqr3yfUwmo4HBGOBiIVq+K36niVZ5lpSebfDwKwl6trQgmCBFzdA/n78ZqVfdgYyirchk0xi2Z2RvZC1EYPRsDUaCk/wU10RIE62Q7W4VkmC4obgJeTU9SCtrRE6gFVmzVuHqm7vwezv2KjM5pGKyoRDDHWpey/84oQnp28CcBFq5E4honQuhSTbMTlCqaJ5uqoanjmHKnCXI4qlHLv4+JC84KJsbRQQM0RqMJcY/0botULVV602GwrDK/Hf0bCm3ZydPsakF3cgk209UrREhAuvatZIYZZVTyHtfgsSe0bM1cHAqohWXsU20VUycU93IpHHFwv2SD5ARaEdeWS0unb0Sm797WDqZ9QmZkDWOYCh03FlhErcVbo2wnRQQHZCu+SHQazoBiFYfNBTZhlQ6thBt0LFm//nzOzAlsA1WUSOs+fcpVO4RAQHWXRmiNRhLXBxEexo9W7rfhk4qgh04ohIUI4MIDfbJc+i24zrd/N2X8dGSJXifbwMySnbAKmxUUpVGz9bgdPASrZRcxhEt+9bTi1m5W7Lakyp2I62yR7mSfS3Im7MZn/zKbknSo1UbFR2qw6A/1Ens43LjFGeD5JBKsg3L7ycQ0bJOLyRsq4g22ntEfnEkCmx95He4rGS1yCWp2jsuXBY39zjF8IZoDcYS459oR6dnK9medp0teyP/SeFtmDR3GaYwYaWMsbcDsBY+BMvPdXsIVmk3shbfK/W3prOUgWPVyvcjEK0XWnjAVo1K9TNW24K8K5di2yO/F6uW5BlGL06ETjphEJmuIxIts+0nCNHy88tipoqIHZsdjKoygv/6Sj0mlW1TN6GSosCH1Ff68G2xgIQbZ2BwHnHxEO256dlSlIDPORF1Jfb+eN63xI0s4vGBTlizGmBd910h3LTPfQ/W3EakVDPPwpT2THh4iVZ+1h373plsk6nQVtaF1GvW4qpvtuNnferQN4hh9GEYvRHVMd9ZbuI6VvM9jODEItoQ07H5A/UF7VaMtGbrnjyKtM98Q+I5coGFYJVOoXMz4m+agcF5xvgnWk+LRnvT0WSrXW+ngk6Y8urZsuF7y5NviJ5t2pW3CdlKKU9Rh9Kz9e+DVXMfpIdtwG3XaGAgcIjWJtsYKzYRqeX7kVPahLyrvom133lBsuFp2cb0ZOC05jfSLUp5ZVRLRjtZ6jyMC4doo8DwUATHg8ALIcZmdyGrcKPd79KWUpILH3dDzEI1GEOMb6Ll4HuJh2u1asIVtZTT6NkO9Pcm6Nn+adHtsXq285qNnq3B6RFDtKeBQ7Z7kbtgD1Kvvhv/9uV6vECBDLu21lld0oHQhgRs3fl9vsaYEy0/7BCvCHuqhlVyxbZHX0fSp7+FaYs1wdKS7VJKPAHqyjJ4rl0LZqEajB3GM9Hq9eckJMo4PeF63cnyuzPQs50yb4XKMq7pQnIlpSyVnq30Rh7hmhpMJGhj6WyNJptwAx1IruxCpq8OubOX4e77XpHkPHYxi8iktgU2bDdxzHw/X+bsWBMtBz/ryf6guM+5XF+KAP/2xR3IYeaij9Yskyj222UBLHSvFbJV7mTTws1gbDGeiVYOuTbss656b5L0lOhOTiRl9fPp9Gy3ff9V/EXlaiRdcYerZztvl+jZipU7wjU1mEg4NdGOJAiTIAxDDXJfK9KqOpFXsgt/s2AXnreJNkRXcZRdullTy+QnpVYlCVJ6GZ6nMeZEyzE0HJHsYy7X7d99AVOuuVnabVlFLF5WZQFKq3CHQLKQddzW6042MDjPGO9EO1o925MhFQ976yh7uDEGpjry8LXYQUrr2f5p5UZM822GNXs9Js/vVDJ7pjOUgeMGVkTLUKGCkmAUODKL7leHcBfRs9kuZUC5ld2YdM0abH34uMxptdQ4L48gjAEMIuJISjrT+TxZtaMmWr5PDTW8rifXBRX/3PhTMRfrK2HgUzdtx7TitSKPZC38tioJqOixi9x3INu/S8ltsVuIIVqDMcZ4J9rR6tmyQkDr2QaDtkBBcNDRs33Tbmqx+YdH8KGS5ZhavB7ZpTtgFdVKs3ijZzvB4cRcE4lWk60QbNxXRbQsH2uBVd0Jq+ZeWHOacUmgA//5pW68Qj0aIRpS7jEp59FzXXRsx5NFy/cakxghD3oXqa7PU9uLdj15XVCMT/Pv6Wba9cTbIuybXrgFGQuYZbxPFhMvvOqTqvuj8gbZsVs5DY1wAw0MzgPGM9HGr8nTH5bfCYnuZSFfcdyp9d3w5Nv4YNHdomebUdMj14gtG9NpmRQ1IKmK8dsOkdjjGk8rbzV6thMcaq8nucZ+Vb9rQbJIL7bBquZcOIS08h5kzFyFhieOS48omYihXvT1kmzVgbI/as/T8UK0+o0nnIalewyPFLH1eSMRLb8eDam6WdZCTS/dpBZUKfVmlUtBNyRXyh+8yDwFGZktg7HHeCba0Q9vZym1luMP3pFhxsiUni2zQXc+eUz0bFNKapG1YC+SS+pFzzbvuoOSIJW2+AFYBS2KbP2tRs/W4JQgL2T7m5AtPfDp3TiElPn3ShvQ2XcdEE9KH5eYWLZANKyqXPgQ56dKljo/Y1RE67Vo1Xseye3kbi9eeP+eJ4+9v+jFZdd8A1N925FFV0AZ227tU4XJtkWrJbYU0RrXkcHYwxCt7S62P03ifjCEYP8J+ZlOvFdsPdsPV2yCdc1yTArUKT3bYkpeUhKtE9aiB5WebWmb0bM1OCVItDmV7cjkz6XM57kXVsUepBXtwOQrvoF9vxiQvJ/+Ic5DEm0EQ4NhNVfDXg/Oez9GTbTaOlVDJ0oktmvTz3c/nEq1PhJSkltFt7fhAwX3ILNwK9LZ+Yk9LmsOOkTLTOMYLUvGZkXlwSw0g7GDIVr1qbQ1q7M6ZZ3zdyH2Lu8TsmWdLcv3aGlseeytU+vZinC80bM1OD3oMqZ0Hg9pyRV7kcSDV0Ejpi/ohvXfX0fJ0v3SQOUtOldlPkYQHhoUwpUf42bzezlGRbQxQ951bMzm1EMtUHEbA/jOy8CHrr0ZHwpsQlL+FqQw7urfrZqS266hlPJmpJY3ylcVCNfFy4k3wMDgfMEQ7TsQbfAE0Pemo2fLZzMbmTFbr55tVsl2o2drcFYQA6y8XQ5oFBlI8rXBKmzA5PndyC7YgA8ULcehV9RcY9KedIWiSMYgFahYA37+qHaURGt32ohJ/3ctVx2Hjf049vPYus1u2Va15gF8MH8pcueuFa3BtJp9sArbVSaZEK3drMIhWjassOuoRrgBBgbnC4Zo3U/F7zTRipeLv4v0Yfjtlx092+hwvzyXZUHcANd/7/eiZ5t29Z0iHi96tiUdSs+2Qic8GT1bg5GRHGAODz2eTKirQ0Zlp2S0Z/kakVuwHqXrH8GrdrbxwMkTSiEuSC9LGCG2/T1P410gWm+vVEWqegshNNk6z/eAH/4HbwF/5l+LD/m3IXPeVqRXdCgXQIBZx7ZFW8G0b6b4syuUJlpbVmmEi29gcL5giNZd+yMlQ8mm5tWzFctWJU8xCZJu5I3ffx1/VbMO04tWw5q5BpOuP6T0bAMHEiT2jJ6tgQt2hqIR1o3UsiYkF9epxKh5u4SAM/zNeH/5Ftz3hsoDGhigDKsrxXo+fcfvAtGOLLPlXXCxROtaufzwt+99AdPnrUXarLWYVtMJq6QVVn4z0q57WDUid4iWNXVeorXJNuHiGxicPxiidWtq9SGb655fZd1HgogO2oLxg0cdPdvwUL8857CtZ0tJzI+V3o1LS9chrWib0rOl9rTRszU4JRTRMmkuq7xVrNikYpWZnjSfkoxtSCvYjJvvfVXmmKy2gWNA6KQzZ8/XeFeJ1us+8rqQpJAdEUQiEYTCSrqIriOeZi8vXo7Jvlrk+BuQ7m9Bkp8Xb49KhCActR5dqOzCEK3BWMMQ7cgHbf3pnEP2CAmS+rm6zpYSexQimJy/HFOrW6S1npBtzQOwSpkc+YCIErD0h5Yt62xNjHYiw+0qxW6B9HSorHQmyqrWvYzjf2zhDvyWvfQ554b6geHjQIhtK8Yj0cYlRMT0T42GEY2ohcj/8yOyMdau772ES4pWI6O0Hmm+ZiT7uUkxk5jJEPuchhU6s1h3C3HJ1iwyg7GFIVpPKZ/HqiU04XJf8OZrEPpnHr75PcmW1QetP34THym4VdzIQrZU+MlvQdLnvi9Em3zdd5w62yS51on3xGCiQBOtXZUSaLQTZdk1kNrlB2H5WzC9bD02ff81SbwdkoxjemGU6tT5Itt3kWhHtmYjYRXDoYwWFxZJlsoeTIK66hv1mFSyCck+dvhotRcOrdfdNtnu8cgheVt06dZchmgNxhaGaL05Gm5oSBPt6aATpkKDfc7eoMn2E4GlyLj6DuQG6pFW1Q2rtBtW1b2wSnbH1Nnqdo0GExXq/us2ncr7yYYmB6VFLzkio2AtPv2NRrxsH+iU8UeSdefsez3eBaJVCy3ebczv5QPZepU02bmw3rbrZg8+H8KHi+9Cjr9ONim9UQnZEv4OhTihXwa5SbbMNFOkG3/hDQzOHyY20XK4yY0uXKtVE67eF/Qh3Eu03B8otReMqqYWPIjXP/YqPlZyp7iRKR5v+dtgFberOC3dyQHVwtHU0U9suF5OXfJpq7pJH/wepFe1I6d0Cy6deyu6fjkoc+uE06xiXBGterPxbmNZRDGupZB8rNfDkHTrRdsewaT8e5BW0aQaTzAtu6INSYFmAU1+WVyOe4BlPlxcPUgOdCPF75Ju/MU3MDhfmMhEq8lUu4HVOD3het3J2nU8PMQGjer54kaOKLJlzPbPyu4R8XhdZ5s+f5/dnrULaQvYOS7xnhhMDKgEWZ2vo0mW1SqKZPmczIpmTKusRdbVt2Lhrh8I9/x+SPPTuCFaDvVG+ZZJsHT/cDEp85x1dAPAMLO8VN0skx6e6AM+Ub0BWfNWw/KzGwyzi7lBqazi1IoWpEndbLuQqSJadolRCVLJgR6k+AlFtvE3wMDgfGEiEy03qwQPlj58j+BOTiRl9fPh43Toqb8Nh4bl9yeiaq/Y/N2XpfQn9eolSC/ejpyqDlhF9chZtN8+iCfeE4OJARItY7OKaHuUu7jqEKwqEi3LfpqRUbYTkwPbkD13Gf7mhq14YkAl4cph7zwmRL0LROvGZLxEq34RVKnUUjsXkt8zNrvk0PPIm3kn0oq3wmKWmBBtq020jWLlZpQ32VmFvKg20bK2NrAfyf69hmgNLghMdKIdrZ5tX0TtGUo8PkIVAvk9X+t4VJX+rP/+m/j4/K2YXLJB6mynL+5Bmq8JVmmDydOYwOC9ZwKUxGbpLmYnQSkHs2Oz7CBWshW5pZtkLU7Nvwe3HvitEK1kFY2fZKiRXUOy4GQ/CQJDrJ1TyQ7HAAlIf+aWLmTOWoZU/05YlRTtZaID4y8tSA40ISXQgGTWRPmbbKJlyQ9dAcaiNbiwMNGJdrR6tvw7lvqJtRtm8Iw/DEtJIPcS1tlyYyTZXu5bhRllm5BRtBXWvB3SRSohKdLRNjV6thc71P1ttnVpySGu21g3Nsn01YknJK+iHmmzluLfv9IgSnGHnX4VbpiDg4954Y7Y553tGBXRaktWxV0Yp7VPCHofYW9Jtl5DnyxGJkF1/hKYNmslppTvREpgl914wm6nKLWysXAvrF5AdvYx47OGZA3GGBOZaL3u4FiXsMd6PWMkupf1AZ4Ws9az/aOSpcgs2CASe0yWNHq2ExjkjKo2WFW2AHyFOlCxljbV34FUP93He8Qw489TAvV4f+EStP+iX7iIHhOZe7bHxTvnhL6cOa29MNozMxIRn36MmmhdK5aZx1wSQfUOybmsWYqcQBgDUsP0GoAb659H2pWrkeXfhaRArfKvx19AA4NxgolMtKMf3s5SatuI8YrJgyoQpfVs635yEpcWr0JaWb3Rs53oYLvFaoIZxxSdodiE6nOc7mMf5B5Y/oNI4r0u60JuoBGT5yzB4trvSVIUE+6ELG3vSqzhqHDBEK1+Y2FxAlEVgUQbsY8EfFP9GEZQTqQ/OQn8bU090q9eh4xALZLKqUFpYiwG4xeGaEczNNGeXs82PKhq8HmM5wa58ycDuLxyM6yZK4ye7USGEG0XLCbI2URLXlEdotqkOkX6ZVffL0IVJOBJc5fhr6qW4WchRbQqzOmuTG3Ras+KO08vAKJVzK+JlrnTEfUu+f4QlAVCU339d15B3mfvxJSSegliJ4m5b4jWYPzCEO1oxsjlgQ7R8nfSG7kPoYGTUmfL/uiM2W57/DAuL1tu9GwnMnhIktgsD05K3Y2hgvSA50BVfQCWrweWr0MS6Kb5NmHqzG9g66NvSGKurMARCDSWSPU8TXzemY5RE63L/B6iZbtF28HNt8aTA93G197ahuwr78GMyg4klTUgtWaEi2dgMI5giHY04wyIllUL/W85erZ8HmNrOmZr9GwnMLxJbdIdim0Y68WyVUlSbUhZdABWUTOS5++T5NqpgZ2YMW85Zt6+V7wjkn0s69HNFYgd3t+J5SjjvBIth/sPaqLlCTTovCfdVu2x48BHSu7C5PyNyPW3wiquR0rN7sSLZ2AwjmCIdjQjNhGF32midVx6kT4ED7/i6NkiOCDPZVmQ0bOd4NDtFgmPZjmJNrmiURKkkhfvh1XWivTr74VV1oTM0lpcUrYNH5i3Et99S4UjYuajnpMxruJEEj7vROv+awwoD7hEa28sFA+gq+dr7U9h+tw7kFuyA8klTbB89oZkYiQG4xiGaEcz3Bgtx4jJULaerRKPj9WzZVMLo2c7kcH+Cryv6t6qcp9GpFTUw6pshFXVDKu6ExYNuvl7RQ0qw9eCnKIdyLl2Db7W/mtJ0uXsc2hMCFaXpCU2XTlbgtVj9ETLIf+yXTvHmIq9ELSAAGtn/2HRRkwpXImMkh2wSluQWrMPVondnzLhAhoYjA8Yoh3N8GYdJ2Z9yrYitfgnlZ5tkLq2Srw7Mqyuq9GznciIJ9oOJFc029asTbTlTUi5jm07+X0ncmr2Ijl/FyYX1+H/3NgicVrylDPfhGjjm63EkuyYEC3/0TAVekJDQHAQCPbLG+Tb051d2n8RwfTZd2KqbyuSS2vVZlTFIDUl8QzRGoxfGKIdzVBZxboXOoe2avXVibU0jJ6tgRfkDrs1ry2Xp5pXeIiW84BZyZV0M3chJdAlpT/ZZW14X9Em9Dx7XLyuJFsm26lwxSAQSZyXGi7RjhTTHXmMmmjDeuJHWNIzrIgWNtEC0oXjutqfIG/OSqQWbkWSvxFWgGnZB5R7R18gA4NxCEO0oxleojV6tgZnCxKtLTbjEG0brMpmRbICEi0fUzFdLUiT7uvG9JId+FLtI+J1ZQNQVbEdAYZ7bc+sIlo932IPf4lx29ONURPtcGhI/cNOzJgLJihJDfwAP4sAn5i/A7mFW2AV7ERSZSusQKtqAF1BsjVEazB+YYh2NMPjOo6LhWmiPR10wpTRs53IsCVUJTGKoPVKYiVo3drf83FbCU6T7aTSWvzvhevxqyEVgtDSFtFhemW1zro6yHkPfg7ReubsO41RES3/waGIUtuQf1OOmYpoadf+npP+F8Dka1cihyo9PprynNz84OxLedAQrcG4hiHa0Q7nhO6Ba7XqDY5bnkY80XLPMXq2ExRO+15NtDbEgrVh65Y7ffNtcs721eN9c25H69PHJVZ7OGzPKYZBJd9I2bg6RJFQenY+iXYYSmeW4Vn5N6m8ER2WCc/a2coNj2JqwVZk+NqQXM2aJ+rPtqtat3Jj0RqMbxiiPfehyTQx7nVqwtVWhdd1bPRsJyjoJnagyZbWrQ2xXpVmeUpAwSHbii7JPp+Wfw/mb3pQuIpWrazIKMUtWKKqiJaPkWQTJGDtcMeZjFETbRBhtYHo2R8Kgrob9Hk/NwR8vGwNLvE1I6m0HUk1bATeoKxaH2toDdEajG8Yoj33we1CW6m8EjEuuRHcyYmkrH42erYTFEKwzSomKy5i3cBCa5crhTeKC7AlI8EkOPW3HVJzO7VoFf5u/ho8eVLNF6eBhT3/lDGpSHZMiVafMvUhNBocFuqlZk/TE7/FtKtux+TSFiT72JPSJtoaWrS7lb6sIVqDcQxDtOc+SJJGz9bgnCGJT3aGscRjNdHaJT8BpVue7utCup+dwZS6j/o7VXM7tWwjLp31TWx+5DWJ7/fZp7goXbRxRMu56hKtPUfPF9E624WzDlTX498MAAs2HcC0/DVIK2xEVvV+UdewAo3KovWz/6QnLdvAYBzCEO25D5Kh0bM1OGc4Fq0mWj5m65bb2uXaoiXRsn5aLFrb3cya2ykVdci79g5UbXhQKmTeHFZzKTjAxihqfXo9L2MSo+Vw3DiREKL9qj3am2HgpxGIwkaWr9n+sB1yolDKCi2ukLuZqAbjGIZoz3143cGxLmGP9XrGSHQv8yuvsK6z1Xq22UWbkFGjkqGMnu04x4hxWn1YsnXLnWQoHqrcv+XPFLe5tHIXPly6DD8NqoMZyZQNUbweFe98ip2rZzZGTbThcBSIsoZ2UE6Sw7a7Zt2PQkjP32SLs/fIiYIyRdk+KixwwtKSNURrML5hiHYsh7ezlNoAdShLWce2C5Ax26Aq/Wl4ug/T5i1DVnmzkK3Rs5244L1M8rVI7H7SrDux5fGjMkcktY5NmLz1tPZhbuSD4TuPURNtlJJ4JFpm/kVVzIREO2/1w0iatU4yvUiqDEQnEK1xvRiMcxiiHcsRm7TCq6mJVm2CqiFG//HD8jNjwWwH2/jzMN5fthbJs1YZPdsJjpSKTmSU1SL72iXwrTok3MVov8yfYKxVy8HHNc5mjJpo1b9K/VmVCk03zW/CwF/UbEZ28fYYoiXBkmzpQlYWLU+DZqIajF8Yoh3L4TYN0NZsQhwtSKukD71H35LnsN0e6/vrf9qLDxbdbfRsJziSKroxeX6nzIO/W7Aez/RCEnmVj8QrMKDm2bmO0RMtIogMk/WBwbBqu9j1sz5MufZO5JTtcojW1YNs9hAtYYjWYPzCEO1YjjMg2kgfwkdfdfRshyPKsv19FGj+yVGjZzuh0QXL34lJi/YgM38NPjjvDjQ9+ZbUYPeG7bXqJN9poo3HmY3RE200gkgoLBObvm36uL9Q+33kzLwDWQ7Rsplzh5wESbK0blXs1hCtwfiGIdqxHC7RatexJlqJ0dpEi943XD1bu5Mdn2f0bCc4xO2/G5nz9yC9YCOmz7kLX9j5XekSxcOYWp1cq3FZ72NFtByc3LRmfx0G/vfiDZhSuBrZgQa7QFgRLb/XRcOKaA3JGoxvGKIdy+HGaDlGSoZCqF8INnr890rPNnTSSZ5imMvo2U5gkGilt0MH8sobpF3nv35+izRaok4tD2OOZ8RxIXtI9/wRLbONlajAsbBKgnroTSD7M1/GNN9m5FCEV+rU3F6Tug2WiXEYXAwwRDuWw5t17Fq1JFp+lU2SuSMUj/fq2fLn0JA8x+jZTmCIRbsH1rwGzLhuD7LyV2H6Nd/AwZeVZ5YNT9SBzVvb7Y3ZknDj5+TIY/REGxxAKBwVa/b5KPDlzp8hc+btmFFdj9TSOidxQPeYjK1rGuHDGxiMI4x3omVjB4IjFApheFglNerfXdhDZRVrOTMObdXqq+vsgwmuP/e5zDL16tlOLVjpChEYPduLFyI+sBdW9T5YxXWYHNiFyTNvw411j0vvY3KasxocovVmIZ9PorVF3mlq/xLAJ2/fi5RrlyLbv0uKgZ1uHHYjZ11MzMe0tZtwAQwMxgnGO9FyaEKNRqPSpF9/f+EPL9Gem54tDxf8/mhIWbftP3kbfzTnZlxWtl6RrdGzvXhBLvJT3GaPlPnk+OukzOez3+yQMjAevliF7bqP44n2fLqOo0OSCv0GgIdPANOKViC9cJNYs+kVrUgNNHuIVisr2ETrbWtmYDAOMd6JVluxmmA5SLIDAwOqpeEFPTyuY8/G53Uhnw46Yarv+BH5G26qr0eB7meP4aPFdyBr5l1Gz/Zihibasi5RdcoMNCG3cC0uL1uOR08oTmNSlJNYF3eoO5vxrhEta9PuefgNWFcvQVYlM4ubxbUiRCuNnGmm6yYV3Yn9Qw0MxiEuBqLlILkODg6OE0vWO3T2pxeu1aoJV/eq1VnJDtGK9mgQx48dkZ/Zd5mWbdtTb+EjBbcaPduLGZIMtR9WaSdSa/YhI9CC6RW10iVqxUO/F6uWdddqhSSGKc5mpYyeaIN98kZeBXDFkv1IK96MlIpWpFV1IjnA4m4v0fbY3VQU0fJ3hmgNxjPGO9F6B61agpas18K9UIcmU+0GVuP0hOt1J+u/OXmCLQrU81lnqy1bkq3Rs72IQU6q2Q/LRwNwt7TcnFbVJDH6mXd0i8iAG6dNTLyLnXenH6Mk2hCig8fkjfxsCPhIxVpklTfCKlWZeIZoDS52XAxEG0+sQ0O0+y78wY1OW6m8kmrTs2trR3AnJ5Ky+rl3UCd98W9VTwBatkbP9iKHcBJjtJRs7ZKYO9sxXuLbjD8tW4pfRNwyHxmeOTXSXDrdGDXRItQrRNv6k7cxo3A5rNJ6WGxS4W8XEqW4bkp5s4rNkmQr9ztEy2QpQ7QG4xkXC9GSXL3JUBxvvcUihwt3aFfvaPRs+9nRjpZLH//PVrLKNcjXYjay0bO9iCHJueSlPUK0qZVdkls0I7AVl1x7C1qfPi5dohKJ1vWSnCPRchK6P/Fbr4ms4TzXBuuNvt78KGaUrII1ZwtSF90rRcDcfEiyQrTywdwYrZIsMj1DR40YmahTLXpPxrfElOz2lya+NGqMd6IdGlYN+fVaFtcxgGd/+zt8/pYlQjYkMtIQD9Su1ei60c50ePeQ2L3k3Abf52j1bAejECEUsVBsPVsq/vB7fl6jZ3sRQyzafaq8x9+GnPndEqedXF4r4YLPNfxIukQp/Scdo3WJ9iwtWm9Mg5NQfa8JVicSxCQQcNj/IBtV8M386+fWY1L+PWKlWsXNSFvMhIFOZdUG2N9YuZGVzJSZaO8KKF4sC9iLkRa+PuAQdN3Tq0AY9ZHRYjwTLd8J6SYorMd2hVzhSkz9V73A//HdjH9ZtBK/AKSu8C2bkBAZBELHgaEjNmEljnhC1ftJPM50oxppxL+m+1rePe1MEft6+nveIV1n2/jjw5KRmlO8WenZ+tqNnu14Bg2/BffDCuxGqq8eeZWNSOE9KtghFTN/+cUOidOS44Rkw+wqFpIEQs6PQfb4P8PhEi0JVp/44nqHerP1XKINynN44vveG8Df1KzCpHnLJUXaKmuFNf+gbTmxx3Gz00lFZKbkJLHfcSMnXACDM4NYsbyeiWTrWrdeC5aLmookNtkaPeBRY7wTLde1ItogEO6X9U8L8Zk+4C/Ll+HDvjX4q8Xb8WO789vb9LXKc08Aw0dPSbTeEU+0+pOPlmhHP7yWuXo/8QaF1rM9GYrVs+U+l1692+jZjmeQe6rvhVWxD5m+Xcjz70SS3+av8t2YVtWA7x9XBy1FtEyN0g1e6P058/Vru47jT3exFq03W08tDDVB+Xue9FY+8Ft8uPguTClah4xySk11K4mpCgaau8RtQpJ1iJabvydem3ABDM4c8a5jG9qy9XbhErAzlwcJr2dwVrh4iJYbiUu0T/cDnyhfIeIg1G79ly/sxE/6VRbmiQHbFWvHM+P3jkS4/56XbC8coj29nu3ACVVnSxf6S7ae7Qd865Aye7XRsx3PkPjsQVjV+5EZaEBG6XZFtCxD9XfBmr0Oax9+RUp8pJUnRSmEaLlqYuf2Ow1PjPbUC0MvCseatScoH+cpt2zVfkybc7tsLDKR6PMuY4H3PplIOvGJEy6WaM1EGzUq4iCPuUSrO3Dxumv1JA3VHvNUcV2DM8F4J1rXdRxLtCTVj1eslsOz9C2/4uv49Jd34IWQysTkc9x379k7YmKh3paHal/xku2FQbTq/WmjQnvu5H3JYaJf+iSfPPKmPEfr2dKy/aOSpUbPdjxDcob2xxAtK2WSq3skBGDNWgPf6gOSECXrNqLWh7Jkz5poT/8HsgZjFoSbtcdJ+TyAf/r8duTOWYKcsu1ICrQqoi1ljdIBIVInTmu3ZFQf0sRoRw0hV0+SU6VLtg7RShkVidXW0vQpPc1sHz0MSvQh4XUNzhgXA9GGZQsYsE/sEbHcnhoAPlq5HtlFKvmHSUBTZ96CT39xI34bUQlCbjE/h5dodQKSF3pziiXbC55oI32IHHvN0bMdDEXl+vDzMyvV6NmOY4hFe0DKTnlf6D6WUlRprNSN9NId+N/Xb8QrETUn1GpxSfZs5u47Eq37+8QTK0+1e18ELg+sltZVWf5atdHQkvX3wKoi0aoMYxKtrqlVcQqdoGOI9pwRT7SCWLLVrS65qL0L3RDtu4PxTrTynljS4yFaxqSeHAA+UrURGUXbxFq7dEEb8vJX4H1zbsVnvrYLT/QpsuEeEHMQd4hWZ/2OVGYTf3gfq+ESrb4WMbkoNtHG6NmGhxCJqucZPdtxDiFa3pvdSPM3ILO8DqkVjM92SGJbTmUzPlS8BPf9dlDmucwTSRhUoYazodoYotWT3/1zL7Emnkx5ov1Gzy+QV7ASeb4dspFL5h1jsyRZSbZRMVhtWblCAm7f44QLYHDmiHcdx5Ou/bxEF7J2YRmiHQ0uVqL90QDwx1VbpK5QGjMU1WLGgnZMLliFGXOX4Mq7D+HxAbegn6/jhJa8ZMvXJTTZXnBEq/e0kZOhTqdny+tk9GzHMWSPVA0rlMe1Xog2ubJLeIz5RpNm34U79jwj7mPOkigbmkSGz3r+OkTLP0qMneiJ6DmVek5/PNHlr/42kmavQm5Fk0yapBrGJXpgzb8XVhl7gdpEa1tWDtFqMoj/8AZnDjsWqzKP+dVLtPogY0Myj1WNn5EpfPdwMRPth6u2qdKVyj1IrtojHZGmVzcju2Ad0mYtw799vVWIRtfaurWsmmxHINo4q3Zshzfr2N3XvImfknU83KssW14ffpZQvzzO5xg923EM7pMBtT8qbmoQok1j6Rbdx0W7kD57GUrX3Iff2Y1NOCeCw/0yW84m9GF5XSf8Q738HaINDaqEgGH3JMffHx0CXo4Cl1esR25FA1KYreXnhm8nQUmi0x57k9ebu5ukk/ChDc4aKgZLd3wjkivYfUuTre2W5z3wd6sFT5WKir1SfpBccwhWERukG4/CaHExEK2sdU20VLMB8GO2VJ2/E8nsgCTrmBUCu6U2lCSR6avDtOK1+OSN6/BSCHLiZ8dgutgGbbYNDfa9o/t4bIfKKlZQ90JbtbH7oD44eJO73OfSs0ejo+XJN/CxkjsxrXCVLbHX4urZlti1s2W7pYG9VdYs19bshWMIxyBReURqL9XlkeqxzOIt+EhgFV5kHTlvv9z5EIaCw7Hz4x1GDNHyu4QynjAXYD8Q5CJUtbM8uXJRPfBSGJf5NyHNtlTVJkO/t67ZpBvZ3cy9RGsm2OihJkcjUst5MmZihU40sxuCVO5F6uIHYeU3I+26h2SRWzX3wprbiOwbHzYx8ncBFyvRPuUlWrpBWQZRuQ9JPP3TK+VvRU7pNnzctxT/ff0K/GJYuVFfHVLW7TDLbakE5HUjX9BEG2vVevdCr5dPQ/+s9WzZ1MCrZ0vLdlJFo6Nna93wCKzq+1XpT34TUqr3KiIeYU4ZnEfYHkDFSZ4OXva+yEYWM0rX4uDLqo5ardigZOqfpUWrJr+eYLGNKeyJyLiEpLkHZQHRVcQT7B09zyKveKNYsq4bkm+QG417WvBu5oZs3z3w+rGXdAzRilXrEq3l65L0danrq96H5Kp9Ukxv+Tqkg1f8axqcHcY70Tpr3SHaoFilPx0CPjpfJULJ3KFFywxNqpzI5+xEWlm9CGV/vHwl/v3GzfjhSUW2vxsGVMWh/odGzvEY++FxHccdADTRng5y3ZgUeuKo/A1di3+IKD1bWra8NnnlDdLYwtGzLWY3ogdg+Vlza5c6jjCvDMYAFW7LTN22VqzawnW4pefn4rUYkhR91UOC8/vMiTaSSLQ6uUEGiZbWbGQAkXBQmnCTZBmXuPaODqQVbHROZtxs+MakxEc2nMRYrHYhq5ODqScbDdR1bHaEG1yi1e5jNg7pROr8vZKgIclQZU2S4JJXwfZwJut4tBjPRMvNwlnrXOe6hIW9jgeBP6vZImSqPFOse2dd/G61CQU6pbh/SqAeUwpXI/eqb+LTN7eJJUwdTyZJ8UDuHtgTXa8XxlA5KrFwrVZNuHpf1IaIe0BRRH3s6GH5WevZ0rL906LbRXJtSlWzSijTerb0KlGazcefDdFeELDvQwzR2t30kgo246o7e4TzBkKcGYpoxWsTP51OMSxElNtEn265yGIaiPO0J/HZIWm0zYlEE/o3AP56/nokF26B5VObtWw6JE8W/fpbYy1WIVz1vSHadwlOYwrVhtElWfV7/i5nwR5YMzeKxNe0ynpcEtiBnNkrcFnZemlEIL2p41/X4Iwx3olWr3Uv0ZJMfjYA/HnNBmSW7pTPojad3UiRw3SHSIqRPFLL22Hlb8W08l3SmvD/u3E7no2o/uc6I1ltRolkNtZDk2msC/D0hEvwe+/f9J5kvyz1fNbZ8pq+AaDjp4fx5/5lmDR3GbJLd2DSoj1Kz7akVTxKPADHzyeD8wuXo5T3VVXHeERwWP5T1oC/XLQFz7OsS6aGis/y+7MgWmYEukRLIiViiJYp7my5GFGnVC6ifS8A7y9cgtTSXRBZPKeEp1kSoygjFVM+4rFsNdE6/vARLoDBGSKhvMclYBFxKNyGP7qhC6nXLsVff74ZD4WAr+59EVM//Xl8uGylqn2Of02DM8bFQLQkQ1nnNtFy7f98APhE9TqJw8qhmXqdFZ1CrDpGK91zWDNatReTF+9Fev46XFawFJ/5ah1+dER5vk7ZQeoCGNqi11a9cyBwXN2u9T0yKaufvXq20UhI6mz5uelqZDby3yzYgPSZ9yCjZEesnq1P1WwajA1cg48GilKViyVaPnZA1vL7S1figReHxIqVw2j4rC3aRKKNSdXnhKNaRzSI4YjKsHsVwN0Hf43Js+9CViU7aTBu0yaWLC0k3W6RZKvMcEO07wm0i5jJZ5W6rEcRrRJyqEVu2VZYn7oZ//HNvbj/GPAcIGosS3c/iUs/c6PUPye8rsEZY7wTrWQJ8weSiodofzEA/GX1WuSWbJGDs4QdytuREWiVGmxROfF3wvLTFfogrNJ2TFnQhekl6/D+Od9C/i078YsT6mDuHNovsKE//3ulZ8u9ku7GjY++jb9YuB1TSjfCunat0bO9QJBItD2xRMscl3KKDvRI58OV+56KJdqzmNcWMKDCunYWlY5HODEIz8QaCoekqfgLACq3PIaMmStEw4+9IRmXZcyGb5KFviRbvUDVBzNEOyLkmrg1rg70wcQ5oOjsbVUqpeqRbVcxSVZgk255h1x/kmjWzLvw/77Wgm+/qQ5I9EbQ0ng7CtzV/n1cVrJKCFlJGOpEKl1/a/9b8Zqacc9J+EwTCOOdaF2L1u7ra7uOadFqotUHZqkxtDciZdF2wlr4kJBt8oJ7hYgnl9eLq/QDs27GJ29cK8lRujeyuzF5YrZnYd3KHheH0Qz9+fneTk+0Ntk6sB8j0YaB3rBt6eos69CQZCPz87I6g9dg02OH8ZHAGlzq32L0bC8Q8HrqJkrO9fS6k7mXBvapPfeaJajecJ/cT867YFjrOJ/ZsJjMHybR6rVv+0b4RbtTwkGVfdw/dExOaT+PAP/rc53IKGhGiu021m8wEYkf0Pvc+McnFGSR8NRkS9ax0YcjaeephZWaZP2cbqT6O5DhU6ogSYFapMxvhVVcD4ubffU+ketK9zUhb+5qfOprbfj+H5TqCqW+tOsriohsgP9T/wimz7sbGQVrkTffdpcwWYO9qiv32J1s6pHtZ8s4u5ON1EofUpA66RE+2wTBeCZavhPnQM2kHq96zyDw8ZoN0r9cSLa8Xa3ZQLNKduTcrWSSlGfOUqnL7nzEQ96M0vX4xy/U4SdRRTacg/KJpTa/Fzj5pk22iSOeUGUfGgFns9nFj/jXdF/L6+I+U8S+nv6en44Z2FJn+9Nj+GPfCjm8pPJgXNQkZJtR2Q6ruNFpZi+lPyVNsIrrjJ7tewjOZ90hTxEtM+u533LvVZ5By9eMtCrmIazDX12/Q3KTRM1HDqb0Bo88f+OHNYg+hEi0nBVcdXJQ43YQcXhXzcABhKK9sli+/UYEf1TehLTiHqQYqbVRgJuTLcJuk6iSrrOtWLFQtZxgLNFm+ZpFIMAq2wFr7gZM+9p3YLGMgJt8wU5k5W/EP/+PS7JyL4cGJQwQ6juMSLBXTvEU9L6p+Ql8oGQZckq3wCptFpJNuv47sErVZNRES4hbxRCtg/FOtPowrYhWuT/p7mV5z5/N34Qs305lUVUook0St1qrPTdVqU9Mtzf7sMifSbgzynfg726sw0/tBKnDknkVAYITS8+2z/78rc8NY2r+UmRJlUCHKp+avUXFbBkHn39I6mzT5u9Hkk91kDJ6tu8N1N5mEy3nrWikH5ScA0W0LUgqb0JqRRPS/bswI7AJ3z4MvM7lK0R74ozmL4c1RALVROuIE4xEtENi+b6BKDY/+gLy5mxEZtk+Q7SjgrZo9yI5QDdSh3Jl2BnZMTWxjmvDtWjlhFuyC1O/ymYUjbAKtiPHX4fLAtvwtwu2idQZSw0kk3wgDMnSiIYQDA1gOBpUsSXbtfWF+keRO/ObmFLRgOyFbLfXAquGBO+VOaSepnYxG9cxYYhW9dCOJ1rObel9PnsNPlyxCf/2ha34Sa9yIx/jXIzS36o7MsVbh/Fw36+XbC8coj1zPdsXo0D7b4D3la5x9GxJulZhneo9UNgOa+G3FZkyM9no2b5nGJlo98Oq4l6riDatml6cBuTWtCL12nuw/ofH8HtZwpy/qsHLmQxrGAMIc4p4175NtM5Elv8x5hCRtPXP1X0bGdesQ6afBGFu9LnD3Zg0yapksnqnNtYhW1u6SbnnOpDuVxucxGaZvVi8S9x8l5Wsxf+9bgueG7RrGYcZOwIiQ9zpwxJH4i2mNavjc6+cDAvZ3tL9DLKvvhWTy2slpd35N50WZSo+F6vENLHd/4ZodUIJr4fnUGg30M8N1GNy4VpMuurruOYbtZJk9aadlSulEjI8pBoTC/XGcdWTvWR7YRCten/amtX5LWrfZLy2T/ok9x17GwPBiJNM2vLzIdGzzZm7Ug63YtmygUzVQdXQgrFBn3sdjZ7tu4+RXceES7TpNe1CtDnVLbCuXoIFOx4Tz0Q4zPjqWbiOQ2Kp2kTrzF41sTlZiOBwVIiXaVMUPb7yW7XIyt+MVF+PIdpRgddOuYs1yTIOmuXfhYzALqSW13p6GHsToxTZ8u/Srr8f1lWbcNniLnzQvxH/p2olfjtgJ5/oUADvKW9pFBgYjkqmpC7j4lbLe3w0rDIk6UZO/uSX8cHrVDzOtajdOrOEmG3C55o4mOhEK9nIklDC66HnCi0tkkSXiBIkz92A9/k24P1zb8N/3LAWvwy7dbbuFfASrU5A8kITbizZXvBEG6dn2zekWlzSKur4WS/+tHw1suetRk7ZTky5bh9SFx6CVdajlH/YI9no2b5nUERL40EnQ3mJtk323pRK9oVoQjKv97w1klhKo0TV06qEuDMZFt3BYuPo9S8bst4I1IuEbM8yM66e6Qf+dsEK5JXuRHJppyHaUUERrRCnuGe5gHYhK7ADGeU7kFqxC8nslyolVHZ2sU220mGLMZ3KHmTXdCFr9gr88w3b8Nxxu1xD9vEQMDAA9PYCw657iwudCRrqeWxGMoDhUBBHQopsb9v7HHJn3oqs4k1u8pNNtjI5A41OzNYQ7UQmWrfuUFUXeInWJtvSVmRVtOGyBS3InX0P3jfvTnzqa/V45PjE0bNVEnvHHIm9UDgqz2OC1LbHD+Ovr9uBzGvvFj3b9MpOWEVtsBY/rEpLRpDYM3q27w5OSbTyvSJaxmgJq7QOuf5t+FjlajwzoGp1hCfPcBJaypFos7Ize70bgfodNwrG8zqfO4L3F9yOXF8tknx8s4kfwOAMIaSpXbPM7GwUS5Yk61q0mmg95Tt2XEZOuWXNSL12Df7jKx144m3bSuUtCw4BQ73q6/CwZI7rU7d2GavNgObvYdkA+DM32ZciwLd6foZJs3ifd8SRrWvVGpkvQ7SutrGO02qitRP4/F1IYcyrcJdI7E0pWocpc+/BJ2/fj8cmgp6t3XErePgVlTwzdMxJoNF6tlsee0u67FH1x7pmNfKuO6iEHMqZmGP0bN8rxBKtTjzVWcfMlWlWHkU/VZZakBOoxaUFS8QTQUPlbMaIwu/uSc2dRJTF4wls+f2/Rd61tyGztFb17xzhAxicIbRbVm6s7ltcK5Ysv6ZU1MOqbIZVacdiPU0pVCC/EenXLMf/+9pufP8ttWlRWlR8xiTZ4T6AmcbMPeHDUbUJqM2VXWy0tcDNjJtsyBGNYNLGl1t+JHW2Ltl6Dwaq9eNEP2gZotVEa8+FOKJNXvgALF8n0mr2SpMLJuulzduArHlr8X9varro9WxVnJaCLH3A8HH1WYZ7HT1b1rPTi7T9B69Ju8YPBDZJBymW/hg92/cWpyRa8dyRaBuRWtUq+SrpC3ZLF8TJc+7GPYd+I0bn2YkK2OzKLzruIcNzqhwYGJCFwEVRtPw+TC1agxwSQGlDwps3OAtIkpMne9B2V9CKVZasyirO/NwhVXZTVIfkqg5kze9ESlmdbFaf+kYHHvmDakJxQu9UwaCyZAe5San7qzcAdX+5QXDzogNEbRDuxh+S/3Pz4wbAbGTW2aYXrEf2AtuaZvp7KV3ZVHWZ2KGDiU60EvKISdDhHPFYtA5UzNYba2Sd7X8bPVtHz5ZCBH9WepcIEfBAImu++hCsSnYnuk99Le1GDvMyihtMZ6lRIoZonXmrvHYSny1vhOVvkHpmGjcMgeQVrETRigPS759z1eHLdxiWPNPToMKZHBJfoEReHyKRiDA4xW9Zm5lTsFncnEmVLFw3N/qcIeTqjQsoslWuYqINVlUnrKvWY8pNDyFrcQ9SfbWwZq9GVtF6/NNNLfjBG8qlL+5gm2ijJ08Cg8qS1SQbm6TBTfUEEOmVp7iWBJ+parw02TJDkglS7ytZYdfZ1sMqabPrbG0LN/5zTSBMbKL1JkPp5jQ6xBBPtjpBSuUk8LlsajHR9WyDQRWyOWGrou39RS8+NPsbuKRkLbLKdqlM5IDdoGL+t5F83XdgXbkNkz//EKwiY+iMBolEq72L7IZnEy1FV5iVXLVb1kHa7JX415sa8HxY7Y9nuoItvdLCiEj5jmP1ROzOFywsRwRvhoAnjgMfKNqI7JJ6WL46JNfQ5DZEe87QRKtP/Dr+qhOfiPIOZN94UCzb1LLtmFK2CTNKVuFvrtuGJwfdZhQD/XRR2XvQcAiREDPFXZLVcTB5gmiPHhOi5f2ObY/HDSOWbLVlywSpKRV1qs62uAPWgvsN0U5wotUNK1yitRP8YpKivHA7SUlij9GzTdCzPfDrAZHYy7j6DkyfT3m9RmXZ+vfBym9Dxue/D2suVbd069bEeWnwzhiRaCU0xjCe0vkWD2N1p9qX/W0S9ri8bLlj4PA+nsmwVCcoTowIBhFxrRtZeHQ9KqJ9LQg0PxNFzsx1yGGbMFpcdG8aoj13iNtVNaxwb7K3b3EXrNIWpFS3I7lkKzLyV+BDJcvxr5/fgqeHlFzhgAQKIggPDSMaVNnj+sTsXezOhiqeChItLVpFArrXq0PEcWTLOluSra6zzatgnS0tbuM6ntBEW8VOZCohUkNt/Dqb3gOZ3xp8jF3l2qQ38oTWsw2z0D2IkyeOiQoQ1yLdyHueOylkOzl/OabVsE6ebszdKm5LCzegMron+vobDU5HtPTYkmjJcyk1u2GVtYMqdZMqGkVMp/npk3jDznk5k2HpO06i7ReytZd/mPJ4LLZm5CQkjSpu7noBubN3IN3XjfQF3ExqDdGOCvEbklu+o63b1JouWLPX4/LrmnFZ4V34p5qleD6kNqJeOSTRV6xiRHS1UbFr0J4A3Ny1i8rZrLihaozQ0cbZeB0iUEoksXW2X5I62zS/iRFNeKKVjd6Fl3RHJmB7ftvz3ejZ0htF+z0i65cqQLwLPER3P3sMf1Z2D6bMW4G0gs2Y/rmDyLnuXljzGqSLlPRGHmFOGpwZRiRa+aqIluWW0qGvplsS+jjnJ89vF0/DHXt+qeppnft++mFpE5a2S7/AS7QsD+EtD8mNL1z6HeTks4NJF9IXkQzqVCxxhA9h8M7gBsR2ihpu0b+bXZyzsBuZZduQOfN2/OdNO/HMcRXDUvs1k556Ee4/Im0Ved94O3kPmeakOu/Y7i2dvSkEa9d/CVwy1Sdv57TNVwwyISXo1NlycrHOdtLMbyK7eIMrKTVBMaGJlh4Nx33pEq12JTN2q1uKKteyci+75Ntt9GwdiT37bxGJ0bOte+JNfNS3TLprJc/bLIlkaexa5G9DuvQ2T5yTBmcGl2jJYSRY26NYoXoFkGhTKlph8UBDEq7agwxm2V99N0pXHJTD4NkRbYibKzuWqK4lsUTLlwvhlTDwf69rQsacZlhl+2ExdlDN8hNDtOcKqYlj43Bfs927mBuU3oTURMipboP12Tvwz19pwVP9Ki4Qlj2a5QJHJc5KAh0MK3kz3fFJWQJ2djHdxIzJiruYG4DHVSzky+bYyk0c+/f8n66zHZCfdemPrrOd6MLxE55oPQlOXqLVZT8u1IZG60ETsfzdBNez5RUnDh9XVq0oG9l6tsft0p/6ZwbxYd8aTPNtFu8WeyNPWahqkye6R2k0ODXRquZBhCj3cG1X7YdVvR9JZY3Im7cG/7hgHV4I2U1/zmCM6DpWsQPtOu6VxfjUUeAjxeuQPKsB6TX3K4JlnecEdx2rU7pH8k96ZLoWqXosXjpQgRuYtFTzsYepfeqnSyigWizyd9YVd+FTdxzA948pd5KcoLgpDh4GQgS3IpW5qEmS91BuK++hJlIhWtUEm5uWfo7ze/s1+LgmWpkHUsvYp/4WSoiAz37JrrNlicZE1rM1ROsJe9iWqtea1UQbb906RDvB9Wz5majsw7+lhq0ceAf7JBuZv6NVz2uw86leXO5bhRllm0SIwJqzVbpIaU+BMycdV77amxLWnn6OEy8f3+tvNBCPosxVXhc7nGFbtEyGkoSomg5YZU3qdzV7pBb8kopaXDL7LjxxRBOt7SG0x0jzyxJCtU9QOn4gg6U9hK3wUv/UcVxStBoZpU0SGE6uVr7s+Dc/kcCJq3z5vCm22o63g5M0mODzVJcRlcmm4KSPF23F5BvoQquHVcTswv1Im38QqSXNyJ27Hp/6epfUyfIe9ImZaWcN05JlAbydzcabql1TMe4p2YwSMyOd5+jfn/I1Yjc1PsbvOMHo2vp83Q8wo+Ae0bPNrWlXmy/1bEt4CtyrrPb43sjcnC8Smb0JTbQxMVr3mijXcOLB0oXrtYnPUVDzJVbP9tF+RTZvSdIm3zDfa6/d0nDka+jd7DS8czthnZzDiH9N97W8Lu4zRezr6e/56Xg/uNaanjqCPwmsQk7xZqRwvvk7hGwzq0gGdkMZXztSayhI0CoWr9GzPTVU6K5LECtPqowjMSYDzchYtAdWoA1pVZ1IK23CZF8zcuZswOYfDqoOUVShEjeje98oIOGdE5bqusJ+x55FJ5urOo2xno03+fb9v0Ve/gplZQU6VVu1gL25TFCQQLWLwVHakQ2IpTpuTZYmWk2ymmjZlCKlsgnWVSsw+aaHkMbWa7ymc7Yjp2Ar/vl/OvCD1716ssOyIYb7jyFKb4O9dY/V4LbMOtuvtD4perbZJZvVgmd97XWU7uuUjfVi1rM1RHvuFpE3nivEK68Vq2c7qWQT/uVrHfjeMZUgdYy7F68fiXaC6dlyH+78dUT0bFNL6yROm8wD+txtyF64D1bFbuXiLGwVsjV6tqeHmn9dSPGztaWHaDXZCuG2InU+QxxNyKhsR3pJI3JZ5jN3J245cFjly0SGEWU5rGd+senKWRBtCAMR5bIsWX0/Mmctk+4YSRXd9onKWLSaOJV+rK5/jbVoletYW7V0sWqtWV6/FmR9nnWyrE1ukNPntJKN+LtFO0RPlq4jLrWBfm4uyroMhQcxHAmP+UbB+UI3stazzb76ZkyralJ1toXNSJp/QCYtN+qLVc/WEO2537/TES03PVGnmbMWHwpswL9/cRuePK7cyCeGooiIJ26E+OeIcD+vl2zHev24RJuY/e/dh4f7jsvP3NRZ+tTxW+CSopWwrlkurvZ0H7sXsVNUm3SOsqrvhVVJq9bo2Z4ODtHaGJFoK9ukGx/nPYk2taQReYF2pOfXomzjj2Wt8P6xqZOeX7yPwZiKjziidX9hTwCPNN6/fKEW6XNWiZuCRJsUaBfEv/kJBfHle0XavfFZT5xWk2oMbFIua1Xp46V1SMlfL4LQ/3rjDvzcbrjOEh42yAkPhlSdrH0jdbajPvmOxeBc4abwal9UyPbmrqeRc81tSs+2pA5JshHrWO3FqWdriPbcN2o9J9Q84GOe2KHdQJ81pBnXLhXVnyu+sh3PnlTr4qjdn0UND6nGxEK9cdxE9+yFQbTq/WlrlmvaIVr+bviko2d7on/IOdi2/zKEP/atQG7+KkytbIRVsNP2MO6DtehBWCXdqt7W6NmeEl6ijXEdxxAt62fVHk/JRyHaig6kz6vDP9/ULXORgzaQJlkNPqaHpV3EIxOtCvRTRPzPytcgs2gzMhmb5ZvytY77TfJdgZc4R0LMcz1ELBZvD6wFB2Hl78D7b+jGjMIV+Kfq5XgpqDrjqJaKZFnGZYkoBkNhOfzwvrgF/WM1OJPU3NF1tkyQop7tBxa32vFYvXkqwuVjCTHb+Gs6jmCIdnRE6yRJnULPlr9j8g9rST9ctAT//YWN+PEJ5UZ+fXgEsvUmG8VAE24s2V7wREsX+cnX7Zh0P04ODItly74GXc/142OVa5E+e7lco7yFPci58SFYBSQHo2f7ThiZaDXBeojWvk6SOFXWhNzydqQXNeAj/s341dFYD4n+KmuLe7c9bKJVrgv3YUW0/JmL7t7nh/H+ouXifpDaLb9yGzsun4mMGMtVP2ZnAupksRhLV7uVFdIWHUQys46vXYL//FItfn7MzmSTvVhJ3UV7jyE6rMpreCNJsiRiLrgxJVo5cR939GwPB1092+yrvykxWyf5ySZbXpeLSc/WEO27QbSn17PNre4UPVvJRi5cgv/68q4JpWeL3jdi9Gx57ubztJ7t31y/E6lX3YE8Hlx5HUs7YS14UAkRjCCxZ/RsXegqjxii9ZIt93B/s8x/q0yVqWX6WyUpeNrclbj3Z28790yTLOugZX7RFWkPyxsjiCVau5YLwLpv/1Y0JDOpNF+1RzJLJbYywU9EMcRpbzi8HioeG59Or2OSnthkhV0n+5nb8G9fbsQzfWrjQIj1VrasltQyDyAUHIo59cacfMdq6I1gUCWl8P1xk6aeLds1Tp59x0WvZ2uIdnRE65b/6DitJlq7Bziz2AsbkVPVIS7SvHmrJWZLQY3HhyaAni3lK8O9CB35naqDt8mWMUEKEWg92/+1aJO0a7SuXYvcxQdgVR5QVq3Rsz0tOOc05LF4ouVcL29VRFvcgIzKTqSWtSDD14a8OSux4dCzYvRw5ej7RqKNH6cmWkRk8h6mO7DpcUmEkkB61V4k1eyXtPKksgnegs9xi+r+rSPUjDrPiyVY/l6aPXz2dnz29j147KitJ8ubwB7TrJMNHgOCjNEo7wI7PamTE7drnmxJy55AwHkfdGezwJ5NMejQDkmhEDfqFyIqG/li17M1RPtuEe3IerZKJo4dqLokP2RKVTOsWasxuXQz/uHztRNDz5bd2fSBlp9l6CQiw2pevWmHbHY8+nvRs72sbL0QqFXC1oH3Gj3bd0AMyRLxREvOYwIwXchFdRI6TSprRkagHXlzV+OWpkfFs8D5x9UjbmNRnRLKde605XVdxBMtJy4zjv/7SzswNbBTZRlXHZSFwA4ZzECe8ETr0ZNVrrC4RB9uSJKk0CVf0yrbkFXeiOkLWpF29Z244psdePRNlV3cK/eGxYJ9ypIdoltWbcZ6AaqNhHeGaRGq0cRYDT1n1LzRxBGr+vM/jT909Gwza0hAnMB7pPTHqmZJwrlv1BcCDNGe+/3TruPYBB0exOIl9k6tZ/ufN6zBcyfU+nk7ojxCzlWVLmindx+P7dDVHSp8x6GtWj07nPcoB4fYJh36ubrOtuOnh/EX/nvEshXx+LIWpCz6tmvZzv82rII2ZC46JG5QJlBN6P3b8UDGJ6rGJa3aIUEV03Vb5k4t3YZrv1EnHKnbhcYc9Dj/7HuVSLRq1ckvuexeDAP/uHgTskuZ1UY36UFY5apDBluBqdhK4geYEBALTSvvuETLjcAh2sImseLSFxyQa5VX2YhJvi2wPnUz5txzAI+/7erJDjMnnNZr7xFgiKdYtfj4f9dVzHvD3x0GIry9Y0e0nFSx2c98p67qDzcAr56t1NmW1MEqbkXyDQ/DKrOt/PjrOo5giHb0RKuSoXS+hw4xxJOtV2LP1bO9fN5tuPqmjXjisDrYvRFR1gU/VzhMwQ1vzPZCJtpYq5bwxv3EUvJA/8zPyO+PR9Rmv/9X/fjgrK+LeLxYtgUNrnh85b1Iv/ERWFdtV+LxrHkf4b5MJJwN0arnK7IlJpXtwL9cv1G8dyRbN2fG9lREeAc10drWq0O09s8cZOjH3gA+4l8Oq3CHnS5+AJZ/D9LKW+VUaYhWlyPY9aK2K8y5LrTaytn8uwsZ5U3IK14vnZT+++uNou9Lm1SIdIg3xt4YgoOIhMLOotNk5tButBcI20QrC3RsBieVbvvoxov5fmLJ1qtnO7Wy3tWzpeSXIdoxG2NPtG4drUu0fD0v2cYjUc+WTff/3xe24rETKmb5+7C7rtQH9WYiu0Q79sPjOo47AGiiPR1kU4/Ts2U2MvVsP1Jwq1wbyrqprlH7YRV3wyrqQtYXH4U1u151kIrr6jXhIGTK66MRR7Txz+chz06eYpz7T4qW4JHX1XV3qkBkvsXmBNhE6z3ducRLhu565igunXcPrKJaWFX3wqo4BMvXg8zyVqSXjv+s0VFBE63dyUa7wVyiZRnUbiSzcQOztAs34wO+dfjXL2zFs8PqBCoKOyx4Hh4AQlxw7onVu9icDVFOSuw9zP7FqnfxWA2+Ry5u3etVvRN+oFiyfflESMiWQgSss51E1adSbtij26gvBBiiHd398yajuERrk60XTi6EzodQerYzalqQee3dskf911eb8ESfItvXw15XXlx97QVDtBzasPEicQ/Qh23t2dJEGx7qlz3h+LEjUmfLz8x9Ze8vevHxsiVSFpUbqFd6tmxiIUlSe2HVsEmOnTcxwn2ZEHAI9eyIVoM5NtNnfQtNPz0h+5sIvsjNY5E37wvvlkO0ajhE63Elc8Gtuf/X0vJL4rP08dPXbxNtWsn2iU20zoagY0fMplVE67jBGNMuasEln78XuUUb8LcLNuG5sHI1cLG4px+lJ8semezGxd/1xbTxsgmMG6LGGG8a8ZtBzIHAIRKVvX4soixbJkilfOom0bNNKasb9zEiQ7Tvxkbtbl7xxJtIwHaZnGfdMYSVVbgRl5Wsxr9+cRd+eNKts+VW566fWDIb66HXj7vGOU5PuHqNef9maFAlRdKNTLLlXeTnp57tJ8pXIHf2PUgv3ILLvng/MhbshzW3TlWPcJ4m3IsJhBGJNo5wnefq8kwXTCabMudOLDn0PF6ziTbI20ZjiI1G3ploVRYy3S9f2PEdqV+TGzP/YVg134EV2Ce6fAy4T2yiJdTmwPIElaShEjvUhtCDJLpH6T6evQX/9K378R1bhUdINjwMhPsQGTgaoyfbG1W9TQdC9qYsVmyinqy7OMdq2OR/Bnq2wXBImlpoPdu8a25BVtH6ca9na4h2tETrIdBz0bMt60LKgoOYtGgPMuatx/sKl+GTN+2cUHq2PJyrJ/GniNTZ8nNrPdu/rF4rerYisVfRpvRsC+uNnu0pSfbMiJb9AKYXLMf8bY9ILgqrRtjjWO5dUMmXao+jxZumoW5WLNHm39qInDnLlPuz6kFYC74Lq+KAEG2Ov84Qrb0xaGvWJVo7e5IxbSaRXb0WV6x6FL+yTz6DvSeFZMUNTD3ZUFAWnG5G0a+JlKciuoi1zB0TpGw9WZ1OPnaDBwBq3L6Dnu0AY8mq4QbnlNazZZ3teNezNUQ7GqL1uohjidYbhlE4hZ5t9f2wSvbK/pRb1YZJ81ZKzPazX1iLX/dNHD3boyftUj9bz5Z/obu1tfwiLHq2k4rXi3g8PQCsS2Z/9fHuURoVSKRU6Kmk0MnZEm23zMsphStxxTfb8IJNtAOyoGx1qZGINvYGqptHy+tfbtwsLb7SavYqkWa6jyv2i3ZkdqVafAkfYAIhcWPQ7eS4efCa7UHGwoPIrmiR7i3X3tqGn52wG1PIamP9qWpGQUuWJMvNgUQ7KAlStnB7yCVa3i+9QMd2q/YQ7Tvp2dq6udRG4LPZHP2rbT+29Wy9YgNqErv1traF4+2JK8/R8brRbPSjhyHa0Vz/eKKNXU9eso23bh2ipTY2ybbyIFKq9yKvuh3pM+/BHxXehf+8fpWTDao/p8ZI1uH5HiOulxGJ1iZbB+5j/Fz9oicODAyKn0wEF6gmw9fjvWSizq4fH8dHK9ZgStE6TA7sQlrRNgn/Tej92yHaEQj2HYmW7UGbkVOwBn9/w1b8wvYgiEXLEk2KXgR5Z1W+iiXeSQ69IUaH0B+Myh89/DYwo2AZckq3SZZxciUXFt0NOkFBZdMmfIAJBE5U160VnzlJeaV2WL5mZFY0Y1plLbJn3Ymr7jmI7/ZB/Ppqk+vD0NCALDpuCke89YBcWEK2JFneH1e43U32GKuhXcduaYLewNxNzJOI4ilf4PvnHPtCPetsl4rbL6+GE3gvrOr7YJXuluQNXluv+ohssCTYC0RP86IhWrb7FP1pRbTPBIGP1Wx8j4mW0G5j9zHlGvauqXho17H993LgouyinhN7Zc4wZvvv16/Bi8OQLkp9Qzb5DCu5vbH2CI28Xji8Lu7TQCdGRtVBXXu5YnI/IoM4cvS4WFvtTx/D5cV3Y3LBKkzy70ROZat9YIm/JxMIpyLW08Eu9+HBL7t4Oz7oW43vHFfeA1lBOhYgqgLc0Y/BcopDJJOVWaxD6AupWFrDryC+/czSndJ+Mb2iFWnl3EjsDbFq/DccGBXY4cm2ttyFrw8hyiJLq+mBxV7G/mZMrm5GRuEGpM5ahs+sfgIP96nb0HvssCwyLpDDw4pAuWDUNuyJ0eqkKU9ixFieyEc7+Bl52Lip+Ul8oHiFHOjY25Ykm3Tdw7BKlEWriZYQt7wh2ndlXBhEe+7g++F8UF6O/Wo+VD+kEjYreqSX9vvn3Y1P3rgavzmu1tWxIbVuOPeOM0Ui/qKMp0EytQ/g+vCtOxTJ0N6wSB+O9w0K2d7/e+CDJSthzVxtWuiOElwX2b5GzCheg/bnByVOK9feLbqwg2VvKaJl30zHaqJFG1Ub4J0P/AF5ReuQUVY7MtEyXXwMF9qY4x2JlvJ3jNe2Svu41NJduGRRO7JLNsK6egmuXnoITx9Vi4ObwB+ODzuJEf3DeguItQgVXBfYeB78RK6e7Q+lznZKRaMSsS5qUyUIccoj7sZqXMejHRcD0WpXsutFUvOCc4QekGklGzDlyq/i6q9sxVNvAkejag/sPam7rqn1ND6Hd29Q99Jr1cp9DQ8g2s9e5EPyGCVP638LfOALh2CV2KGaEa6twTuDcy830IxJ85bjnu/8RvYxJrHK6S2GaA/D4vfSQUUyWmnVDsnNItEuqHtKSlLSyuol+Yl6fOJC5j/ECW2I1kO09skwJsaoSDe5sgup7JuZvw055fX44I09yCrehIxrbsM1t9RLZ5Hn+93EjbBkFUdUjVwcuSYusPG7UWjL/JUTSs/2lu6fIfsq6tnWwyplRy1u5G6dsjd2J/G6C0A9yhDt2K1/ZdG6CVN6TmjwYEYvCbskTf/sFzH3qxtxTLuLh07aylNjew9GO7wHbr2evHFfxmt1WDAYDEq45scA/nPry7DmNtmGQeK1NXhncI5l+VSy8OL67wpnHhNCtYlWXMfMujmiiNaxaCVpZVBuFM3g2cvvR3bRJqSWNZ6CaPeM6UIbc5yWaHl9upE8fx+kv29pM3IW7hZJPGveFkxb0IbplTsxafZd+Ocbt+LXdszyMDMbuBFLWUxsD9TYuKedLDGOiVYfGPiZdIYk3cjJn/wqPnhdB5L9VM6ws7dtwk2I2Y5x1rsh2rFb/3xfnAN6LmiPhyZaOZAVbsX7K7ZjxjVfR/OP38YfhtnqlAXqvUDf607y53gcvG/efYFf44lWBjORQ/3ye9bX0oBir3pr/r2GaEcBmWOldcjKX4nZS7uEM9kK01neYf7PjtHKQqPaAImWmaHhYblJzzPj+KutyCregmRfkxCsJlrlqmHfY0O0pyVaws82jHtgFTUic+E+ZC3okXaW1NjMDDQgp2ynJCfMWrJP+h5zk5MTt5N5GEu0aoXZCVIsnaH1O14HP4dd2M3N70hI69n+Erkzb5e5J3NNrqUiWx7yaL3omK0h2nMfFwPRerVVdUc27f0g8TLJ7pLC5Wj7tfLSSSnN0BCiJ95wytLG6/ASLcFPomvZvfk4Q8Fh+f6tMPClnQ8h67PfQHJJvdm/RwlJzCupR27ROvzzl7bhJbt0U5a33BRNtL2whrXfQWK0ylXJhfbjfuCjVZuQWbwNSb4WKedhoXMs0Y7tQhtznAnRVu5B6sIDKsknv1Y6bGUu2iNyS1bBDrmm0srys99Cwd09+IWdICW3RbuHvZuB+Io8Kf7j2aLVB4b+w/JZODc596hn+62e5zBp1p2yicaQrceqvRB6bRuiHbv1L0Tr3yVzxOnG5vF8UHTgkvy7Uf/MoBzgSDRvHKErTyUYRod1aGZ8D30fefdItGpWKdOKv3trUFmyX2l+AtY/LcQfLWpGbkWTGFAmGercoXIEmpFbthV/EliOJ08qohW9d5bz0G0Plm/2wWLdj9rUtStSPfnhtyBlF+nFSh4vpaITqZVdHqIloZjyHjnVxBOtJylDUNiMjOvuRQrbn5W2KVdyUQNSq/cgqbJHtH2nlNci+4qbMfe2ZkmQ4mYnC8Yh1viEqPG/QegNT8WQuEVEwIMfPzubWny55cdSouGQrb6udsxWXfvEe3I+YYh27NY/3w+787gtT9Xa4/ecM5w7Tc8OSPyfLUC1R0gSoS6K9cOhPgfvo+R36IdtbxilN1lLfF3tD6WO/32LOlRNf+FW5JQ3jrlHaFyjog3p1R3ICezEjDl34MHX6CRWHAvJe9K+hSE7Riub+ZDEBfnt60Gg5edDkqxDq8HbtUUnorgTe4Q3MIGgNnvPhj8S0TrWrSdJyvu8QKcUj08r3yUu03lLduNp+3SkWnqFEOo7ajeqDklSg96mZZMcp0OmnfMZ3AMEPxc3e6Vn+4Q68BVsVF4Af6dKwitlV6ADY7rRE4Zox/D6899m17Wq/UhdeAhWYSOyGJIp2ozJM29D4zP9Ysk5zWG8zR/G+drRY3jYblLBTnJswcjPZze056fk56/e8IAktVqFdbDKeO26kB1oQG5FgyHa0UAE4VuR7t+JSwtXovbJk7JnD8miYvtZVvHohhVeog0NyonoDyFg5UOvImPmEul0pALmrkKNS7QGmmidx8R1HOc+joGXbLulaxTjuLye7LRFQsmZeQeKVhzAM72KcI6cYBxTWX5s3ch7xISHsS64H+3ge9dnPvU57GxqD9kqPdsn8b6SVcgu2QqruAFWcTuSr/8urDL7eo5wX84XDNGOJdH2wFr8MKzAIVhzGzH9un1IvXYpLrn2Ftz/GvCbfk9TF/EIaemycR5ysYe+f6oUkCb7ABBk3ewAjh1Xm/78dQfxwfLNsPJ3wirfD6vykIRgjJ74u4CKDiSxbNNXiynzVmH5va+pNoycXnLgUX3emUej6miFaNmCbUhcdzwFLdr5KNJnL7PjYyo2xpPQhVRacUHCIVrbYvXW1NrlPu7jXSp2G+hUog1lbchduBfpxduRcaWK2T7H5Eh7UR1+m3dGLS52thn7zlCjG3zv/AyEU/fncZFrslV6tqyzvR1TK+062+Iu1X7PEO05j3FPtJV7YS18FJb/fmQvPoTMuSvx0aJbse/Zt/Hy8YjjSpXtzfnUvPaeFofjmHD1gVsCfrJ/9wLBY3IvSbI31T0iMnnW3G2w/LtVxzWSra9bSeRRkS3+mhqcOdghqroLVlktcueswfXbnhQhC0W0do962c+giFbKfaT7UFAk2lhmctWtHcguWGcnGOy3Y2OKaL01a4Zs4+Al2tPBPrgkBbhRc5PuhpXfIMlT02+8T9xfWVd9C/m3t+B3LDTvd5Md2FCE5HTSltEbr0NvFLoUwaGdOLLlpqn0bJ9DztW3Y1JlgzqglI991qQh2jG8/rInsRvUfSJw8oH827H3mbdkPjG8gqDKytef0/msOgnP0/R9PA59UO2V/VuV/FHXmiUmtzR9HzlX3iIVDrJOqENbTj3aPbCq2GxojxKKGcv7N94hRNsJy9eA7LmbMetbB4U7VaYT59dJ1fc4AuU6DoWZITUsMkt8EoPn/3TDVuSVblVx2MqDMRmfhmg9cIhTY4TnjAj13HQ5EbXAKmlVcSZ/F6yCBkya3y0x22mz78R/fH6LpI7zJr4xpMiplwfYmJP6+Bt87/wMnIM8QOiMSfWZ3Jgtn+Pq2T6FlE99RepsU0obxjxr0hDt2cz5dx8pVT1S2jNj7hJ0PdePw8xB0X0B7IYUOkThtjXlx7w4iFaHkPgp2FKSFtXNjd/FpGtulYQnldNwAJaPhNCOzPl7lEAM8xyqaECN7f0b12AToiqu9RbkFe7Cv97QKgIOLtHSje8hWrqOeRLiI3zSbweBv6hcLY2nxdISot2fSLTebNuJitMRbUV8M3Qv7MboZS2Szc1EDsZr0xccgFXYhIyaHqT5miQuOTl/OebccwBPHFdky1OsS0bjebgxWW4augbQzZ5k4w5uhkEEQxGPnu0vkXf1t0Tse6z1bA3Rjt1GzYzjrPxV+GPfCjQ93es0dR8eskmU5Yqe3uB6bjlW7Tgvj+PnYHyWn8vbynTy7LuQVbZLDiGSMEgrtrhFGsBkVHUplzEP9EwkG8P7N+5Boq1oh1XZhsnFDfjbih34bZ8mWsZnjzv2griOZenbRMvT0SMvD+EjpUulmYLKlmUAPZZoNdkaorXdwA7hqsc1oeo62wTYij8k5wwp+2mGNa9WJUUtPqROnfPqZXGkFu9A8hW3IX/pfvxy0M6ipKyZBNvHdrMe1eB7F61dFcvgJ9ExW05WtSEO2Xq2Q/Kzq2f7nNpQ/PWJ9+Q8whDt2G3UrJP9y7I70fzoi0IynBt9dM45n1B7RWK9Jxrj3SOkDqpDePPIcfn8X+76FZJnrZK9JH0xFbB4z1S9cVJxvVuaWdaCtKpuQfw1NTgLkGgr2yVOm1fchI8WbcBjr3iIljOS0y8M1bDCWWh2Z8aun76N9xfeI80qxEqTGK1ug9cVQ7aGaONjr+rxWOtVE2v8V9bUdipX8fWHkLOI+rX29SxqRlLNflgBdb2lKP+zN2POrU141hYicKw+T7kCH9NwNxHVO3mkjWdMRxzRaleYJlp5f5I7wK5l6lDBDpWiZxulnu1PxlzP1hDtKK7fCPch9iDqOcgK1O/FkvXX4n0lK7D7x6/JfOG8ORG0WxDq3gDOSCTb2DDF2A6+Bw01YnuZ6/ukDwfqj/h75Qlipuvndz6GpM/cjiRfG5IW3A+rmC7jPXLP0spbBFnz1XogEUvv9ZKGxHticObgNeRaqO5CVlEz3j93Hfb/vF8ZQlFWithES4tWb8i0aPk9ffxrH3oZ2dfcjjx/bWzHFRKuuJF7pL6Wk50TP+ENGMRCXMiJX2PJWD9fk7beXLqUzJ6vDlMC25B77Z24dsX9+P6Qaik3EFTxqIH+XgQpFs+FF7JjN3pVCllpIelYV9rYbjSJG0riQSHxOfyOn49u9C82PC4t9tLz10l5lCR+VN2r9GxrDsqG/V7q2RqiHQ3R6vtAWbu98voZdu9ip+sXn1N9CKmLH4RV0owpNW3IK1qLabNuQ+uzfXLoip8zp5vTXlI73fPO19Bz3iVRu485+87b+tP8HXMU+FnlUDFkZxjb5W8l657E5LnrkFGwHSn0jPk4DzuROt+e21pnlck7pzAMDM4N6Qt2IynQioyKbmTOWYu79//KbsPI/tLH7L3LjtHKhIsEZfNlAcktu3+B9Gvukkw+3UPUidXK5rRfbV7+XYZoR4N3lNmjW3mvEC2FHfIqG0XPNm32clyx9kk8MpioZ/vmgKtJqbZxu/vSRapny42GCVLUs2VvZK1nay3+Dqyy3XJd30s9W0O0o9is5T484BAt14IWCeA9471LW/wALP8eWPlNmHbDAaTNWobLZn8LD/weeH5Qu+nG59Akq6EetOt9bUF33g96cbimD0eV+AbX7cDJY0K6/o1PYjo7zc3ciqzSZmT6W6VGlm1zU5gRS3KVWGIcwTpNc0a4LwZnBK4HtiaWPZydE+dtwv+0/lSMVSXkwGQ8lQdgMeM4FFJbAG8gEwqqt3wX6TPvSSRaLa6sifYCaOo+rvGORNsNq6xVnseONyklOzFtfgsyi9bDuuouXLPsXqc3Mhfd7w73O2UyfdKehCNeUs91o41nkuXgJ/ImgeRc8y1Mr25BzqL9sApazouerSHaUVw/2fAZkmJFgyod5D3S4gC8d0nzD0k3o8mL94rX4sOly9D+3BB+Zc/7sb2Coxv6+gvJOgRrH4jtx+mV0jNF5pG91mk1fWnLfZiRvxbWtduQUdyIXPaj9zXDomBAEXMXuHecwpKV+zaKe2egQlUljUK2zOjOKNoK//qHxNMm6ylM0QqlDmUx45hqFlxgtBC4aV1zZ7dk85FkDdG+hzitKIENxmglcaFT9Gwz2cP1uk6kF6xH+tW3Yt5d7VJn++Kgq2c7HFLdSHSCm5dc1Ygn3/E5tGX+u5Nq3lLPNm/mnZhSwe5RjD/xGr63eraGaEe3WfM1Y++Lvif2gbOsXVTDpvh34LKCpWj7+aB43U5w30qIxY6voS1a9YN2F6uSI94X3g2ibzgiJUt8Pkn2tQhwU/0PMPmqW5CVv1ks2Wx/K9LLmiXhKbWCUqZt4taU6xxPtE6FxOju3USHIto66VXPBiAZJTtwxbc6pTyWpbJOwwoSLf+n+2VyW36R8nhfqkde8WY7DquJljfJJVo+diHogY5rnJZoVW/kJGYf0zXka0Xuoh5YpfWwZm/A5OpmTKvYgekFy/AfX9qFF+yY5RF2HOFGTmFr21XMkRj3HP+dcfSBgZ9J19kyQSrlU1/D+xe1iftMke17p2driPbcN2u+LmOyWktW3QvOf9vbUN4tJDupbBsumXsnWp8blrwESTbhNaRm87ievxz2odep61UWkCR12V+Ze0GiZe081/iX6r6PzKtuRU7ZLmSUNiKLh5OSBtGYza7ZLT3B5X5VJV5zXt/kgIvE3xucKeSQSE8ZS6aKW5BRVot/+vxOOfSrW+tWhQjRSoG3PYGfGQA+sWCT1NBS7F27ctQCYKGzKvUxRPsu4J2IlvC1w2I9XHETshbtV3q2BdtVX2RfnWQjTy1ag7lLD+Kp4xNQz3aI7hmlZ3s4qMj29n2/QvbVt54XPVtDtOe+WfN19X2ITbpUJEsLN23uWvxR2Wo0PN2H3+uM9MF+tYmxr689v8fn8Bx449YqvyPJMgTE73lnXg8DN257ENPn3iEyd1KiQ5lNJjuV1CPJ36SsK/anZy6C7Nux19xLsoZoRwfxGlCjnR4DXwdSyurw8er1UoKp9mB3f7X0iZDi7zwffud14IMlKyU+m8HN3CnjsReBTbQ6nqJiKYlvwuAMcCZEW9Fjy+u1wiqolw095/r9yKrZDWvedokPUM82/arbUbJ8P34zpGJX0r+am6fjIrYHH5fHLiI928Gj8lk4uUkS1LOlG3nKnCXvuZ6tIdpz36wT74Pr6uf+wjrZy/1rsfWHb0vSG+c1G5cIKYVOKoxnopX5a2cXe8jV/URqtrx+IijuyK+1Pik90DNLd2Ly9SzhaZYWrhIjLFPlbcyAJcGmze8Wi1ZVN7hICbgYbdhkooPXm6prknzGUsySOknKfOR1dR+9+6ulVOAj0u+YC2zP88DkOXcrS7Z6t0O0zkKwu0RJz+MAMwNHt1FNdPD6nVbPtpyE2oj0xYeUgDxPotU9sEqaRM9W3GuVnZhaUYfcq76Jgjvb8MyxCahnyyw/djaz5/ELEeBr7T99z/VsDdGeO9HquHlMTNZDslRsqvvJSfFSkIokwY+NWoZ7PUlD43gea6KNDskhkZ9Gu4v1GuX3zGL93I7vIuvq20RLNqWazWyaVc9ikmY1RUk6hFzl3rCZUE2XWLmGaN87iEVLr0Fpg2oQUtyAKXPvwd7fBCUM6z0EWmoDDstiezMMbPvRceTOXS7WrM4EHIlo+bOydA3RjgZqs/ds+PFE6wU3N08zBud5PmYbNknCSN61d6Bo6V4826cyE9mQhPc4MsBUc2XhDg4OygbbO6Tu+3gd8tE0UXgOEPxsJIvzoWc73olWd4ZDcDCGaJ8NAR9fsPk9JVr5W/bgZQ3tgnul9Wh2TReyizZh6qw7RBObiU9OcxbPgdG97+N56GYzEQwwCmKTLNsq8rPxezajWLh2L6bmL0VS0U5I60Qq8JR7RAF0ZrHn2rrk6q3VT0TCPTE4YwgH+hqQWcWs493Scet9gc1Y8+BLMmf14L20tGoPJ/IbEeCu+18RuSnpv1u5xyFaqT+UOK1LtE43nhHehMGZIWHC68zAOPexCy/ZdqveyIzj+tskbptRuEmaWhSvPCh6tiRbZdnqmK3qJvNmb1hOz07cdhwObQUQ6nO4G5cm2/daz9YQ7SiIluU77GLEQ8+cOky9fj+Srl0pQhr3vw782q4Td0lWueL4fmPv+/gc/BycAayTlTkSUg1o+P3b/VGxZK/bcAB/7F8Na9Y68WZZVQzdHYQV2Aurep+6/lInG0u2Z0K0TiMLg3MC10VmoAFZvI4BZfBMLtkgvdilkQq3I5do6TJSRMs4wMJdP0LavA2wKnaLuoO2XBXR8mayHeN+uYmqJtHcrHcVDtHaFqu3plZIwQM+R+TiupBas0/0bHMW7EFa0TakX/FN0bN9MawycnmzBwf60Nc3IFYuk0qcxKlxOvjedW9kp/mGx0Wuyfa91LM1RDs6omXXJ6ukA3kLeyTx6UMly9H2i6BTJxtDsp5mK7p2fDzPX97949HYemAmpvIAzL34hu0PY3rBcliz10sM1mKoKEDdarqFuUdQ/s7eB5w9Q13bUxGtVcGGLRpm7x4NuC6YlMakYeHF8t1InbMG19X+EIc9rUBjiJabL2/uNXcfFOFxlWF8wElYcBOiXKJ14ysG7xq8i+Z0ELJVerbMPhTh+IImudlTrj8orlKtZ0uieZUC8hF7k4q4BDWeNyq+d29vZIe24sj2vdSzNUQ7uuvHhizM3Jzs245L593juItJQMO8TB6S5eD/+S6lFeE4n7/8LLR83mK3J7vnvDQNCgNfanhM2uCKniwtWZJqoAtJcuDmdd+LpIX3umGkMyBaIVYSbKUH8ffD4IyhiZZhO+FFhqJmrUbBivuES7XHRRGtXSDNG8wJ/s9faUF2oMEm1FMTrRYXMEQ7SjgLRGOE54wI9VzRs6UQga9DBeQZ85pbi9zqTtGznT7nLnz2a/WOnu3bdh/kI33KiyGb7DgdfO/8DNywOH91xqb6TG7Mls95r/RsDdGezZyNu3b2RjXNtxmX5d8hHZ9YJ8suvmIJ8D3ZByb+7L3Psfd6fA7tkeH1ZvLMsbBaozfVPSJ1soz/iZRd9b2wyrrFNclqA8k1EI+jDiV5iVaV7bgJT3GWrJdkibjYrsGZg/OX1Tlsjyu5S/PvgzVnA/77mx1SSxtLtLZmIycuRWv/+rodktlGkrXKDwiRxrRFk3pERbTqJia+AYOzwOmI9mz0bIuakLnokIrZFqiMcZ60LqlpQuoVt8op67kw8GrY3cikHnFcDzcmywnNOawTSpSl897r2RqiPXeiZdVC9rxV+FPfcjQ/0yf3hodAmZf0tIWVEaAtvYR7y+s3npmW82JwWD6T7vj0uW0PSZ1sXnmD8lKRZKvvU+5if6dUGLARizRj8bHFYiLJnpJoNblWeWDcx+cMrgvq/iqL9gCsBQ8gpWg7/uHztXg57PabV0RrW7ScxEw++JOKDcrnXM6MtkOymZNknVo3T29SQ7TvAmSBeE6l9uN6gfCay0YXD4+ebfr8fVLuQz1bNrfOue5e9dg81fN0xqIu0bO96tYOp+ifQgT63o/bwfc+xnq2hmjPnWip/vWnFeuw64m3nXkZCTM5025GEepTB0JPTJakJNfPo24zboc9f08efVuSFr/e8oTUybLDkKqT5VxiHPaAElbgvks3clkzcqvakFlhHxKdKoSzINpqlgcZoh0NuC7YdlH4MrAPVs19SC2tw8eqNuDnJ5WXwkO0KhTPxfXEUeDS0nVIJkP790kauSZap5THqe9UNzH+Hzc4S3hPpCMQrUK8jm2cnm1+nTTSZ9coxmzZG9kqaZUiaqm5K2uWJCASy+xvNTp6tuwV61iFtmXAL3w41q3sumE1VSQ+ZwxGHNHGx2zl452Rnq3uTHQKPVvPASf+OSTY8U60cp3iiPbpdyJafn5aXE42vJq7I18r+zBp/17ryV5SslYsWcazOB9F8pEHIzYgESIddIhWx2TVFfM0ergAiJbvUUON2F7ifFzfbWWN23PXXnf8bDdtvR+TrrwZk8sbxBvF2nlVJ0vX8T5Y1fthLTik6up9rciuaoVVtMPdQ2yPmNP1yROjVbHZNpto24xF+y6BczmtZKdd3qMOROm+JnywZDUef0spLen7bSHMSq2IuG2afgXJmkr2t9vB9x5p8p3u58Zu31CeZOmqrOBCMjfqvGAUerbJlVyYjUgrq8Uk3xbkzLwDM5ffhx8MKz1bpqDTRRfq75cNgRbDsWG1uZ0Y1tNElwbxUZfQxj4ZJXFD0wcA9xCQ+Bx+J3Fq9o1teEya1Wfmr1GbFzcyllCUdqmDiuQo1IskJMlBsu+FZA7ZpRa7xzXROvcwPOw0gNBE++cLtyQQbXKA3Yh4nXgNDtgyd0pukL/X14pf+XdyEKzah+SFD0gb0Sk1LZhUvA7TZ9+KtucGpE5UzaqR75e8tXe4p2M59JxzSdQ+LJyJnmxUrcHSdY9j2pzVyJ63BensWUzXMDs+zaf30F7Psu+6B8CEPeJMIISrv9qIf47BGYPzPSXQoOa5ZIDvE66cnL8SXT8fdLSSEYmQaKllGhEFmM3PRpGSvxFJ/k6klO9Gyv/P3nuAR3bV58NXvW51wRhIIITkSy+Q/EMgIYGADS7b1KWZUd/iAqYbG9y9vfem3vtqq7uNKaaDsY1x732r+kij93ve37nnzp2RdldrGUsjnfM87440mpVuOfe851dfXwvivayX5QNmL95yw3mz6hBN14W5WROHs8rstSCRpSzeGgnYpxZUieqP1rN9uE89+KC7blhNCi56Ul7QNWTTABcy/lx34lELx+Qg2vENng1dlmxt96HsVdIowaJwdk4LopbdJ3ExXl+6l9ldipBOMNK45ZDdjnSKEG1gbETLdnPRXpto6dIsDhItP8fNiCZa+fySQ7A87bAWVdp6sitx0aKbcO/rwHP2hi5SR/jGTr3JDYDRk50OkPmdT08YQ60kWvadaMDMtPWo/NUp2UTKxjAwCAuDx4RoWdi/8uGTiEnbFka0Sr5KWVJ6Z2WIdlLgrETbCitXeR2oZxubW4bzFtc7erZXrjiEFweBU0NqwTvRB5zoDkA8eFw8hrh8uEmBNKESj/QOPugui7zBc3A6SFX+GDOu+D7OL6pF6pJ9Uiol/UtdOqlayUpyFezrHOmu4/ERLRcXrYzEunqVy0HXsNrls1ZZ9emeubQD8ekb8Ge5K9D0h378scfoyRo92cjG6Yh2Rvp6bH7gldGI1u6g0/4sYtO3C9FG+9h8PUi08ssN0U4unFGUwIanCdGFLaoMKGMPkn0Vomcbl75Jmlqk36LqbJ9jy0abDAYHuWgEbHfiaHHZUPKN1KEXyldO2XW2rb/DrCtvk77RVnaFvZCpemVeZ90lTUP0U/MjOxlqXERb0GYvNlwjeD3UNQmJzXqocFKP2b5d+EDmcnEXaz3ZgcBwRG/U9DOhvjF6stMNvEexTgiVfSc65dmYkb4Bt7Q+JqGpYXnchWiPywRgrMC7++eIzdyp4ip2UF0WE0O0kxNnJFq7NzJr7eia8jZg5lX7EO2phrVwK2YW1cjiN2fRcnzp+hrRIebEOClymAEMnGJWclC6S9OCWljsOJS9MEfusEUJaGEEVB359xp+ibj/+w4uXlKnkgK1PqpNuHwWtCuZ8m5xNglNR6LlOSs92XKXniznYDB0kVDYgFnenbhg0a1oeELVyaqiskFggFGsSJ4/HHa82OjJTjuEEC09Oy6ivXrng9IdSj1bjNH6T8o3tGgvW3EYccxk83LBaJFSkdGJlouPIdoJx9mIlshjliHVfmqRvOwAkpewg5TSs2WC1AXFdYj98q3IXHMETw4CbzFPg2vfsN8WIlBkoN3FygKhxWvr2UbyQslz6z8uC6Tf78dRW8/29s4nRAmJMVs19+3r6ZLY0zHb6Uy0XB90TNZR8nKRLC1ccRd716H6d11OCU9f7ylg6BQwEJxfkTlcG05B6LNCkjV6slMXnO9xhfQ+hBJtSvom5CzvEKKVGTFMoh08JRODO83PXN+A2GwSLReKJlk8FNHqei2TdTypMBaiLewI6tmm0x3aFNSzzdgjsaALlrQg7tKbcOVN9dK0hIvh8RN26YST3eke/J4796mgZ9sdomfLuCH1bOlGZnN7yrWFkm3QqiXo6puuRMt2gCRYJ8PYmXuKZGd4duFjBRux+2dvy/oierKU5eQGzX8MGDg+ytyKoKHnj9GTnZYQ9764+YNEG+VpEKL98ner5J5L3fcwy3v8aiGgRfvJ66oQk0MpJjfRqtiL/PIQolX1nIZoJxa82WfUs2XCSkYN4pYeRDSbWHiaEMVGA7m10tRC19nOLawUaTJdZ8vFlokcslK4CdeO2UY0wTpDl2KwztbukBZQhEAxhhsafyWqP0GyDY3ZSmzSxGhtSzYYQ9Qke1HOGlT91q0nO6DCEf0nFDmx81MkzyNNtEZPdloihGi51haxwqMByRlb8L9f3yuhqCDRDvnlmz8MAX/m2YCkfLqD7TIeKe2xiVbqrgzRTjbohc556MKJ1g2nDk9ZHfI5Pux5DdL3d6Z3tzS1yFm9H7/vUZmRFFJXLtZTTsx2YGBAKOKUX9FGJA/n+F2bCW3Z8kHRdbbxaZuQyJgZ8xe4eclpUlnJXtsKyVcbUyFcO2FlKhBtYt4eqZ0Vki1oVBY8s67ptmQzBYJeE5bxZNcgpbQFKTlbMXfhrah/vC9UT1Z7QaaZnuzSTZ2Ym74qqCfLLkKUVdMyd0ZPNiLB659QZHt2uY4W7pNE4pTMrfi7vOV4qtcuXxOiDaj2i7/uAT7k2ajaep2NaAta7RvtLisxmAiMeOAcy+I0ZOvOSC5oVfJ6tvciqbgJselbRDUka80BIVtJV5FVMahny2/f7lZyXmoBjcyhF0NCFn0hWkUEmmzp6aHL7+LsNarOlqUXOQ12nW2bunbTlmjbYS29266TLcfca/YjesEanJ92O+5+A3jaH0ay8vsVyeqM3EifP7yDZ9KTJcn+Wd5aWPM2BvVkWX+d34koLdxu9GQjEqcj2uSsHfjrnOV47Lh6vjhPLGZEccL/8E3ggzkbbG09m1DpFsuvRUx+tSHaSIHLhafcnKHE6rwn77dInEjijksOCGmwjWN0+nbEXfp9ZK3ch5eGgZN2Xe1Afy/6+1UskxOI9beRvFDq82BM2qE8IdpQsnXqbC+/CecXV9t1tg2wSu8yRFtyGFZuo1Mn+5HcVWj8w4BTJxtKsn5nc8Of8bpH8vzh3TubnuyctJVKtD23xq4A6IDlaVWbNLoaZT11P7PqOT4d0Ro92ckD3o/4QruOVteU57cgOWsX/jJrOX7ySnCOW3zmOTH2/XEIF2StlSxKRais4aofSbT2gh28+SMPwGAC4X5ozwQ71khiYJ2tNIhPozxiO+Z89TDiM7ch4cvfx6JbasX991qvmidCGoFgPCqSF0pNtDqups7FLvlxkW14ne1s1tlSxIEegunuOs5rlKxZXSer3cVKT5Z/IUiy/N08Y36nexdH8vzhuZxNT1bcxUwck0VYJZCpZ68DVunBYBhnDESr1mCjJztZwHsSV1Ajdc9Bom1FcvZufCz9dhx87GQo0TIloeKRdzA3fY3tJubCSzej6nwxOtHqSTDyAAzeRzgPqMYonxkV6rNSFM+FM68BsUsPqxhSRiWSS5oxy7cHs+fdii9/r0pcqHSFsYUcF8qT3coFGMmDx8+HQFMe4Sz8YTHbkDrbL35L6mzj8lRJxrQlWiZ+iJ7sNly46GY0PtEXoicb8HOZIcGqucKz1a56nZ0byXOI141nyOt1Wj1ZbsZKqBPNnuONUiObUKTzKDTcRHsG9Z1wkjV6shMKsWh91VJLq3JgbKLN3YOPLLoV1T9+0fF2CNHym/V3P4vZi1bZ2ZVaVNgQ7aTHmYj2LHq28pncGkRTSDqvHglXHUb0kv0irxdb3CZhBGYjJ3zlFng23Y9naNkOAT2SIMV1mTHb8OUnkoa2XkOJwCEAEu0Am7/7R9TZzrjsRqRmbUGsp3LaEi0beiSlrcVfeFai5nenpE5WPASskw30AINKVUlbevztIZ4D+4pE8jirniwFwYvoXmd9rNKTZdY2wdKe0Uj2tERr9GQnFegyJtGyllY4U3TaFdF+aMHN2Hzg9y6itWMMt7X+HjMXrJD0fabtW8Vk6FFitIZoJxfkAXXtiu339QOqy1BGQLSFuWA2IWYxy37qYGVWgOUpSUsPKuWQzGqps71waSvivnIbrrylRYhGFtPjRx1h7ogdJNmhkwp22zwds5W0fA6W/ohsG22WkXW2rImcrkRLi/4v8jdi7yNvOB2fhgYpt9dl18mekL/B36pjsuq6aj1ZRcQRO3jsZ9OTZRw7n88XX6mI1iKCATOKG221KD7D9vN7LkRr9GQnHCTaOG9VKNEWtEnHr4uu/D6WN/w01KLlg3VD3W+RPH+1IlpfM6KKWhClu16IaRxqPRminSRw74hHIVqFcB1bF9EyGSOtHPFL9okbmUQRV9IOK5cdpfjeAamzne2rxOyFdyLztgb8scsmWwrasq5WXKz22mMv3ETQ2NV1twqjf2YCRgjRBpO8dMxWWbV2D1sKkQ/7pdyJz8sLdp3tedlrpdaU3aIYqwkSbTNm5mzD/S8NCcEwri3nO+x2Vk+sNcfzY3tAOU8SLdQ1IGn8Zgj4qyW7hGi5keA84vkl+mqk9WRSXhnmZq9H9W9OOXqyUifLzVfvUUWiQ70O0eqYrKJV1p92TRqi5TFqqDG6tCIxMrSgzu20erLiOt4Pq+SA0pOVuHadqu7I2BV8ho2ebMRB1lYfO3xxQ8XNEhWsWuXZmD3vDnyv9hGJ4TsWLb/xbrwfSembVTswNram7qS30pZpYrmPqsOUB86nF2w1GcIPwGCS4TR6ttq1HPqwatK2kzZYN+qpRnxumdRHUs82Y8P9+FkAomE8KIwZqmd70q4ppBWnxmTWs7UTn067ARh90eWZsEby25UP44OLbkHSwpVI9VVK3FI8QpkVmOvdhf0vqwxULsZqBBOtIKQ7GUYAwwHl4uU94fH+ehj4eOkuxOXsFhdnYmkHonMqcVFpjWy4LrjsOzjwbMDoyQLI2/wznLdog6Mny40p50E0vYJ6AyxrqCsmG/6MjgVCuPo1/Lk1mBiojXVUYbs8J/T40KMRvWgrFq1/SLVhlDraYZXkkrbyHsQt2iofpMWTSEFbX4WaFIzXFtEsVpqTSrnEEG3E46wyey2IL+2AlVeFOE8NZhRWi+pPzLyV+MqmX+KRIbUwj6Zn+07PsG29cCHlz6emni03G9+t+Sk+mHEHkjM2ICqbEmdVmFnShJRFa9HxiorrKqLVxG73xZ1wouXxKDf28JDKCNaNOn47DPxl6S7M8JYrL1faXsxd3ISEy2/Dn6ffIuWAL/S5XOwRONwbK+dOyH0Zu54sSXaOpwHWFTscPVlRMPLWq05PRk926kLuH13G7YgubJN7To+PJMGl78El634km1axaAMB4I0AcMlNHYhesFlZqwWNI4m20BDtlMNZiZYye4zH1SHBFiGYW1qHmEXrYH3ldrFsmQDTPWxnIvcDXX1By4UJRIpoteONFuHU0bPlgkuLjhnZV5X/FImX3YTzCmswp7QRUQs24IO563HQtmhVhDfMghYNrYkcoUTL+0HyYObsowHg/yvZglm525GQswcXLGlC9JWr8OGc1Wh9FvjjgLLw1GYqMof2TgjJOgR7bnqycxeuF9H2+KwqpPgalJ5sbhWsnGpEFTLZic/ZaEQ7SvKiQWQhjGi5ljKERFgZe/Hfd9wjzxLnkcXJw0zSz367QUTfSaAk2oR8Ei3T089MtCP+uEHk4IyiBHbSW1GHSvJhws/CHaLWQj3b+IzN0ruVMVtabC+RZPWCpPVsB1UnKe1y1ZbDVNGz1Rbgk13A83QjtzyJpCvvwAX5uzBj4Up8KP023PWS8hj1CafaRCsWPuO1k4RomRkcCLr0ebyPDwH/WLQW52euwezcrZidtQkXZq1B3dPAC3aGrSQ/hf/KCBp6Tqpv3p2eLN3FyXl1QrIJnjqVLJZfJ8+L9CuWZyqMaI2e7NRAGNGy7zmtWVq1VlY5Pvm9TtlkC9FyV/7KEPAv11QjPnsvYvObRf6K2VTREqNlfCGUaBm/1THaEX/cIHJwRqJVMXlR/uF7TOAoaYaVXQ4rbTvmlNaLzih7I3/5xnq8ZC/Qp8TECaD/5NtTXs9WrHabbF8MAM8C+HrDY0j4v2/gb4o24qMLrsf9LwyK9cOGBuq89ZWwW1tO6AglWh4O7wiP9+lB4N8KbsdHs+/EBzNX4IKFt6D2KUiJF7uF6WzKCT+FcQ/7nrxLPdkkTy2S2UEvt1r0ZJPsOtmRuQ8aRuZuymAUomUmvugFZFfgr6+tEyOECZTWiQHguQHgE8W7kORh5mSbEG1MXoXUCAaJVmXQaaJ1FmaDyMXZiJbIrVftGb2NSFi8T7wdVvoupBY3I95TgbkF1Yi/7HZ4Nz8gVt07dLUN0VzzY7hPlc1waHexWphp8U4BPVu6wft75NzeHgSeJQDc2vkkPnjJVfjrK6/Bj57vFlLiYh0k2mBS1cQSVSjRcmgr/Xk/8FnfDfjAF5fiH33LUf+HAP5ox2/fHLSPfcIt8vEO14ZPx81dc5UkezY9WT4/tGK5sGo9WVXupRH6zBk92SkEF9Gy4xe1hWNzK0ShiT3RP1y0G88PAsd7h2A9fxx49CRwUe4mJPrqEMWMSV+z/AdataFE2+oiWv4xM1EiGmMh2sIOxC87BMvbpPRsPfVIWNIuHW5EzzajXPRs2dRi4W3NshBLDOukkp1zEDL4/dTRs+WGgmfEmCX1fJ8ZBpY3/gh/f6kXP3/2HVmkh3iaYZm4PPuJpaog0WKItKLitLTkXu0HvuD9Bv5l0bWo+9mrEofmvZV2g/r/smZ2Cty/8ejJSnYxZQNzVYcwIVlfnZTK0XUcLNNRMDJ3UwhOGMDWZmYzkpxKJDM2n1uDuTlb8Ngp4NVjPbB+/+oAHnkbmLloncRdVUlHC2JzbV+zlHuMJNrgHxrlAAwiBrrONoRoJRlKEa3In6VXi5atWLbciLFMIbMSMUXtqvtNdhVm+cpw3sI7kHVnk8hDsdaUsS1ZqdyEO5X0bF11uIGBXonDMjmKLvSX/cC6yg785plXlfVHpg2zZicj0fJ4+NVbfcCX85bh0K+eF5LhOZFkJW7JjmABNqaI9IYl74GeLPV3S1pEU1ayjNlZz1Mj+rKM0xmincpgv+9Qoo3KrlBymp56pGRuxi+OAs+8eQrWI8914eAzAczJ3oJoL0Wr21WjcE8N4vKqDdFOcQSbWtjvhRFtCEbTs6XrxMMYVRWSc7Yj9cpb4Vl3CH8YCNWzDfRS7DtUz5Z1thNLNOMcJNrBowp25yhJngnrhCTnqAnNRbTOzyZs2EQb4Hnw3qgIOv99/UQfHn3+9ZBz4bmpc/GH1JlG7mAXEbXB4KZQkyzdxYyf82tWZCze0IHzMlYrgQA2Jig+rModjZ7sNIdNtN5m+Vryljw1qo2xr1k0rO97CfjVs2/Buufxd9D0eL+owpNglYxTi2TQkWwljiALbZBo2ZYxmEkX/scNIgkjHni5p2Hu4xC4ybYVcaX77RKgRiQWNTp6tjnrDuGJfmXZjqZnyzrbSK+jDRLtOw7p8Hy4QGsoIrVJ1kW0oT+fqOGyaEm2NtHqjQDrR/VxilUuP3TVmUa4RavPk0lOcr7+YRFt59dvdg2JJUuS/ah3PayFW4J6suxdzLaKVGyR0JpNtEZPdhqCPay1t0IRrdOiNH0L2p/sx4O/fwlW089fxu5fnETswk2w8pph+fbB8rYL0TKjLkZMY0O00wYO0WqLNZRYnfd0f+W8BhW/LWYf1yYkL+mAxcYnl35fLFt2zjllW679fT3o6xtw4oCRrmcbdB0ft4lWZazynIggibpj1aEt/SYN0drdoXQZCzHyPPSGgUQb+VnjPGs2oNAZ1PLe4KDTHeuqnfdhbvoqIVn2J1Zz3NaTzaElo7s9uZ8Z9RydjmiNnuwUAzvnhRGt8g62ia531a9PYt/Pn4O198FnsO6Hb0nLKBKs5dsvk2kE0eYrCSBJnGGfTqfbySh/3CBy4V40zgQh2xbEFDE+Yff3tfVsZ11zEHEZW5F8+c3IuL1Bkmhe7wv2uqWlxCW6x+4mFbFDLEGWhdhdhGzCkh85H3Jbs3wNWlITT7Q8AJ1jq2KSQ0NDQjYEv1bDdQ7hiHCilQQ2vwpx8F4wzv6qH/h6xY+khEfcxQVtiKZIu9aTZZ4CBQLYv1iHUcZAtKptotGTnVKgApPXTioNIdpOWBm7sfXHb6P2oT/A2nzkcdx5z6uITt8Jq+ggrHxiP+LzapGYRzOY/0m7EVtCiZaC4YZoIxvOAqExymdGhfqs6NlyDngaEVV6AFZuI6zMKqQubsVM727MmX8bLruxZoSe7fFTAxNPMuMe2hqk2zWY4BV6XqMT7UhrcWKGlPWQbEc7EHlfk6rdn9l1jqP9l0gavP6MPUsPY7ai9StL9pvlD0l2MSsvxD0cpifLpBdxIxdy7ocT7RnUd8JJ1ujJRjzY35jeDk204vmQvKYDsDLLcMddL2Lzwd/CurP1l7ix8zmpjbRKDsMqOASr8MBIohX3sYtoOamEaM9lcTaYdDgT0Y5Rz5bKP6yzlazkojZYGVXSI5n9kalnm3jZrVJn+xwtW3YUkgQpahEwxhe+/EXe0KTjRnCExmfD/8/EDx7fUIjLOHhc/JkWQdBEG6wznRQW+ThHd0+fxKBJuC8PAdfsvBdzF96qBCJouS6+G1bJXY6eLGslRTQgt8YWkBhJsqclWqMnO+UgusIjiJabr4MiLHJ9+9NY3vIzWN+tfAjX1j8Ka+F2WMVHYOUzo+6g4zqOZfxtNKIlyRYZoo14yP1z7crt9/UCoetsR8Alsxe/7CAs1hKml6k628X7lZ5tRpVTZ0s92/m3tU0pPVuSjCYcjZFWqrucaZISLYItBuWchobFdaysXZ3EpohWnzPvodQHh/+6SBqce0NdOHn0LcmQv772EcktiMvZi5lXHYGVWQ+rkJnF+2Hlcg1UerIk2dSiBqSWsEqDz5DOwj8HojV6slMCmmiZaUw4RFt4WMRFrq57DDdUPQSrZOdDKKj8HawrNys3ibdD2i2ypjZBdCj5C4PJL6rmkhPGxGinBNw78lGIVuH0eraxS/ZLI4vY0nZpZCHxWrrWMmuk/MGps/VW4LyFy5F9RxOe7rEXanZsj2A9W006Ois3UolWd3jSxxRsDanvTdBtrM9Z9wGeDOegjztkvri8CPqY9f1R/0m7xJU1+43thzHjyzdgpq9SOj5Zi2jRurPtO2CVMqzWBiu3FinFDapznn6GbI+Q0ZOdXqDr2PKGW7ScC51i0ebt/jVKdj4I6/KNP8cX1j0iCh3s1RlfzNqgRlt5Isw1IkSrF2E1kcL/sMEUxKg6tuo1CH7vJm61OWPySLSvFkl5FZiTuwOz5t+J3M0/xG/oRubCJ6tfpOrZhi7yoYv9VBmjbxL0Rmeihz6WIImSZIN6smyRyZ8dHQzqyfYPKEuW/5kCCdkbfiIqPCkZO+1wmZrf4pXR89noyRqMBntuSJKcnXkcV9ggHcKis8twxc7fY8GOX8P6/Ibf4rOrf4WknD0i7p1YzDZijMFyB2YnPOlYrD3BZBLqLKvwP2wwfeAsGHZSh3g5Qhck9kdmD9gEby3mFtUiJXMrkhaswbytvxWyJVlOVz1bM8Y33IQfaqkG9WTp/j41ENSTpYC7NKU4cVRIN3fTI0pPdt4upHjqRSBAuwClu5Mzr8M8P+MhXIOpAdk0cb2zu+XZRmhcYb20L47N3oX/3fQ7/O/m38D6zKpf4t+XK4uWeqMJRZR4MkRrMAaciWg12UqdbR1SipqR5K3ERYsbkZS+EbGXLxfLdjrr2ZoxvqFdwkKyDsGG6smyCYWePQSzi0mwxwFct/Ugzk/bKCSbmFODGQVNiPeqhvB0+1kUvB/hqXGvhYZopzVOS7TUJa5BdPYefGrFI/jUip/A+tRtP8E/3fxDsWappRdf4LZo7frIUYhW+6QN0U5jhBCtdouFutnYFza6ULUnsxbtkmzOj1zdhtSsbZg5745prWdrxviGnhPqm7HpyXKOvcg62bKHkHLJ9eIuHk1PVuJuxWytNwrROhn6hminPWS9cxNtkxBtjLcGUTll+LubHxJYf/u9B/CJ794rRJuQX4M4nezkJtqQSaaJ1jTGnvawy39GEK241Ubq2SZTzSSnElEZO3Hh4kZc4NuDOfOnr56tGe/FsBOfzqAnK9uxQAAn+4elecp1ex+U7OLE7N1I9taNqicrKjyjxlCNzJ2BC7ZhoWO04u0tpBxiLaycCnz8xgfxlzfcD+tj37wbH7nusAjWJubXywfGSrSGZKc5nDrb0xAtkVOnyNbTiKTF+1QdYtpuzCptRYq3aprr2ZoxvuHacDmduYJzRQsEaOuWHZ+u2XE35iy4Bcm+KtHdJqmK2grdxdTjzldZpOI2JsLmvNGTNQhBCNGqZGEhWpFOrMSHv3OfwLr42kO44Or9iM2rRkJhQ5Bo8+sRxQkocVrtPuEvVy4TM9EMxkS0+W2IW3pQiFb0bL0N0g85qaQNVlbZ9NazNWN8QyzZs+vJvnZiQDo+fbvmEcReciPis3crPdkceu+aFLnmVCuC9SiCZcczyt7x524YmTuDULQIyWqi5XsMlUnZT241zv/aXTj/usOwLrjqAOYs7ZAejQnFTbC8NcoVaIjWYAzQDS3Ehcz3wohW2jIuqkRUyT7bjdyGKHaPyq5GXMm+6a1na8b4hibaMejJLttxr7iLE7zVas5l1Km5ScKU7OIG9WpbstJa1EujwxCtwZlwJqKtxcyrD2Hm1QdgpRa3ieskvkAtmhKbyLfjE04tratO0hCtgQsjkuLCLVo3RtOzpb6nl9metZjFmO2i5SjYdDeeGlJ6topsBzHYfcyJ2fb19YnVcnJgyGQdT+sRQH83q2MD6Oofkvi+xGYHh9HX75ev37al7qjCE5NTrhpOsA8tuzwZPVmDcWJkKCEUiUsOIHFJJ6zE4nbEF7YiNr/ZnjiGaA3GDjfRKrLVsfwzkK2LcOMXK6uCvyupuAnxmdswY/4d8G66G08HVJMBLppKbLwPCChyff3EgKmjneZDl/e8+s4pJ1nunRNd8sro/evDimQ/krsG1vxNak5SIEDryZbYiXpGT9bgXeJsREuvHWHFFbYjtqANMdJm0Zb9IQoaXN2h3BNK/5KgqWwwfeF2o4UQrWPZhkETrdbxpJ4j3S+cjLaeLXUcky6/BUVb7sWLFCGwF9WB/l709/vR0x8Qkj1BOdjw1deMaTOEWP2herJsJ8m5wZIx6snOSVupSDavVs0xyn1qPVm2VdTz0JXsSZyOaI2erIEbpyda1RkvurBdYEUxZib6imHE6ViyZyNaQ7bTGTpuFUK0Gu4FzA2py1YLXFwJJ6L9PvVsCzsw56uHkZSzE7MW3IHcla2yaB4NqNIfnfByihqixqKd1oNz4Zgtc8e22UN216fXBoHSLUeQOu92cRdHcbFz68lyQfS2weJ7OowxBqJVa6HRkzUI4mxE68DytamJR8hk024U2408YudmiNYgiPCJFlygXJ/TLjk9t1yCFMzstKSkogkxSw7B8rbAyq7BjCVtmJ2/F7Pn3YpFt7fgWTup5cSwItw+1bXRjGk8pPMThdt71aaLX7/QB3xt932YvWgFrDRqbO9TUnfe9lA9Wa/ypIwkWjWPR1XfCSdZoyc77aHWPfZz1whbDzUBW54WCEi4tkKPmjw6VhvuJglnbEO00xnhE8pNtKGWQDhs0s2qFOUfuo3jlx1C1OJOWFk10iOZbcwuLK1F9BdvRMmun+BpAK/Ylqzdo9Gw7TQfFAjQerKvBIClW49g9vybMbOgWq1PxYeV/Cf1ZD1NUsctfYwpbyYhspEke1qiNXqyBmEIJdkzEW0uibZZZX/qGJohWoMxQk2k4AQLlj/YWra2rJ6qtQ2Lb8mcalZSeyzwziiXOtukpQcRR8LNrIaVthcXX7MP0ZfcjLTlnY6e7VD3qYjXszVjnIP3vu8YAgO94u24esc9mLVwORI9FWpxK2Dcn0l4tp4sv/Y2C9HOLGkyerIG7wHsWOxpCDfKw41dEywrpxFWnnal2EQrv6Aels+1II5wHxuiNTi9RasI1k206lXNpeC8EpJNK0d0cStiS5REo3Qky65D7JJDquYxqxLnFdbgwvRVyFvRiucHpoaerRlqSKm0cy90H2vdkCQoNk8EexsH2FdR/tOpYaUnO/vyHyA+cydiGfOn8aAz3VnGw3hsyQEVmmBv4+IG6UUr89gmWTfRur0yzvpn9GQNRiBoeIYbHbLZy21QkI49XmYbNyvtUDaAL2Cpj9sFOAqcwG/4HzYwUHPEedWL0WivDnQMV7vy7I2ct0lk9pI9lTjPswtzFq4Q1Z9f25mlg1yLw/Rsjw/YakADelmevHq2031Qc163TFT3gpsmNqE4LujvfUtlFw8Cb9sZ6APSW7FLOJl6spS6owpPcvoOJOSqNooy79wZxSFlZe9y3XLm6WjGh8G0hHvdkveCmzZBLhtXNJJo68Vdx3gFCZa7wTERrWsxNTB4V3AWLDup5Cx6tnMKa5CcsWWknu1An1g27u5ArLNVTmWjZztZh+NZsO+dGtw5UZSdQnZEL1499raU8DC7+JVTqtsT/8NxP5C1Pqgnm5RbiyRfA+ILbE+K0ZM1+FPDIVobzs8M0RpMFpyJaDXZ+lQjleTCJiTkleOC4jokpm1A3BUr4Nn6I9GzFTcyl2c/0DMA9A4MyyLODlJBVyRh9Gwn09AuYSFZfhNgUxItFuHHEDs+DaguYBq8o7RqGZP9+tZ7MGfBekdPNjW/EXGeWlHhYVtPFfpyWRzhMB45g/HCEK3BpEcI0Wq3XKibL7akU8IZooaxYAdSvBX48FWtmJG9HbPm3wnf6g5xIbPV3nFK2NqL+FA/rdxgb+TQuKzRs50MQ98TGSRZJreRaOGXOyMlO8P2nRockDpZkuzLQ8DizYcw54pbkJq5C6neBhFtp55srK9O6cmScNlwR+ZZGNGGuPdGmZcGBmOFIVqDSY8x6NlGl7LRAEsz6pFS2oqY3CrRs72gtAHne3fjvIXLJRuZEnu0crgw++lKHmAMz+jZTu7hSnw6g57siS4p6JKvWSf71T2sk12O6EWbkOKrRUpBE2LzakQYhXqyIsVIJR6pnAifd2FlFyN+bmBwDjBEazDpMRaZvawaRbbeJqQs3S8NB6z0PZhZ0oKkvAp8cEkTYi69BYv3PILnALylS2u5YA/aUns2wfIr5So2eraTY9iJTxKTVZYsh75XJNbefvU1qfb1IWDZ1oOYPf9GzCiqkHkTX9SIOBJqVrnoyapmFHXBiomwOReeJR/+cwODc4IhWoNJj7EQbX4bYpewLKMJVkalzNWUpfuUnm3mXliZFfjwV/eLnm3Wyn2Onm1PLxnX6NlO7sF7pLKLtbvY0ZO1q7GYYcxOYNK7eMcDmLXwTiR5diKaDSmon53fIHWxLAGj8pioj9kydwlL2kesV0bmzuA9hSFag0jA2fRspS0jeyAXd9jCA3YMN7saCYv3I66UzQhqcEFJDS7KXIW8VW14ftDo2UbGsIkWxyXxKURPVhMtvRTSjOLHSLliOaKydyKquAGWrwZWkVIYk+zi/Hq7DrsOVm4VYopp2Ro9WYM/McZMtN4Gh2gJmYwFzQ7CJ2o4RvxhA4NzwLj1bPm+rxkJvroQPds/Dio9W/a0IMEO9510YrY9PT1iNfXYPGzGRI1BqZNlCQ+zix09WTYkYZjdFg0oWXMY56VvRLynRnk2itphlbC9IjPVXTXYrnkVXKO012R0hM9HA4NzwtmINq9JwRCtwURivHq2YtGyjtLXKHq2CVnbMXPBncjfcq8IEdCyHfCzg5RuWqEykF873m/qaCd46PIe1snqZLV3jnfLq+jJDgGla4/ggxlrYV25RcnaFVBxZx+sohZYRc2qJMzoyRpMFAzRGkQC3G68EKJ1LNswaKLVXX90Z7PiDljeRonfxmTsQMqVt6Fk2/14xY7ZyqLu78fQ0DDYMIok+3aPIdqJHEKsg2492YB0inL0ZLf/COdnbII1fxuiveyJfUhkFKWNog4haIlFp3RHzavTEe2IftujzEkDgzHjbETLVqCEIVqDiYTMt3Ci1XAvoG649GzZOSq2uE0tuulMkOnA7GsPITF7B2bMuw0F6/dLghT1bE8yEdmOAXYNGj3biR68F6fVk918N1KvXIGYnEpY+UE9WTU3GH/lPKCXw95wjYFonZptoydr8F7BEK1BJCC83GLUuaUnsJ7MLj1bZpeKCIGvOahnm1WN1MWtmOndjfMX3YnMFR140a6zPTYEnGAv5KAOgRkTNLjJGV1P9h6pk7XSt8IqbIO1+Ii6r3kNSChqQ5x4MijePhrRqnk0qvpOOMkaPVmD8eIsRBvlVTBEazChOBPRhloi4bAndkY5Yljq420M6tlm1yJxSSfivbWSjRx36U1YVv4LaUD/2pDRs51Mo79fWbGOnuy2w1InO7OwTBEha6iX3qXiXF4Kt7cjlkopnhbEMlbraGgHSfa0RGv0ZA3eaxiiNYgEqIVxHHq23kbEkFxZS5leJnOZerbxlN/LrpX3WGcbf9ntyFp9yNGzHew6afRsJ3qw1Kq3B4H+YZee7J1I9O5WdbIs3/FQ97UFVk69KpPwtsLKbUJyfitSKaEoIQadhX4ORGv0ZA3eC5yFaLU+rSFagwnF6SzaserZxi87KI0saNXGlVJWz7Z2s2oRXXoAScsOS53t3IJqXJC2Ep6VbXiReuHnqmfrqr8d/TPTd0ip8ojrpRuFqOuls4qdmDh/Rj3ZAHAqAHxj272YffnNiM/chliW7HjtOtmCesQsZZZxGywh1n2w8lqQlN+K2DzGWIPWrJtog2uUywti9GQN3muclWgVrBH/0cBgEkBv4uRVL4ajvYa7kp14na1n62uGlVuJ80qbMDNrK2bOuwOLy3+Nn9vdhtx6tmQEupWP9qlXsXWFQdiLN1TPll+ZZKrgxiRIonYf6UC3oOfkMfnZ0UHgnWHlIu5loWzXW/KfXwaQvubHOD9tE2bnliEuu1wamCSUtCKaTSdIjFLCY2cZ6/vqTpobZf6MCmeeuOZN+GcMDN5L2IasIVqDyIWzYNpJLaPo2TIjObagXvRsZ/oqkbBoo+jZpu9+Ar+1yZLuS/IDiUI3s3/9WL+LOLR8myFa93Bb9iGWqiZaW7ThtaNdjp4sE5+k89PwII75gbzNP0NKZhWsK3eKCk9cbo3I3NGT4cjcGT1Zg0iFIVqDiMeZiFaTbU4dkha3i7pLkrdS9Gyty5ZjZsZG5O/4qbT3Ix1w8e8eBPwMGw4MC4uwg1S4G9S4joNDu4SFZB2C1RsS9X6Pf1iVVA0r6OzidwBcs3EfPpC5RUg2Oa8Oc0vbRU+WLRStvFppoTjSUxGaYTxiThgYTCb4GhVG/MDAIFIQQrTaLRiqZxtd1IH40g61cGeWYVZhjZCt6NleeTtK1h+UOlvq2R4d0KQBBNgDMKQ3sjsOafRsOfSGQ32j3cUqwYxXhqTaNaSu0vDwsHyeJPuiX+nJnj//VqRk7ERCdjVSfA1I9NYjhv2JfexR3GD0ZA0iH4ZoDSIeY9CzZcmPlVsniX4zlrRLyU9s9h5xI5/n2YXz5t+JvLVHJFbI5gkn+mzReD/dyUE921AL1ujZBodt8Z9BT/ZUrziL5evneoBl2+7CrIXLkZC1C0meWiQx4S2nSlzGCYXNInUn99XoyRpMFYx4w8AgUjAWmT0mQ+Ux3teM+OI2WcRJtom+OswsqMXc/CokfuV2fLXqN1Jn+xb5U/jDj+GeEyOIVoYmFtG0nc5E69pwCILXStzFtGj7lPwdtyTs+LRk80HMuOL7SMmvls0P5Q6TipuFZGnJ8v6I1J2Q7EiiDc9SD/+5gcFkQlRBs8AQrUHkYixEW9ihhONJtovKQFnI1GWdSs+W7f0W7cGHr96HpK/cCs9a5UYWPdvugWBs1iYQGeI/5ntsdjHN9Wxlw6Gyizk0uQavVgCBYaB7WGV4X73rfsxNX4UZ+VWI0+0TvaqEi3qyVm41rLwaWEyGKm4WhJcTGpk7g0iCIVqDKYGz6dlaRftUo4PCNiRcdRhWAQm2Vgg3pqhd1dmml2GWZy8+lL0GResP4Dm/anTPNo1BYh1Fz3Y6Z0JxaKIdVhnatFodPVn7GvFrbl6Wbr8HSZffgujsMombWx6WXhFNoiPLeKzWlWW2sbTW9PG+GqI1iFwYojWYEhi3ni07DeXUY/biNqTm7MDcBXfiaxWP4Gm/KkfplqYWgxg8dVTFbW09W+0end5cG0B/N69SAL2DStpOsrf7B0WaUOvJlq5vx/mZaxDvqYL0LC44AKuQcne8L/zeTnhy3Vd3w4kzIXw+GBhMJhiiNZgSGK+erVhX7Enqa0Rifj3i0rdg9oLlWLLzhyJEQMu2q5uJPnbTisFBIdd3ugKmjtbebLz05nEnB/udE13ySsv2ZT9QtKYFF6bdAeuK9eqeFB6EVXgIVtFBWMUkW2aJ68zi4H0dC9GahhMGkx2GaA2mBNxuxBCidSzbMITr2WbVIKF4HywPU/GbkbK4A9bl63B++mos2fGguD0lAiku5AD8/YNSZ0uSne56tiRUsfpD4rKKZHndFm+9SyxZa8FmRHvrEbvkgBJu97bB8nDj0xG8D07pjrqvpyPaEf2uR5kTBgaTBYZoDaYEdNwuhGg13Au4Gy4929jCFslGFgH57HpElexHcmk7krJ3YOYVt6JwndKzJaEc6wk4LuPjPcpNOp1dx2LBDqtrw7QwXgtek5f7gdItRzBzwZ2Iy6tEVGE7Yor3q/g4s8C5qcnjPRpN5i54X8OJ1qmZNnqyBhECQ7QGUwLh5R7BBdr1Oe2S1O5Jl55tChvWZ1fD8jYjbulhWPlMlqqTEqCZebswd/5tKNp8D17RIuUBoGcIYD+Lac2yuvOTXRKlOz492w0s23pYSJaJT3I9S47AymuVzO/E4lYp4bFYmkOt2RFEq+7jqOo74SRr9GQNJjkM0RpMCZyJaEMtoXDYpMs+pKICw3KSfbCKO4R0pcYzvx4XFtcg7ks/wHU1v5OmFi/qXr0BYKCra9qTLQUCeD1Isi8P2c0o5t2EVJ+yZIVkF9+jLFhPkxBtbH6jciWLZ2EkyZ6WaI2erEGEwRCtwZSAWpjHoWdb3K60az31sBbtldeUJQcRV0JLV2ncfmBxC5IuuwO+DfeIG9kRIhgg0bqjk9Ns8Nz7jwOD/XiLou1bj0idLJtRiHs4vwOWrx1WMbtzUUfWdhvnVCPRV4Mk7fp1ssDPgWiNnqxBBMAQrcGUwOks2rHp2TYhaslBKTmhys/Mq/YhvqAeVla5WLnRhe2IKz0ohJuSW4EL0lZh2YaDeE27jf3shjSNG1bYnaFo0V63pRMzvnwTEnKrEVV8EFYeJe7aYXkbEVvabsdjmeHN95qQUNyIaF+Nuo82yYa0V3R5JZxNkdGTNYgwGKI1mNLQMVp51YvxiNcWWKUHpMwktrQVicX1iM/djURPGRILapVLuegALF8HEoo6kJK9Gxd85UZ8Y+sRPP1WQJR+prPnWBKfBoDStS24cN6dOD+/GVb2PlhZB2CVHpLrHF1Qifj8cpEpjPdwY0TCpYu+FVZxaALUWeG4/F3kG/4ZA4NJBEO0BgZc5Nk5ykuFjTokFtciJb8Cyb5yxBWwFWCdcn0WHURcYQdm+6ow85IbMe9bu3CCZS3swhjOPtNo0IXOuPXnrt6M8+atRtyCvUhd8gCiFz8EK7sRUUs7baItE4lCCgjEMAmK9cwlNhinDb8vBgZTBIZoDQxoHdGtSRmr/HrElzQitqAGUV5mIVOwWZWhSJJUZhnmZm1Bxh378OhR4JjJOpbynlMAHj0OXHlDLT6YtQ7RC7bJpsQqZvenfbKZocs+Nr8a8b5qxDB+K/FWZn+rzO8R98XAYIrAEK2BAR8E9tctbkIM++3yaza499AtaVu7BW2I99Yh+vLV+L8bW/GsXVM7TBHzU6emNdlKmDqgGla8FACuuGEv5sy/DfEZW5HK2HcuY7Ksn6W7uE6s25iCMsQUlIf2pzYwmKIwRGtgwBhfToVtYWmR8TZYRZ3KGmNMMacSSemb8YWb9uGxIeAtEi19pgN2S8bpnAxl92A8cbRfukE93Q985fqt+HDeKiRmlCHWy/j2EVj5B2EVMYmpHNGFexBbsAcJ3mokeOqUck/4fTEwmCIwRGtgQKL10JVJvVpasy2wSvYros2ugTV/O2LmrcYXb92H39kkK+o0A4OAvxcYmuZ6tGLSKrLt7j6lGlYEgEu+tQ3np22EdfkuxHgO2kRLz0E1rKIyxBaUIclTjSRDtAZTHIZoDQzEdcwORa12w/t9yl2cUwMrYycu8GzHl25qwWODwNt2UwbxFLN+dMgP/6njhmi7ekRoAcO9GEK/uJEfPQl87tpduDhnB1Jz66RcR2KyxczirkV0Qa244+O9LLkaeU8MDKYKDNEaGDAOK5qo7MHbJmU+8lCkbcUHvNvwpRsb8Hg/8Lrf7ms8xHoearAOYrifbuNpnhDFc+c16e+Telqat939A5Ig9YwfuPQ71bgoezNSPeWqhtlJgArWzI64JwYGUwiGaA2mBaILWwTxpR2IKWK/XdWNSH3NzlAHEXX1/bBKDkhXqPicXZixaDkuu7EGf+hTiT7Kiu1XIud2XFY4ZprzLIdz/vxCab3LdeF1ex3AF7+9HTPm3YK4jO1IKt0vyVGxy3i990tXrnOqozUwiDAYojWYPnCRKyc9X4VoqdhTehhWNpOi6pDkLces9JW45IZq/HHAlscjc5Bgh44DQycV0drNGowerboOYu3rnQfhItvHe4HMFY2YvXANYhbuRXLpPbCyKTRwANayg4ZoDaY0DNEaTAvQmpWaWG3F8n2pkbXLeKRhRYM0VJiTtQ7/990K/K5LkyxJQ5MsoXobk0SYFEVMZ6J1Xwfp+Kw1BCVsrWK2dCOTbC+/sQlzF21F9KIaJJTeDauoDRaVkwzRGkxhGKI1mB7wNTpWrDSmyK1V8DYgylePGG8tknP3Yk7GWlx2cxMe67PrZMkVFA0guYol223HIRWX8KvpbtHy3HkNJBOb37vcx2qr0oXeQI/IC7KD1CXfbsLsBVuR7K2HlVulMpFNwwqDKQxDtAbTA9nVMtHFsqUL2VMvX8vkz63EeT42WbgDX/pOBZ4cVCRLIh3299nxWEIp9Li9oyY+q8YwAo4hSwSvC+t+eoWK+f5xJkgNApd+tw7JV9yOmb4y6RZlmlYYTGUYojWYHvA2iDKPTHb76zj22CXpLtyKC9JWYsEtjXjSD+lfrEh2ACDRDpMs1HvaRSrxSGEYlrTw59O4vEfUe9jwOXiddMxWWfoBYJDXcRAnuvvEjfy0nwlSZfhQ3iZY89Yh1lc78p4ZGEwRGKI1mBag9apjs44LmdqzOTViVf3vtyvw1IAiWSlQ6TmlLNmAH4ODg0KutHLp/tSfUQlSXUDgpNGjHewFBukmZkzWL9eL9ca8TpIg1c/MKJJxN7p6j8u1fA7Avy3Zjg/m7pAOUeH3zMBgqsAQrUHkg4k0IhpOIlUapkGxd36G7uIGG6rFYlRelViyJNnP3tCGJwPAOywFJcn6h4RgSbQD3SfFctVES5LlawjR2slR03YI0fbbRNuNYfTL9dFEKzFb8bMPAgPcqnTjpL9PruUrAP7naxU4L3cbEryViPXZIvBsHCK9kbUYvH1P8+uC/ZHd990kUxlMYjhEGxRYfncI/8UGBu8buNAWH4bl3SftE+MKmhDvqRIriV+zV7G1+G5YS+6Fld8pruPUvN2YteAOKeF5fECpz+jYohp0hzoZPU78ke7QkM+J69hJsZ2mgxsOu4mHnW48IobNf3g97c/okiBuYNht64vXVyJ1wQokZO1E8hKKEHTCuupBWIWHpFMXiZX3M9lTLuVXQsi870WHFGSTNcrcMDB4PyD6yC44P1NNWWQNIsKJ81wx4g8bGLxf4CLr6YCVxxhsKxIKG5GYV4Wk/FoksLViPus174KV3Sr6qLF51Zi9aAUuu6EST/UHSdaMiRkk28f7gPRVBzArbTWs9B2IXXIIVg51ag/LJolrDIk21VMmZBvvZUyX7TIN0RpMApyVaJsVwonzXDHiDxsYvG+wd4z5LUKs8QX1iMmtEqsnurANlpeTvRNss8gFOiltHT73zTI82h0kWZM5PHGDli0dyo/2AV/+QQNmp6+BlbEb8Yup+rMPVjGJtF3WGd4/Ei5flRCBcR0bTAIYojWY6uD846JLSzapoBHRnhpYuTVqbpJoScJ5DSJ1l5y+Hp+/sQm/7QlmF/f2dIWv/Wa8j4Pu5VNDyoX8AoD/u74aM9LWINlXpYQdJFbbLqQq9zqfQgQERQlq1YbKlAcZTCQM0RpMdZBk4/IqkeirQpynBlGUXStoRmxxh7iSSbop+dWIv3IFPvPNSvzerywosWT72ISCMnfGeTyxIyAVt7wvTw0BX/peFZKvuBWpvkrE5jfaZMsOUqovciw3Vq6YLck3fF4YGLxvMERrMNUh1iwX3YI6xBc0IK6oFXElTKBpgpVVjtj0bZiduR6XfL8Rv+kFjuqkpr5uoOeoyRqe8BEA/Oy45cexrj7J6ibZsg3mh7ybYS3YpNzELrLlvaU1q2O2hmgNJhSGaA2mOjj/mF3M+GxMUbu4i8WSzSxDDKXu8jbjC98pxxN2nWzfMBXdelS3J4q290/zOtgJH6yrOmW3tgzgWM+gkO2LAD69bBM+7N0khBpCtrYbmRsswgjHG0woDNEaTH20wMptkGQnmcyslc2pRvSiLUKy//X1PfjjYNBdrEhWdTISq3Zal+ZMhmGX/Qz7MdTP6luge0DVK7PO9vPf2I0P5KwPI1sFtf4YkjWYYIyVaKVLjjRYb1TxLXbSYW/YUUh1NIz4wwYG7yGk2JtiAJynhC0SIL2Li9pViUfxEZWh6mtGoqcCM9PXivuRbRWZXSy1ryRYicmqdoGOvFvoym/G+zjcvaPVIPGqTRHJ9jUAX/pOOWbMu030bJNL22VTFbX4LlgFB2AVdJisY4OJxdmINo8JmU2GaA0mP7R4u3xP0nXQDIsi4rnMTG2T2F3KorX44g31+M0pZckqktWi7Sr5iQs57SciuMib8X4PXvtQFSTd2CLgkO1jomfbgTlpKxGVtg1Ji/fBymxUdbaU2zN1tAYTCUO0BlMC3gbpT0wxAPnetmrlaxKt1FruQzJLfNLW4dNfL8evuoPuYmXJkmSVzJ2032VZiS3kZiK0EzdIrnrDEyrWEEq2T/QCl91Uj/MyViM6c5eqsy04BIsi8lL+M8q8MTB4P2CI1mBKwFMf7BfqkrlzFHk89YjJKUdKxgb8z/ca8ItTwezigf5eZcWKJasSbrQVZSzaiR+89m4RAmfT4yLbviGVyPYS9WxvqJawADt/yeJVdEA1rgifMwYG7xcM0RpMCWgLluA8LWgWmTvRlM2rwpyCCqTOux3//Y29eGxAWbLMLhaS1RJuw6rHLhd2Lt9ESD9eMyZkhN8TfV/UPQn2m+amiXq2TweAL91Qi6Qr70BqQQ1iC80aZDDBMERrMCVgEy2JlQSrSZbWbVTGdsxeeDsuv7EKvz0V7Pg0QKm7QTvDWGccj7CaSMDKyjVjoobWs1UbIX2fgnq2/DFt3gCOd/eLG/mPrLO9vhoX+7ZJnW1Q9cfAYAJgiNZgSsC2ZhmnjS9lx6dm1Z4vt1ak7j7z1W34Q4+K5Qmtsi5TJOzoMvbLok3XpI7JquQoPzB0XMEmYzMmYMh9OKkQlqSmE6QC/Sq2zs+SbOmxeJZ6tsu24IPerSKxN2LOGBi8Xxgz0bL2cMxEq3Q+1avCiD9sYDBWjEVPlj2L+Vpgx2SzymAt2IKUvN34u6t24w8uqbsABcYZj2XHp146GwMO0ZJknZisNKwwRDvhI4Ro/SNitnKvRB+4T7XMpGVrhwdeBvC5b+zGnDxFtkbP1mBCcAaijfaFWLRMKGlClLdZwB/G5LcK2SrCDZJqtD1R1auCVWDI1uBdQuvJshaWAgBZlZLYxJaKicVcBNtUvSTrZEuPCNFST3b2wjulTvaPgVFUeHQijd3xyR0HDIn/6fitcR1P4Ai9D+662pGx2qA+sNazfYtCBN+tQPK8O6XONmkx62z3wVp6P6yCg1Jna/RsDd5PuA3TGF8TrJx6Bd254uxEGyRXQUGtIVqD8UEsigOwig5K+8QYb63oySb6ahDtrVc7QYq255Bw9yHBV4dZC5fjy9eX49ETKkHGibmaMe0GyZZ1tmkr94fq2Wa32XW2d8mCZ/RsDd4vuElWiJad6witAH/ORGssWoNxQ+nJsj9xfGGz6MmSTMXq8Noul5LD4gpMKmhA4qK1+Ox1u/G7rmDik8kanr7DrWf7lZsaMSdjLazMPUbP1uB9hIrFkjdHg4RmiXET7Yg/bGAwNsjuz1svOrKxeTVi0XIRZJ6A6MmygTwt3dwqRbLfrsEvTgRJdtDPSJ4Z03XQjdwVUHXTFCJg6Q/rbCmNyGQ5q5AtGo2ercGfEmchWptfRxItJ6RNsiNjtCMJd+QfNjAYG0iqdBPH5pYhKrtC9GQlGa+oXaxckvCs4nokzFspHZ9+168smGB2sdGTNUN1kNJ1tmxqkXLlbZiRXyXKTkbP1uBPCUWorQ5UAxUXSLbE+IjW7AYN3j1ItOzyE++pEmuWJEvRds67qLxqJGTtRNL8FdK7mG0VdccnUXrpP2H0ZKf9COrZ6jpb6tl+8fpKfNi3xejZGvyJEUqyoxKtBkt7dHkPcXaiDcXIP25gMDaElPMUtgnJip4sXcXZu3BBzkb8x9Vb8Pte5S4W0Xa6i7We7CAXWUO003eE6tke7fY7erb/sXSj0bM1+BNDE227gxEEK5UTbYZoDSYSLbC8zWoRLKLF0QYru0pE20my/1i0VvRkuXiSTv0DfXbtZb+tX2pKc6b3CNh1tgO2vjDQ1a4ceaoAAOXASURBVD8s84V1tv/79V1Gz9bgT4izE21UYTuiitpgqX6hDbA8tYgrYuP2GvXqYePuGidd+XQY+ccNDFxg5zH9NTd1djtFdnqSrE9fJ6zF90idLDONk31VmJG2Bv/7rb0SczN6smacbhg9W4OJBROH22ySbVVfk1hpMEjVRAPiSzulo50VX9wizblJrPKap5p1W14qpbBWdiS5GqI1GCu0SLt0dbKJVr7mzz2NSlPUo+JncZ4azEhfLzHZXx5XCS5OJyejJ2tG2OC9N3q2BhMHTbQqPhsk2labaOuQuKQTiUs7YKUsbUfS4lZYnmrEFNQHCZdE62XCUxi5hqcvj/jjBgZBOKLttvqOfk9+TqJlrWPRfqmTjV+wGv/5jQpJfHpHN6MQS9boyZoxcpBcjZ6twURCSNUu8eHXsQVtEnKVtS6vBjOvPoCZV3fCmvPVg5h97QEhWinX8dYhpoDx2nqBIVqDcYOTTotXMPZfxPpYRb6clHF5lUhYuEbqZH92IphdLIlPRk/WjNMM3nujZ2swkQglWq0VQKOiDlZeFc772iGc97WDsC769r34wLfugeWtQZSvVl5p2QYTnkYnWEO0BmOGJlrbbaxdybG+WpxXVCV1j+z49Hu7TlYWTckuNnqyZpx+hM8JPS+Mnq3B+4ZCJnOqr6MKG2VOkT+jvFQYq8RF37gLF33zMKw/u/GHIEiwmmxp2ZKVCUO0BuOB4ya247XytU28iZ4yzJx/Ky79bllIW0XJKDZ6smacdRg9W4MJhhAtM9obEFVYj9jCBsQU1iHaUw0rrxwf+979+Nj37oX1F7f8GB+/9ScO0epmFCRZveMbnWgZADZEazA2OJnGjNWyPZ6nXvRkP33NFjx2yqXCQzm0oVNSJ8tF0ujJmnHaESKzZ/RsDSYAhUysY8//uhFEG51bjr+5+WH8zS0PwfrbW3+Iv7n1R3byU70wM4k2jn1BxYXMX0hCVXVB4YQ74g8bTB+MRU+WCU++ZqknI9HGeGsQm71H9GQ/mr9B3Hm6TnZocEDFYwdOAP4usUQmt56sneVqxwM5aFlpjPhM2Gcnx+CxqGMatqXqgnBL1GnnrPpef3ZCRwjRGj1bg/cZdBmzFNYukaXLOLaoXoiW7WSjcyrxr3f+CP925/2w/m/1w/jc+l/CyqiCVbxfFsf4okYk5O5WLcp0oXch9R3Vzyn/oy3dEX/cYPpA18FybrA421MniU3SVpEuFS5a/FnRYVj5neIynp1fLnqy//31XZGvJ8tjdJK11PFqOnKStPRn2C6ScGqBJ/C4ncFjICX1YhgkKlqFanPDV37P9/VnFJj5rT47NOFka/RsDSYQsuFqk9pscqLMDV8lrIJaRHnbYGVU4HNrfogvrDkIa/66B3Dp5l8popWJ0y6LZHLOTszw7LGJdp/Sb5QFlUQbTJIa8ccNpg+4yAiRBvVkE3Irg63tvC2wSu6ClcsFTNXJsp7xku/sxa/eDsZkI3aEEa2OE7pjhEICk55oFXlqktUgmQZJlj4FQpHt5CDa8Q2jZ2swLgjRdsLKb0est0WUoaJ85eJGtrydsNJrcPm2n2LR1sOwcrb/BGm7fw8rs9oh2tj8RqTk7kJq3m5DtAZngAopkGSplEK3MMlU7exYS8afd0p7xZSiJlUn+9Wd+DVLeAJhlmxEDrfrOGh9B60pbaHbiVt24o62vibHuWtXcNBzEPQe8GfaotXg92pTMTmO/90PbiaMnq3Bu4YmWp+LaBnzd4i2Chllv4an7H5Yy6p/i4K6Z2Fl8gP7RcOR8mQpeXsFo7uODdEaqPtPdzEt2ThPraMnK+o7sgi1SYyW5JuUtg6f/kYlfvpO0JId6Kd1FNlDE44barhdlkHrVX9GE/JEj/DjCT0uvZHQZVbBjYL+v5E8eJ5Gz9bgXUOItiOEaJXrmN48RbSFdY9jad2PYd3Q/gdct/91WJllyvrg5PLUi5skOVe7jpkcsF8sW53wEkySGuUADKYFOA8ocReXVy5k6p4XJFpauTMKa0VP9j+uK5OOT7QgxP4b0G7UyHUek2hoFTmJN/Kmm5jUubktRbfFONFEOyrBavYkl/LrABv300VOqF7CEc+wIcPo2Rq8S7hitLFeej1ItNUO0UalVeCrnc/iu/t+CWvN3c/hlvuP2kTbIe3wuJtL8VYhMddl0RqiNQgD5wETn7jwcHcvrcdEkacB0Z4a8YgkL1iJz3+3Bj8/Gez4JLWNAycBvyrLiNRBYtJZruosSETublYj64BVopH6vxPNV/z7buIf1iTqGOIkWQ3X+/pzE30C4x5Gz9ZgHJCwwehEG+XpRHTaXnz/3ldxx72/g7Xzhy9h/Y9PIiZjl/wHq/gArJxapPhqEZ9bpgjVNdE48VQqPNncEO10hiw6hc1qMWIJT0GrgCSblLNbpO4+fc1W/PqkshgkyYbuYmrJEv2RT7S6blPOQpKjuoOJT9JQI0i0JGW+Bs94YhOiNNE6yVsOyboJ1mXFng4RO4yercE4IBatkvqM99B1zHWwxibaDsSm7cbqH7+FLT9+Alb1j1/Ajp+dRHz6dvkPQrRZtWKpxOZW2JarXVuW3yok6xCt1NYasp2+sOcAk56IApUURUuWJPuJnNtFT1a7i4fF/TiAwd5Ttn7oxBLNeIebaBVRaaJlbedIotUWrXCTk0Q1cdeAxxHMMNZvjl4bHGKBCyEHlXIidxg9W4NxQAzNINEyrGDl18AqVEQbv2gndv32FGp++yysu594B42P9yMlc6vKFKXr2NsiMbfkAqXeo5tV8JcaojVwIKUN+1UJT/EhsWbZQzZp/gp85qvb8aR/auvJ8rwcAvUPKeLpPa4abgR60XOCGkS21TgM9JK/5B0u8BSxV5bURA0eS08gSLSDbBiCQfR2cWukMpFP+QMh1rjzOX9Q6CFSh95AOJsMnovRszU4FxRQnawNib4WxOXbXaKKWxDjbUf8gq1oenoAB556GdZPnn4H+58awMzszaoHbdFBlUXlqxPpsmAsVnX+0dl2ynVs0tunNXj/SbJ5HZJEl+CrQ2raOvzPt6vw07eUJatIdmrqyeqFmgoxyshTQczAkB99PWwCAZzo7hOSlQVdOMlusjDEXs4TS1Q8Ph2jZSlPdw/zwVX5Do/3iedfkY3S2wHghW61aWKW7pBYsr3w9zLqHtmuf71RUvPQ6NkanDuYmyJES0O1sMEh2tRFW3Hw5QAefPE1WE+81oUfvgJckLdFhGqFaAv2q4zSMKKV9+zU9mCrMkO00xay0dov4YbU4mapk/23a3fjkePAW3adrLJkp66eLMmV59Q3OKzqMvuGnU1Ex30/xh9fehM9/mFlyQ7bVq9OmJoERCsWqv1vQI5HtTJ89o13UPzdW/DQM0fFjfo6E4VsshULvecdYDiy7yDPU9+r0Vz6mmyNnq3BmRCbr4iWCVFsx8i2jNGeNszN3IGH3wF+/dbbsF4/6cfvjgMfyt8OK6caVuEB0WkkwcblB3sdS7Zxfp1TtG2I1oCI8jXKnGCd7H98vQIPvwW8rbNrp7yebNAC4vm+OaAyq0lMLY88h09eno9fPP0GumyLV+KBozSvmMhBS3ZwiI5hv2qtODwo9+fJd/rw/9JK8fnFt8piwUb8r9gNHnjflEXOzVNkE63RszUYD6THsVRfqDaMimhbEZ3bjIu9e/GbbuCZUydgdQ8E8Lwf+MvSXbCyq2wL5bAIBrBDlJtoxZ3sMURroODWk/30tTvwq1NqISbp0H3qricNWk8K4kqN8BitItp+2VBwsWbv3OcA7P7FSVz8la/h45dfjZ+82CuWu5znoB2XlTj1xBJscATgHyBpKpohsfB4Xx4G/rPgZlzwxWvwqaWbse9VRba0bIVo+XmWaEUw0YbPST0v1ZzUtUxqPhs9W4PRIETrrReijWYyMWVBqbed04S/LK3GMwHgLX8frMGhYVkg/v6qMlg5dneoYjaBDxKtWLN2WU+St9IQrYGABfvUk/3St/fgl8dcvYsHacn2STanfOuKhQWtBtuymzSE8y4GScZWGaIl+wKATb/ox9y0Ffhw7jr8ecZNeOgV5X4Uy12IVm089AI/oRuNYR7OAAJ9PC6VCMQ7Jrqt/cA/e+7Eh9KXI+XSH+DfrqvF/ldUgpDk54q/nKUxEXz/dLzc6NkavAsIyVLRyVMXSrTsJ5DdiL+/uhGvMq8Bg7AYY+IC+a9fqxRZH9Wb9pBkILNUw020JNhQomVtrSHa6YpUzx78x9Wb8dtjwDE7W1N1fGIdaS8CA72yaNECmpJ6siTaQC9Onjwp7vJ197+CGQtXi0JR3KKNuDBrDQ69qNzJcm3EdTwocd3QJJwJGmQXJnAxS8tP1lXHRK/EH/zAp5bswMU525F4xTrMXrgOn/tmA448pe7lQDfvIV2sEUy0Mg+Nnq3Bu4Mm2qi8aiHaKA/dxkGi/devt+NNCU+QaAeHZKf26esqEJ+9V3W6EKJtsl0jTIhSfmju3lTWsW6qzUQAQ7QRC2kxF8wc1xPH0d2Uz9jN0+1YlPZqkGQvzl6DPwwA7wzZ1pnUybIRxXHVjGLS68kGh2NZqmBqME6n+CfEtag+x+8CYOiFG1U2fvmYdy1iFqxXLfoK6jA7YyPanxoCi3yUJa/ckX7/kFwXLuYTbdE6HtKBQQSGgkT72x7g7wp3IOnK9fjw0lbM9ZTB+t/v4gvfLMePX7G1fNiqWl8v+0t3SCB4bvqPBD+nr+fEnr/RszV491DrZa0QbUJRh9TTWoWUDm1AQmYFPvPNRvEW92EIFjeknEK5qw4gfv5aRIuPma0YOQkaEF1QK78sWJxN8XcKeLfLqxF/j2DwIS/cL+o6JF3eZy4ahLSWk0Vgn10ne0TqZGf7KjHjytvxmWt3itUT0XqyLkJwjk3Ihwuw3b1qOCDlOSQWnisX2oD8hy50d5+SBffmu17DnxdsRdz8VZjpq0ACPT7ZVZibsxUPPOeXxZtn6pA0TzmUiSZsMBFaHYuqoeW/3Dg83g/8U/EuKVHgxiqxsAIJ+TtgXfZ9/Ps3q9HxAmS3PsATC0t0Y/JXj735Ct5rZRXyT/FvaNE99ZmJGqHzUM8D92YhfJPA93n8Rs/WQIxQTzUsQgxUlsa2SllsypV3IHd5i2zKOFeEaBllKt5wGMnzVtiNtPmfqLnIXVg1YgpsRQK98ObvE6KlYoFJBohg8H6SZAtViUJsfrUsBkGibYVVesSukz2ABF89Zi9cgy9+swy/eFMliEzsQjn+IRxjW62KZOlKtYk2QHJQ53hsSBEtrZ2jpxiD9svXPzj4HP7qW2y3tllEOOJy9kqzl7iiVqQsWoeHn+12Yn9yreRvDE8asqUVK2OYZ9MrxyglLSTaoj24kL1bs/bAyt2BhGXVmLm0DDFpq/HpG46g9Y+2l2JwAO+c6FLxXT/QY8d6e3p5/exyJoGKhfJaTIXyLqNnO72hPL1VimjZvKTksBAtE+XmXPl9lK5tkU2rEC1nPon2a3seRuqCVedAtExnNkQb8ZD7rVxbJNp4HwUCuBjYbuNC6nJ2IrW4RTwe/3H1bvzyqMtdHL76RNDQFoycg0OwdGvTygn+nB2dxCofBt7pGhRyeb0fqH3kFfxl0TZY89YgNn0bZpfUId5ToXR5i1qRuGgtfvhcGNHK39JEa/cRnsBxNqKdmb0H8QX1iF1Cjc2dSCotR3TaOlifvw2X33QADz83IIsJSfPV4/1OIlF3t91i01Uqw6EtQp10NMGnP67B4zd6ttMXIUQr6yRDrq1Iya/E3Hk/wNd3HpFng3NdiJaPxM1Nj2LmojXSpMIQ7fSAjjG4CTYYn7UbZvuaVRLcog34j69X4cdvBnsXD4rfMLKHY8lqK5ZEG1BuUHER2l2dhocC6OsbkN3pi36g+tcncHHarUhKW4vU/AqkFFUjsaAaSYV1iOZGJbcec/K2jU609NdKr+DJT7QpGbsQX9SIhGtaxaq1crZg7pJazMncgzmXr8B/X7UFj7wNvGH/P56n3+/HsJQM2RbtadyyE3zq4x48D6NnO33hEK2X/Y3pGaRee5sQ7fkLfoDbG3/iPBMWN5ok2o33vIjZ6WukSYWK3TGOUG+IdgpDNSCpRIKvXIhWkSx/xvusOoHNKq4XPdl/v3YvfmHXyQphsOxBGlFMbIx1XEOv9mLN0pIlySo61OSoY6tDfpWVyvPf/ZPXMHvhnYjL3Iy4nF2YubgRicX1sHLKYXn44NXB8jRgjmc7fvgck/vDidZuVuGy9CZqnI5oGaP9h+K9mMtNQw7PqQKx17bAKq5AfH45Pry0HbPSdiLliuX452U7cPBFFbMk8agOWP3AAMt/VPxTPAL2tVR/z9btneDzH/8werbTFUK0JFk+70WdsAqIdqR4K3DRwpux7Z4n5Fnihl2Ilo9Y1c+P4fzMNdKv1iHawkZFtNyhGaKdcnCIVrImdcJbsDmJxJUWrMT/fqdW2ipqPVkM+oHBLoUIblggi7wkPtmwJeHIvTwrIcghJQhAouRiuufHL+OjvtWIzmDf21bEFpBUyyVp0GLHoGzqOtcjqqQDcWlr8eDz4UTLvzEQJNsJJpqzEW0iXaGlHUqV5Jo2RC1tgJW1G+cXt2JmXj1SScSXr8K/fXUv7n3ZVUvNc7O1Xt0WrbJiVaOPiK+j5rEbPdtpC66XXDejfPUuom1Fiq8cF6ffgvpfvKpK4TTR0h3W9sQALshaq4iWFo2LaOlaFKJ1SnqoS0uLR9XYhh+AQWTAXc6j3lOWrCZZSt39x9Vb8MvjkBIVyUulu1hn5YqebAQvlCQDJ7vYjsO6LU+bBJhFS2tty4Mv48KsVYjL2KqslfxmxJY0OWLPVkkzLD4/bMNW3IaEjPVCtDomOYJoxV6e2Ot3NqK1rtiK5KsPw7qaG+wqWMW1iC5qQIKnCQk5TUhcfBjWwp0Sj6aYxN3P9Mn/P35KNXoItdxtOAlSE3/+4xtGz3Y6I4Roi+k2pvu4DcneMnw4/VYceOKkU5VhcRfPaXLwmQA+kL0WiRSutYk2qrBRfpGTHGOIduohrKaPD74m2b/IvEXqZKnewskidbJcHP2qGUVkL5Iuog0osYMRhIgATvQMiLt454/fwMV5G2At2qIsPF6vYlp6DYhezNq5elieWsQsYWlcswh0XFC8ZxSi5TXkO5OMaMWvNZJoU+k2zqqGVcrzrYe1tAWxS9thpdcglWVfuR1I+ep9SPRUwPrC9/B/39qLB15UtfldOoSv3cRul/kksObHP4ye7XSGJlq5jyRaH6sz2qTHwJ+n34L7nlXtV22iHQSXzJ+dAC7KWYe4PHY6YeJDHaKLVD9b9cv4yw3RTimQLDg5mC0nO7IWSeRInLcc/3ntNkmImcp6sipGG5BEJ54jz4cLpbZoSbJ0ha7s+I1YJyTZaBam003kaRT3sCQNkliL6QHiNW1UYOes3M2O6zhYR2tbtHxnEpCNku7jOAPRcuNNol3cBKuEORyNiPW0Is7bCcu7H1Zei8jHJeTsQdSXvo8vfLcK+5/sUTWEMkFsVzHnz9AA/AN9cunplo/k+eNO8FJDhR70NTR6tlMbJNgobzXi5PnfbydDNSM5dxc+nnMbfnU02KTH4o6Mj/3v+4G/KNiC+JwKRajeRsQWtxmincqQwvnDsHLVLpuxo5RFa/Hf36zCT94E3rHdqWqR1FJ3U0tPluci50NvuP3e0VO9Ek4hUSxv+xX++ZpdsOavV3rN+e3yQEWVHpCEJyFakqwQLb0DoUT7w+dPjkK0mmQnB9GqnLCRWcf/ULwHM2Q9aIFVEkq0rKMn0cYvPgLL0worqw7JSzpwXmkTkuavwBeur0XH46fkd/F3njr6lppHg33SgpJrzil60MMPKIIG7yc9FUTw3qp7qq+j0bOdutBES4NUiLb4oHiCU3J34B+LVuPJPhWW5Ry3MNQnk/4ZAP98bTlis/dISQe7ACWUqMWXCCFa2/VBd4gh2giGPOSURTyIlKJmxF65Gp+6ejd+egx4U3f2EUt2aurJ8th5DseZdMw3AsPoOnlKzu+FQaDs50fxsaLtsC5nM4LdSFjKZAcVx7ZK9wWJVsAmBS6i9TVhpk20/N2aaIXUpB2TjllO7AgSLZcEEm1A7u0f+lR5z4wcJnc1wSpthlXKBSVItAmeDlieZiQtOwzL2yJIWnoQ1pWbEfOVW6Xc5Z5nVZIQz/itN6n9o75+42S/i6Aic/DY9YbT8e643OLOpsXo2U5JkGillI/5GSTakkPSWTEpexv+67qdIivJp4rDoq4kJwQD+J+7oRUxGbtUaUdRuyjHn4lo5Q+NcgAGEYS8RsTn1SJx4Xr8+9cq8MM3VeKPODcH7BIem2RJTXoXPxUsWs57uoZJLH4mBfYNyHuvDQBVvz6J8zNWSbcfy9coD1BMETefzZJVLCTruI5dRJtPa1YR7aycjXj4OUW0/L0hRKvYbUIH/zzPe1SipXpP0S7MytmrYlAljbBKubEIuo4TPW2wcmjJdiJm8UFppG7lNiOuZB9SvFWIv+xW/PdXt+NHr6mMbf6F7kEVuw21BCNz8NjdvZGdTaeLbI2e7dSFxGgL+DzwuTggRBtV0Iy4tPW47MYaaVHKecFhcRHVRHvFqrsQnb7dIVoWXasCa11faYh2KoHZxXMLqpF8+Z3S8ekXx4N6spJd7Epg0fEozhVNGpo4InXw+JmfIJuGIbVo8vz3/uQVzF54O6Izd8hGJGrJYUSRSHMrEe1VsDw1iBZ3sQvS4IMk2wjL24Q5ORvxo2dPOi7qINFOjqumiVYdl0rZ0kT7xz4S7Q7MztmtstLpMi5lvSATI+sR72lBsqcVM5kYllkh5yvtBwv2IapkP1KX7Eds5k6kLliBfyrZiLvtOts3B4MWYM/AUETPn/Bnwn2P3R4LnqvRs516IP+xmYtDtLJxaoI1bxWyVu5zDBbOA4uSZpwg3HHl7XwEMRk75KERos2qOg3RqhT1aKfBgUEkgs3iKRAgvYvfCTajoEapaMqygYP9nrZA1K5d10FGfuaxf1CJBnDx54Ox68evSp1sbPoWJDCeRpcQLTfplNUAK3sPotkPuqgOVk6Z7GAdos1vklR/Sff3NmBu9kb85FkusarrolhvrNOdJOxyNqL9l6IdmJu9W1UdFNfBKmW3I1Yl1Ep5T7KnGQk+VibUSctJWrLSO5sN1gvaEUs3GmU1F6zGp67dgwMvqGtMdz0ToZSiQSSPYLxdb6b4jPBK6jMzerZTGAUuopX4LEUkmhAzbyVKd9ynRDfseWIhoJI16E++uvFJ2YVaOfWIY6P5XN0yjG3l6BYzRDuVwDT0/7dsK379DnDULuEByxSGlJ4sSxbE8hihJ0sSfkfBzkKOyCHlPV1SqsRFcOuDL4mGbEzmdrtOtgXRpcwwbhZrVbKM8+ul7VqyrxxR2TvEdUSyZU4Dr2m0t15wRqJ13LUTO/j3uclQTs4BDKMfQ5T+Y+OFPuCThdtwXtZO6RpmFdfAKmFP1ypE5dcgwdMgRGst2otZy/YhdXGbKBZF0c0ukmFtYJJUNJPGMssQu3ADPv2NStz3wpBSQTrGuUNaiuCNGue+0bOdviiwXccMJdlEG1/chsS0dfh2w6+CFu3woHId84Hjm9/vfAZJmdthZVcjplgVV2sNWlVYzV293U7M1IFNPNw1sNLRia58bn4UnG5eGlpP1qPURC7OXofH+oC32OiJi8Ige/D2A33HgV5Sz+n0ZFmmcVRhAolWk5VDWM4bOvtT2d/axRfq6ubP/OjpPiUu44qHn8dHc1YgeuFGJJXQImO7QVV+EUVLjaTiaUT8kv2SAEG38pzS+hCilc1nONE+w+s40qKdbESrLdphm2glRlu8DbNzdirFGVrwxWzMoYg2ng0rvM2I8dYjim3ocpQmK0tYogvbFNGybMzbgcSlh6Q5Q9SlN+N/rtuJB1/ok7/R1a8oXpNt+H0KXh/9meDn9N2d0GsYQrTj1bO1k2ocsYGg4IDRs52ccJKhGCoqUeValEqclbMZt3Y+gbf1CjTsZzKUXx58TvzKR96UxcFiSr/4nPcrPzQbzudX2zeZRMt6IbWwhP9xg/cRoq7DuNghuR/StDy/HPH5Zao/dWGdPQk6YZUeEDKY6atE8mV34N+X7MRvT42mJ6s794QufvxMkKhcDQgm0CLh8ZAe1K7RHTCzO1dJBFa5hrXru6tPu267cKL3lHhybup8Hn/u2YDE+atVj1puUvJqpLwtuKipsjaZ9z7Vs5aIKWiUxi4kW0W0jQIS89ysLfjJM2xT6SJaHqocwMRnHfMonLKjAGtt+iVRi2pejw0Cf1OyHal5KkYbI0kfdHParSa5AZHNhSKBYL5GqOdLxLBzqzGjtAnJOdsRdckN+K/v1aPuaUU2fmFUZdlqojo1aDcPUQdmz7WpqWf7xesrkLLgDuk2Jol2nnZYS+9VerZFnXJdjZ7t5IQq71FKXUwCZMiEojxsW1v3aI8QrcyB4X4SLbubqEVo/++O4oLM1ZL0oZoY8EaSaCsFYiVRpUATrRF9n1gIAQSJlrviBF8Z4vP3IKagXBHtYrrxWFDdLu01Zyxci89/vQo/fRV427ZkI3XoRdchWq5lg+w/axOtLODqHFmzycWN71BPdhiqXd6N+57FJ77ahpgr1yMlZw8S8riY1SKRiU55dt9vWcwUyap53wr2+ub8Z2a+JlreE5JsFK+3pxlzskm0ymMUSrTOjsB9Ou/70EQri8EQFe1JZqqr0++HgL9evB1Jnr020TaqhUW6xNXboiNtLqLV81JdI21tSZw7rwpW+h7xAFxYWo24Bavxb98/jOonFVnyxr19/JTyngyr7ZGQUb/uJDV19Wwf7wPSV3ViVvpKWGlbEbN4P6xsduY7DGvxEbmujp6tt0x5FzgnKTJuiHZCIfFYXeLqU81IuMYyAXDfU37xXMgI9JJo1QLFif2jl4ZxUeYqxOSyp+mBEKJ1LFpHDshYtBMP23qQe9Eg9yg2v9JWW2LiCuse2xG1eB9SSlsQO38V/v3q3fj5O8DbttWgdt2ROxzRdmFZ2/Khu07zGHl3QJEcF7Y3egZV154BoI56soVbYX1lNWIXbsHcknpZ1KJ9NYgvboGVZy9q4p6zCcTeYGpBDbdFy3tiiNZNtOw81oTkqzoRlVeN2NwynLe4HtYVK2Bddgf+5/tNuP+Zboc0X3xb5QTw6hw/zti29q7YN9JlEeqko0ievzz+oJ5tPeZmrYHFOtslXF/bFZnaXgN6Feli1ipbQU+LMXYmCpzz8YX02DBZ8IAqlfRUYW76KjzwmirrkiFEOzgsyX+86U92QVxo/DDFvvmfacVqolVpzIZoJwv0Iifdu2yVJVGRoYtPJLqahAASmLyyaC0++bVyPPQGxKUhCxpTTiN5aCtWToOUQVvITrDRXKa/HQ7g+KDqW/xMAKj91Qn82cJbkbJgLVJz9yLVVyklF0nFzByulfId6YbkjnHLomYTrN0VzRBt0HUs8zIkfkivQCMSl3QisbQNVuZexGTtxKyiasz07kb85TdLne3Dr0EyNPl3WWc7MKDVjaa+nu3JISXYwaqPS79fi9mZa5FaUKWkCSUnRs1BdZ1VTwOSrdGznRxI4BqRVaNK23LrEZezV9q1/qZbeV1kKIs2SLTszflPS3ciKa9MiRYX7TsD0aqbH/6HDd4/yL3JLxd3MS1ZJdWmFzvVInNmYQNi563Ev169Cz8+qh5q9p8VYW7pXTyxi/24BldaHr407FVRWHYqlgVY3MjBIKR/aFCsJs7x7Y+8hrkL7kRy2lYkZu8WzV1pIpBTIS3VLApraKKlV0BDMpHtDY64jEJjtPIzQ7TBmHZhK+LYKSqbmp0NSKasoK8WKYW1mLu4AQmZW5CycBX+vnQLDr2kYpZMFlLiFf1A73En/qmvmL6GytKd2ByB92QMD8l50fphNvKXv1+D1Hm3ITW/wrZcXfHuApXMSMuWbmSjZzvxYJYxiVYatjBZMnMH/vHqvXjK1nmX+ekmWt5sWjpfuL5BYlXqxrIuqM62lmgpccHRzZOV0ouxaicOimh1TJbuYtulxMQouuw81Ui4YiU++81aPPw2wAZ4Ugvr7wH8x4BBuucmLmt43IMJW1pL1lbCcSwdbQLZRhHPmwv5jp++jI/kKz1ZZsgmkjRyKhAj3c9YG1uupO5IsrksZ3ETLZMBbYI1RHt2ohWyZUJZK6KL2xFXwtraJuWa99YisaBWScUtWC91tkeeHw7q2bL+NMDMtdBEI2XF6jruCC8P4pkOMFmOpT9KXpBNLZgg9SGKWMxfP4JseZ1p0Ro928kB1orTklVGaRPi0rfg8ze1iIeC2edBog0EiZbC3hmrDyM1a5sd/2tTrkkhWi0Ir4iWv9S4LiYWJAYSrCQ+ictYLXSaZM/P2YFPLt6Jn74NvDGkyMbv57/S4RcY4NYqgolWZq2dXSxsZsNhW7VAU0+WLuMd97+MizNWIT5jK6LYCLywGXFUpclj/Wc9Yks451WLQSV1V+MiWkWyimh1qYUiIEO0ZyDajBokXn1EWba5Kgs+ppjXlm0IaxDLjPjMMiQsXIPPfr0M97+gYuhvH2Puc3iM1oaTIBXpFi13gNSz5RwexNEe1dRC9GyXrcdHfBul1j2UbJUn0ejZThL4+Nwzn6MRiUVNSFi0Hhnr7xajRvoc0xjQRBuwQ1pcjIq23IeZGRvVDWSdnB0DlAeJN5sBeiFalxZf+B83eH/AhZ+ZxQLl2nST7McyVuHRbuD1ATszVwYXqFMYCtCaVQ945A5NtDwne83lRJa1l+7GAN7qH5AN5N6H38DHsjYgbv4WJLHxBLOKqR1b2KTKeDx1sLx1iF3KrHr27K1G7LLOEdYsvQZuohWSncZEqzceIUTratUqXaJ83Myo9YMN9aWdpaderFzW2cYvOyIdpKIv+YHU2WqyPdmv7FfHTSyYYnq29rn5+xjRC+Bkr8qGZ9nZF75FPdt1YWSrIKVkZu2deHioctch7uPU4mYkLViNkp0P4Q1XswqbaNUtP9WjbvBtHX9AyvyViGOMKp/1giRaO6uQD45NtLzxdGGYmz2B4KLGGi42WODC56lHsrcGiVeuwr8v2yN1srynspzLas9lVZW29CMQLKqP0MFTYsvAAVmw1MkMdilG47ckWbqL7+z8DT6at0lINiGf5EoVnkZYS/l1WLKT21WsLVmXNet2HwvxRDjR8giEzthyk0Rrt2D8nR/4RMnWsxOtveA7IaRwonVD+kFr2JZvHsl6n5RJsYY59ss349PX7sChp1UXJbVBtF3FzCnw92Ggv1dtEpyM88gc9pS150XQYuc9kcx4ChFcX4aZ82+VOttEqbNttPVsO5UuslzvUdYGg/cHvP4eCom0IDa3Asnz7sSKI8/J3JX7ys1hoBsWrVne8P4B9YBtvPd5zJx3BxLzqsQ6YvtF1Y+TDwZ7mbJQep+q2fRWmhjBRII3uVRlgFsl7ZJdzL6yn76uCj96Q4UCZCmX59deqKD0hydHwf/4Bicy3TOiO8OTsteqkyeUnizP//YOpScbNW89omlVeZWerLWUDcCpCxq2+BuifVdEGzInw93HIXBf73bELbtbhOOpZ8sMTurZUuGGerbtj510NoqOnu1Q/9TWsxUfg2rnyHNnnW3WqnbMSVsBK22Lyt7O4vVnnS1l9kwd7cTBVfbnbUBi7l7MmHcbtj70itw7mZuyQeyGxYTNQSZE2Qtvw29OYO7825CSVyadbxTR6tZg+4NEm1+NBJ8Jxk8ouKAVdyJqyX7MWNImdbL/ctVOSXxiTFa5LlwkK3qyASEhTgTdFSpSBxcnJhxQT5bnynzjk11KT/aVfqDmp0fx1/nbpU7WytitXMGsj6UVSz1ZSpWJe1PXfrqJdiS5CsLuwbQn2nCLyu0dCK+pFVIIR4vEaan4Q7KlMEF0dhmsL34fX/xeDe56WvWh5hU7+g79E+rr10/0RbxHRs/fEXq2YWSr9GzrcH4m9Wx3qDrbAsqyHTFEO5GQOd6m2hXn1SElby/mzLsZTb87IfdNhpto+wdUSQTTDx58Fbg47XbMyN0rJJvg0URrWwJsYiFEWyllJYZoJxZUWWIGZ9yCtfjXr5bhIVtPViU+0W1B6C5J6uEVXdApoCcrC5XdPpTncnRoQL5+2Q80/OIk/mzBKiTP34G4vEZFsEtaYS1rVpqqngbEsPm9q+OTIgh3PDYc+rqrelpC+hwbog3CTbRngk2yFCJILO1A8rX3wspqgJVZL+LxibnlSLzidvzXtdvw8KtBPVvKGU5tPVtt1apErx7/sJw721Wy9Id1tskFNSrTlSWYch1HrgsG7wNkLrerGtqcamlXenHarXjgFcWlwZBHNyze3AG/mq7dw8pV8VfetZiZvUsEwR2ilRjLQZto26V+M8nHIL1du2nwvoMu/fOK65Bw+XJ8cukO/OSocpfKQzuo++cI5YolK/faBr/mXY9k1xuPnfkyXKxYFsK4CLP9dv/0FXzgytsxY8EOxGU2Ir7kMCwmPOWz/zPVUiol41UUqsKsK7m2DrFqYQa3Jeuy1PJbDdE6xKkxcp6ODtX4I5mZ3jnVQhxJ19wj/dUtbwtmLjuI+OzdmLFwZYie7Rt+tU5xDvex2U74SUXQ4LG7Z0LoM6niIJwrPFddZ8umFsnzb0cK6+aNetrEgvO+sNNuVlGD1Jwd+P8K1uH3PcoA0IlQyqJVt1P+7Q6obDeKgM/K3oGE3GpFtF7bxWaIdlKBKjyJX74N/3tdpbRVZDMKIdL+LmCQj2aXJD7JomQjxEU1BTI3BwcD0oCD5MDkkR0/VXqyiYu2YGbxPkQz3JFrEwLdwbl7YPnKEU81muxyaafI3sXy6iT2uFWQ3ERrkyz7mtqW8LQmWlpUOrY9GtG6Ytkjoa41m7CzLMLKrBRLlhnIVna9yOtRci+FIaqFa/DJa3aj87mgnu2AnVke2cMWJZCNsLoXvAN8RtVcCSDAmncMOnW2Tw1Tz7YSH/RtljpbUf0ZZW0weB/Aec+NYXGnKHalZm3BZ67bKzW0vZyakgjlIlq9gyLR0iK45Hv1mJ25FfE5VUGizWcilJto2eR6lyHaCQSL1v+5cDN+8SZwzN7lq45PJNnj8A8elexiLkwhMVkSrGjOslh+Yhf78Q0eexcGBlUcb8f9L+HijDVISLf1ZPkgLLb1ZH0tiC/qkAeCerJxheWwcnYqCTIvG3yo+mP53pYl00QbTPbR1ixJljKS7YZoddzVsWzV3NTXzS3xFgL7fSujHLOv6lRkm8Wa8GZborNDFFGk486U1rM9rgC/3IvR9WwZ+lFNLYJ6tptwcf4Wo2c7keB8LzkIERMobERyxiZccWuLagwkRGvnxpBoteuFbc8Y/2DP0YW3tWBO5mYh2ngvNfeUL1oEBaQFY4vEaEWOzcRo3z1sH79KyNEWlV7gw/VkVSwmqCdbjouz10ud7Bt97sQn3tiTgJ/2ba88sCRaLk5BPdnJR7SOC1C+cDUqsEs43K419Tl+5xepO55b5cPP4xOZK5B05UbM0C7NUrYRtROfKGOV04iUkv3SBcrK3oGUpSRdNb+d3sW645P9qq0vdc/cRKtgiNZFsqMQrYIi1vBXIor1yzkVSGITi9wqxOazN/IBWNmNsEqPSPlPwpKDSPTVIOYrt+Lz39iNh17slzl9oofHy6HIlufBKxs0HuyfjVJ7y58HPzNBQ4iWeraq1SSP2x2zdZ7V4V4Eerl5DuBo/7CQLT2P//utPTgvb7OtZ1tnq6m5s7u5xth133K92ZXLtZ7I6yjrksHYIGvMEVi5jVJDm7poNXJX71M5MuL5Z3czm2jVxONkDEj4nTG+b1U+ggtytiImu0rcamr3HiosruJXNhmEH4DB2CCbF2YOHpEHhA+DSBK69WS5gC+hJBYXn1rJBp+zYB0+c00FfnF0ND1ZRUA6c9G9pLu9F+ELz0QNveA5xyasZMvcCVQC1wnbPXzCb+cUDHWh69QJWXAodfehzNVImbcG5xfViVQVG07EaAF32aRQxqrdcRPrhV6T6OleR8LtJjXJUG5yPS3EhTzy1W3xBjc09mZGkwWvZU6V6NnO8OwSPdtPf7taJPaYICRXUCxb9TVjYydt8SaWAek6xuDGMvhZJ4wyYWOserbB55Tv61AQ+7pd+r3dmJm2HPHpu5DMLGTv3bAWP6QsreJmRBdwPSmXzXlSHr03tjemmC5P1WlqxP0yGBs4P0vvkszj2UX1mHH5Tbit5ZdyX+RZtzWeuVGygrs9RbTcLa3Y/wTOS1+PWCYpCMnqlouqdtYRGDA7ovFBFpMg0UrDcMYPHaJtUPWeec2wCtuRXNgkerKfuWo3fvRS5JfncAjR6sYDwki6fzF3gqrjE4Xb7aaRstvvYzvJrhOy2NzQ9jT+6mvtiF+wSVR4qJ4Rzdg1Oz952E7RRbR2ApNbT/b0hDo2mPKecSzUBW6i1e9rV7SyuKj8I3q2i3ZhVnEtPrC4Bolp6/DvPziCyieG5Vg53jreJVYg5werxYWQ+u1seyFZWo6aaIOJgRNLtOMbnP9P+YFFy9twYdYWWAvLEFdyLyzPEVi+fYi6is2FqoVo2S0uiWFAj2040T1PjOf+TXdwjhYdBpP35hRWY/YVN2L73U9K4po860O0aJUKlbJo+eAPK+uHH6KE2OwFK5HIXq92PMoQ7Z8Ctqsnv925vlruzhEIYC/Ykg6kLm5DUvpG0ZN96GXgddtdHMkLhd7Byzk4BMuFkZNTvd9nWyf99HZzfvapxZQx2cofvSCyjlGXr0Vixg7MLqqV7ixsWi+F/WPQkzVEO5mJlhZtI1KvOSB6tlFZuzG3tA5RC9Yg6orl+Oz1dbjn6W4n/+Cl4/1OIpGK4Wp9YptwBUHrMJKfHQ6eKw2jp4eBS6+vwUW5mxBPgQyWrdGlWXhAriHvG9cWJa2n2+m63Mfh98VgbJDrR0OoCbN9lThv/vfR/ugxmYucg5LIdiaiffh14IK0VbILUhM/SLQhknmGaMcFXlMuNKrNZa0klo2IzfqakWwH2v/pqr2472X1cEl2MVkowodjyWorlkQbULJoco5OrAro7e2XXfyrw0D5z9/BhzNuR/LCtZiRV4YUb4X0y6WebCw9AXQfS49iV/xQFpVQPVlDtJOFaMNFCWxk1SJ52QGksAd15l5EZWwXPdtZvj2iZ/uZr27DQ69BesuScJlnEqpn6xYfcGGShE7GMziL+Dyw5IkhlC/fUIY56XfiwmVNsBZVIqroblj5B5UFy2udX43Y/HLJr3FituH3xGDs4Pxkb4mceqeG9idvqE2fPOt8pux5aPF7efCHVdMKfuiPfuAv87dIPFDHaBXRqv7GDtHajexHHIDBmEBS5caF7mJeUyFZ+Zna1dPqmlnYhPj5a/GvV+/Bgy7RdhXH7FHqEJE6OOGEhWjNqvZ6oBapTQBc9vnKekl+jl9zk1H+87eQeuWtSMzaLtrJMwprEZdXKUk1sfQEMBM+r3pMerLjXWgM0f6piNalZ5tFjeBGzFjWIRvSRF8VZpfUISV3hySgaD1bJnIe42mIR6Qf6D85Iv6pht1IIOKzltViwNDL20OKbOffVoH4r1yPDyzugJW3H5bvblgFh9T8L2JWN2U1y5DkYY8ERbYj7ovB2MC5ylh3XgOSMrfir3xr8Fivi2hlM6di8E7WsdrdKbccb9hnvlGD5Kxdsthz0ou7zZHMcxFt+B83GDOEaEVPltnb9jV1kWxyXi2S5q3Ff3yt2iFZLg39fV1A31EgMHmyht/doISUrSdL2I23NQEQ3f0qGYqlZ/S2VPzsdVyYfosIY7OEJ76gHlZWmWQSxxc3wcqtgJXD+DYlrEgIbqJVNbGGaNWY9ETLdae0ExbLC9l3vbRDQgIMDcTmVYuebVJ+rZT+sM720LNDQT1bsSaC1iyvOKHWuylEtJL3GIB/aEDu2zPDwLxbqnBh1lbELKxEtOcQrHyWZJIUqK/MTT2To2pVcpQh2ncPIVrmENQiOX291NA+b1d5yDxzE63zoIkvWTXrphsmbcVhJKdttmtodfmJ8vUrEXhDtOOFpN2Lnmy4aLsi2fOzd+GTpbvxo9eB123x8mFuXwepYcnkDmdZiczBiaizi20iCqUftQi+cbJfUuY33Ps85qbdidkFFbAyK0RmLZ6tFSmAUdCI+MWUZFNydzI39WtY72K57iGZru8ehmj/tETL5hUJVx1WhJujavaVhnCtZCPHUVRjFD1bJkc5LuIRMdmp4TqWE+oZYNcW2TR09atSt+eGgf++dg8+lLcHyXksX6Nnh6TQAKuIazdjtQ2yto93/k9vqPU62lOD1LR1WLh8H161iZbPu5NRTqLlhihItCpO++YwULr1AaQsWCt1tMGMzSb10GmiNW7j8UE2KySDYEzWTbIfy1iDXx4D3mRJC2+RrAm8Y70YHuYjFek7cptoAxQ7UOeo3cXqvAI43q3k0qiI8SHPRlhpWxFd2IKoEtZ0c14qS0f0ZFnSs6QDUUyE8tTC4muYNRuqJzv+0jRDtOMgWtuNr0oGXUTrlPe0S6KJrjMn2MxC9Gy9Deo1rw1xSw8j2ack9lhn+8CLyrI92qtcxnouBTFFhkwsmupsWK86SJ3q75f7xy5pX/x2JT6QvRXJHrZr5FpjC2oQsp6raxp+TwzOAZ5GCVvNSluN4q33SfhC+hUMMRzrIloubj0D9pt97EJil/gceBopVyxHXG6N1B9GFbbLAseHLiqf7zEWVj/yDxuMHVxUOOmpxsG+u1k10iQkZcF6/L9l5fjpmy49WVkjdLu2wSnRVF0WiiHVlIJZxZyL3QN2TJbxtq4+WTCXt/0KH8heKyRL4XDR4aTbiwLu9gbFgdtVrC3ZUZR41AJviHZyEK3LsxBOtG7wbzqJUrbl66NySgtSlu4XPduYS2/C575Zhrbfn5B17BQ9Qf22CznQh2F/n3PekZ61z+Ecv95D2PNMk+3C2+uRfMUtiErbJr29Y5feozSASw+ZrOP3AjnVSMjZg7npq3Br55PiDWaCmjPnNNHy0WJdoiziTEceVoxc/uM3MWf+ndLvmBOfRMsdZPBhsx+48D9sMHZwki9l9xvWybYiiX1fF67HJ68qw/0vqg2PQ7ISw1T2nhDSFNCTdRY8O9FJ9nv2fKQ1wvO/o+UX+JdrdyN60SZJiLG8KjkvqvSAit25M1TPmWhHuSfnCEO041uoR2x4nE3Tacg25H63I2bJEVisDc2sRfKSDlywpEUSpKhn2/K7Y07Mtq/rhCx4/gFFtDzTd3qGInqjyvPQmfmMKDmBaOYW6sTWAPDZazfi40uqYV26CTGFh2Atvl/16152wLZuR94Xg7NDnoc8pdpz/qI7se1Hb0geDYnWaZaiibaLerS8a0MDthtPWUv3Pg98MH0lEnLKwD6xVkGbEC0fOIdoJXln5AEYjBFCDNT47RAVk8S0DfiXq3bjvleBl3VbRTfJDqvm41NFT5bHTi1Zbhho0fLk+npU20jGZHf95E182LsJ1pVrRQAgjpmU3kaVL0AvwHugJzteGKJ9jxdqt3civKaWcNVDC6j6s0w1DeB8oDCBtWgH4q+4A5//TqV4hdjohOfZ3c2Zpu7Di293y3MUyUTLY9diIWoNt78Q73g/BuGXc2dy6+e+XonYS1ZjTjE7zLXBKqY3iBv89/j+TSPweRC3ce52XLjoVnQ+G0xYlZugk/FItCdsgfDhPibXsFUZbxDweDfwcc96JGbvti0H9o1VvV2d9ouML45yAAbngNx6JPjqkbBoPf5h6W7c87Iru7hf68kGsydldz5F9GR5LlzUdTo862T53lsBoOznR3Fh1hpY6TvkOmkiSyhpRjQb0DNbUhbeMKI9Rz3ZEffjHGGIdvzXMARuoj0TdIwxvQzJSzolTiv9kbMbEV/aKW5k6tn+g/dO/MwOwfDsTvWRftSad6JPx3Ajc3AW6RCS1Jtrq1aIlv2xujGAQbwZAJ4YABbcfhdmLNwOa+EeJH+NHensrPzwe2AwJvC5SMgrx6ycLfjz7OX4ZY9qYcwrLzeBvY4dorVVX6RpNVuU+U9hcAh4eRj4t6t2ITFzFyyPbTk4RNuAqMJ6QfgfNxg7WJc8w1sherL/umQ7HnwtKNouY5h3RvUs1ouidhXxaz5Tkb5QiJasvdnj13QXV/78DaReeTNis3cpb0opFTK4KalEXEGNqO+wTpZZx6EWjr3oO8R6dj3Z8ZKtIdrxXb8gcZ7rxkd9Non9rNP2gj2RRWKvQAmfpC7ZJ+pWsxetwL8t3Yi7numXRfCdAYiYOs9ZMvgjfFBnWvMridZpZyp3th+BYdUt680h4MlB4LKb2kScISp7B2KL2KL0vffyTBfwuYjP3YOZGRvwL8u24xl7/WLTFOW/V6pLTPq0GMOQhb3/FDB4Eug/LhqflPqZd1untLaz8hrtZIQOWIV2E/XCekQXmZs0HrDRd8plK/DZq/fgh68E9WT7ek9hqJ9On15JfNIkRDgJHGxUEenlCTzDPu65gZMsugdQ9rM3pU52pq9Mku+kIDxXLcKxIhK+F1b2LtU0xVM9Tj1Znc068t6MFYZox3f9zki0Y9CzFaJlqY+nHrElnaJjyybv3KBRem92QRUSLr8Nf5e/Cj98XdVin+z1Y7D3FBCI8IYvYjXR46USCjmrnJit/Qkmf/FzEpMG8NgAkLnuIFIXrcTs4hq5tyPuicGYwGuXmLsXM9LWYN4d+/CCTbS84jKvxKJVZWRBouWbJFpphDAs2VNXV/wmSLRs4+UiWpJsTDHfH3kABmMDpe4+WbIDP30VeHPAjslywes/KnWyg4PH5d6M1JNlYN1WJInkhhVS3tOFU8felvPbeO9zmJu2AjMLq6ROlnEkKeOhnizzA6gty2z3vHIkecsQl7Nb6gHHoyc7YnE/RxiiHd/1c9zADuGq9/V90/dyBOyGI1Z2FWZddUCJSGSUS9lPLOOP9MLl8ufVIh6fumAFLvluBX77tn3V+4458nQRO/j8+HvVWjCsNuW8gwwpOa7kAHDyHRad9Iobme1LHw8AV9xxAHOytkn/4xH3xGBMoEeSXpOZi1bhmurfiOA7vSbiIR5w9dYm0XIR7xM/Ch80uo5VwgD/w50HnsTMtE2wcrjraVNSbSytKGyTfrLxRWEZg9MSanEItabCi+/VQsL32cIy2Vsmkl8XZ6/Br44Db9vNKFgOJ/dhqAvD/uMYgurty4WPRMQ7I4s1bx4frsGJJVqZNq7dc/ANnogiEn4rbq0Rrm7+3I/urpNyjnseeBofy12JmEWbpOOTlO6wTpa1xYv3K7LNqUPc4k4ksJ9x9i7MKKwWoh2Pnqwh2oklWnVvbGs2JAarn6twSzbooeDXcd4qJBfUKY1hUWviMbXD8rZJpUQK4/lXrsE/XLUHrU/6xeLo5+XX0nkT+PycbThW6ShQP+CGux8YZFSQROuXdcTxfPGDktqhNrTv9B4Tr9Gv/cDnbmhHSsZOxLOpyyj3xeDskNBfQaUQ7e0Hn5WkM7ZJkTVPSmV1j23A4qSTRZAWLe8KPZKspR0KoON3L+HCeXdiBssqPI2wlt0Dq/BeWIV3SV/ZeO90F37XC7fSN5Ve0F52zuI14YJBwXHWrN0Fy9cq4sAzszdjzpU34D+XrMLDLw8JgeoHg4+8m5T4vU52IJxFUe7koO0ymjjXV4irSthEn4RqqqF30ZIlHVDneaof8FNPFl041q30ZG/qfF5UeBLnr5Ykljhev7waxBbbC7ku9bATn0is0tnmPdCTHfnzc4Mh2nd/Dfn7lKCGVu/RJT1sgk/YMXj9NyTRjZnl7HTEzzVgRt52zPVsRyKPiZnHpffAYjN9D2UlGzFj4Ur8W8lqHPjtayq7XXX5DCWsCR26AFYN97Hpjal7TdBwjp8Ty47L8v3eIbtkSW6u6h8+0H0CvYNKMP7Iq8Anv1UP67INSLmK8pzv/v5NBSgD6d2BzwVlOdmsovrXJyTDWwY79/FZCvidNdxi4hPvycBwP4YYWLeJtx8B/OyVo/jowjswk7W07BC1jCT7Q1hFDyAmt0oss2lNtEICajEg0ZJklRSVi2hL74aVwzKEBliXr8NH8tbjs0tW41dvBKS0RVw8rmVXE5eGfl8/XCOexglcLWTeuGNCUopky90J0aosYrqyxP3N8h07WaC754Qs6BRt/8RX2xBz5Xqk5OyRLD5pHE9XYJ7dljIsu/i91JMdLwzRvvuFWjw8Xm5O6Qrme7y/mmTdROtKcJPSrRbb29GA8wr3ImbeasxY0o7oxYdhLeA69YC4j1OztuBTSzZg369ethMMA3bMUs3ZLuaphF6SCRhnJtqx4NipHnT1qdI/jqHBoHpRoL9bPsMN/YMvA5/9dg3i0jdh9tfug7WI95LXfOS9mS4IJ89zgYQ1csrxQe9W3PeKWuPEIzlwzJZmHJJ5xvXPCoQRLddINg4g0b4wCPyTbwNSM/aqZgEsDi94QIiWhGKI1iZTwrZqNdEKAZAgig/JohuXX4/zfLvx8byVeOA15ZoXd7E8VCpz8EwPVwinup/GiR7OcXCxIMHyrOwVbBjwszybk822aN/2q4eeqPrRC/hEwVZYX1mN2IVbMLekHgleJjjV2D2M//R6suOFIdrxEK2SK1Qka99j3ZjC9hRJGIBiJuEykrqtZm6lkKyEt3ytOO+7j8DKqEBC+mb8TelWdPz+uMw1nqO/R6n5DPrVBtDZIE6y4X68zwQ9i/gqhq14uHSThEFpmtAzrBLAfvgq8PlvlyHxspsRn7kNCYXNKpY9yn2ZTggnz3MB13latH97dQWeso0JDPaMTrSSvMoFcWhA3bAhuvbUJCQZfOlb1UhZsE1NbGnbdR+s4vvEVZPsK5/eRCsLw34FEoB98YOusBalp7mkE4meCnzye53oeFUVkEvMVTY5wXimQugOd1IP/bTL4QatWHlDn4b9c768M6j6Fr9Ikn3kHXxs0e1Inb8Wqbl7keqrRGpBjejJymLuqVEyd+64nR2747V9r/RkxwtDtO+eaBXcpVZuaK1mamBXi5yk1sJWvdZJuKyn5nHsh7iNPY1I8NVhjmcn/rZ4E1qf6HW0m7tPMMFQ1aPT4huwG/VMRqLVQx/bmV57/a5+zoPMclXu4r6+AbWxBfDLLuC/vlGOpMtvwVzvLpGWZFOPpOJmFfMecU+mD8LJ81zAdT4xexc+c0OzrOkkVIdoh5TnRCenWbxL7BY1MEiLVt09ikFool286T6kzFunamZZalFwD6zie5BQ2IBkX4UhWk20sgsPxmpVMk4TYgqaVaLG5WvxpZX340m7BymzjNUyqy3BMISoi9iBJdcDpjGhQ6/Ug3YXFFAcQCVAOSTLUHK/qlvkjo9lY3t/+RZmX34rZqVtR1LWbswqrhe5M8b9o7zUHq0JEq27neKfQE92vDBEOw6i1aEXt5tYb6RYo+itRYK3UsFXLq9BsqXkG3/HIVi+Q4hdehdmlrYi9vI78XcFa3H380Oq1IKhMDbcp4UR6MVg9zF5rnjOfYybTfA483Osn/vTvaqXvr4+DA+wVEllug7094qsJEn2gbeBf/tGDVIyNsBasBmJvhqkFjVIiMbK2DnN1++R5Hku4PykDm36+vtkTWeXRVW9c9xJKg4j2gAGAyqIzhvHMFtfICA3as3+pzBz3kql+8nyHiYaFB5GQmGjCDBP7xs1OtHKwqTLTHwNiPPUIDZtMz6xZC9y1x+WeqtXh+x6Kxna3aNTwt3QpBv6cPFe6fs1YUOyHtkj2+5g5XKByz8BuutUjR8ffG7cyn6u9GRneyuQ5GtSSSw5FbIZEbdgTrkq4SHJMjcghGhVnM4Q7XszeFwTT7Sh8VjeT02yJFWHaIVkqx2LVlm1LbBK7oblY9/rBiSlb8T/u2Yn9j/ZI+5S9tBWk7BbEW3vcUkM4vMkccxJMJznJWRod5CGTnocHX29dobrsF++1kbSweeG8ZnrmxC3aCOsK7ZgznX3wcqqgpVbhYu/2omYrN3TfP0eSZ7nAoa5KI/3vfY/igHBNU7WbCZDDQZ7ajtES7gXbi4KJFpO1rZHuzF3/m1I4g6SxFJ0F6z8AxJz5B/ighd+8NMGITHaYPaxgroZVno5Zi5ls/MmWP/zPfx1wXoUbzqEl205QseqFTLVZKt23wqueix5sIKxmQl3fWmZO4IHwwOTyaYPTBEv9WRpXWy763l8cP6dON+n9GSt4nYkkFDzqhDlY8MBLtos0WiEVdQsmcej9S5+L/VkxwtDtO8R0Wp3sUOy2l3MEi6Vya/ud5gAQeE+pFx1GNYld+Afl2xD5x+6HSGB/j5aeX6x9kRUwJYCJaRhxZAd5pjAwWs/csPM9cCtmevycLk9XbTMxZJVP+/3D+B4vyLZu14CvnJ7J6KuWCnEOvPrDyrVnqJ9iCtqhZW2Uyzbab1+j0Ke54Ikb6XUZ9c85heLVjZ2tGhZOhbwK/VCu6rEkqAsk6DsyakJ108rhEH0V4APzP8+ZnJx5AJSfFikqWK89fJATGsfv+P6UtZs+I3ge+y7yuxZxo4+dFUT4i+7FRcsvAU56w5JgbPu86seNP1wcdEjydo7cRKvqyZr0hCtHAGPjbs410EJo3BOBfBmn2p9t/v+V/CJrI1IvnIrkqSt4j5YJbx2TaqMh3qy3jrELuXC2yjWbOwy1myHWrPvtZ7seGGIdrxEG3x+nMx9X7Vs4oOlcvqzoeICfMb4mbgFa/Gf36lD+5P9Dsn29rBG1q/K4Oz1jFddYpdCutwg0hKcOKLV+1H9/Mt9kH9cJOskN40WTrLXiuF+9Pb2OjHZIy8CX7ypFdaXb0NsboWqLc7vhOXlhqYDcWwCk1dre5Em/hmaSISv2eeCZE85Zl15Cx4+prpuyfM9wDWb82pQ6rWDRGvfuHCiJWjyPj8M/FPRKsz17pEuKywEl+SDPJ1dO71vFBF+Awgni7KwA9FFzO5rQbSnBrMKazAzZxs+4N2G9NWHRShY19KeYla+PIKjkK3ejdv3JqSsZgJHgJmOPA4eDA+Rc6xPxWTf6O2T3s23d/wKH8lYi6R5WzG78ACi+NB7GmBRjUcnOWm4XcXakh1FiWeEdTNBmDJEy/klCRyKaH/TD/xV6bb3gWg1aarEJ8dNTJL1sac6xd+bEbXsPlhedqbbj2hKS2bWYmZJE+akrZQSnvZHj6lmFMKbJCFFTrzS2n2npNHtn8tzpRbEiRpnJ1qGZHSpjm2J+3k2agRE1atXrHMdkz38sorJWpfchtmLdfmbK5vbiYW76pOnMcLX7XBE+RqRWMpOY/XyfUJJu/Oz5Nw9+Oel2/CcbTDJreMzFOgVOUbOLBfR8iYqF5+baPk9P8BWjJdevwuzMjchlnWNPtUOL8rTgGiPzq6dnuC5u2OxOgEqpFShsBMWpamK9qn+q6UdQrjWvC240LMV+avbxO0gItX2jenuH8SgdBbRZGtbjZOMaPWcEZcJQaObyScDSk+WluytbUpPNn7BJsSxlWduq+ysRU9WK/C4umedG9GOvCfvNwzRjnOxFrK1XcZiySqiJenKzwvp4Tiokp6u+SGs9DrJLp7z1btE8erTS9ej89evyGZVngfWydq5DUwSkufJ1cLUoalJQrTu9TZItKHWLDOmB3p49Mr69g8qw0jm1UCvfE1LnrWcn/5Og8Rkz7v2IKwFZa4sbpWxH1yb7Lj4eO9fhCOcWMPB2H88PW7eYHIryZfud+rQfvH6ymDGMQefoeF++P3BZhU20aoFnCU++tGXmzisPsTF8tpdB5FyxXLMLGyG1NOyLR4XltzpTrTBzjbuTOMQomUDex9Jlj1724V0Y5cwU7IVcdnl+OCi21CyoRPPMmZrPzC8MSRbx7IV1zHvhnIfTxai5XGw6J9HxsPlsfT0KT1ZbhzKfvQmPpq3CdYVayXJKXpJhzN/4kr3w8rhtQrbYY8Skw3BKPdhImGIdpwLtd2MQpXxBLOLlcuYAhCdsJZSqJzPzH5c8O2HYWXuRfSiLfjbxdtw+PdvynzjOQgZcVPaf1LFyOwFkCTL+ail8mRob9FkJ1onrjwkSat65vDZFyE89jK262T/59tViL5iOaycSkSV7IdVyr4HodUQan3SREuM8/5FOMKJNRwkVXKdm3j5Sss2JXs7SrbeE6pBa+fUDA4Nq3UxSLRcxEcSLW84v+bCv+W+3yPxSzfhvKIW+0FrVCxPC3eUg58uGI1oHZLVRFvcqVzttGrFZdoOq+QIrKX3ScH4zIyNuGjhrchbewhPDKvyFy30wMXZHYeZjESrJxJfjw/0qxKeYdbJHsVH0tYgYcEOxFLPmMlNJU2wljHO3yRN39ndSSnpuIj2fdaTHS8M0Y7zHtj3m1nEOsuYlq2EBejlKDkMK7dDnhcrp0Fijh8qrcBHcteg/akh1SQAAfSetOtkSaADp8Sy5VWWkEyYRasIzU48nMBkqNMTbTBGK6VJ9jGy9pfPPN85ajd+4SL/qxPAf399l9TJsoWpPBdZTbCW3usQ7Yg1ynElj/P+RTjCiTUcsYXkPEW2+mu+EvSorD70pJMXIPdMiFZt8rgR4vyzk6FUarhevBXRqlISqj/wl+x/8m3M/MrNmOOrt+sc6xDPuKOo+ow8+OkCLgZchEa1Zm13TRQXC18zYoraRcZLCusl+++QCDUkeWqRsGAd5ixcgYKtP8JjQ8qylcWh325i6iwKJNqgNq2zSE7Q0MfRNagefloNdIOX/eINzL78ZqRk7EJMXguiig8qKzW/ElZJDayCKlg51UgoaJd2iqHurdDEp5GWrPv6uv7PBMEQ7Tiuv9O7mM9SnZTu6DpZh2jzWmEtPiKJmOcta0fyvDvx8Yxb8KM3bEkyXSdru1lVnayyAgcGg+47jeAzo8tjJm6MhWj5NV3gfYPDsj7zDh0dBI4NK+3q+94E/t915aK7Gzt/jdSjS0yRJJpL7fBgoubIMNfk8xC93wgn1nDQctVES3exhriUF65D+xM9stlTt23gDEQ7rLLzgkSrskXlXg9DGiX/8sQw/iJ7PWZlVyDaWwmroFYIJIqkMcEL3UTCPXlHI1m5WV7WiVYK4tn2jH1aJXubcVvVUSo2pxoz88qEbD3rDuN5l66hevhsN5JDtIFJQbQczOLkcWiS3fWLN3Fexi2Y5StDHBdRniP1ZHneS7jJ2AsrR+nJRlG8fYL1ZMcLQ7TjuP5CskwYpIWlrFqn85P8nH+jU93j3CppuvCf1+zAwcdOyOLGVrE8dsbDeNws5+nvZptFqluFlsTp8w0nt4kc7uMZlWjtY+/pVS0jeXfeHlCWLA0gitn/5/UtonjFNqYfurYDVsZuea7Ou+4eWLn1IzalXKuk0YLEwqd5eeYoxBoOem5JtPxarNiSdrWG59Xhgvxd4k3gfZHBMkc7cZX3a3SiHdbuSBItTWBFtLypbJn32etqkZy2WwluF1JdpQFRkjY+jgdtCmAEwdpZfULC+XVILWrCjMJaxGfvlsnNBg0kX1q44lbO7UD84iOIy61B0qINuDjtdpRu3C+kxWuvFmc+cKFEOzkWC06nLhw78bY8+JvveQ7nL7L1ZLMrVFYxy3XyVQIdJe5YwkM92diCMlh5u9VGZQL1ZMcLQ7TjuP6yEWtXkBIulm25ibZFYo3iOUrbir8q3oq2R08pdzGPt5+zTuUJHO/ulxIe9TwEMNTXBQyxI5Sd9CQJhZMr9HJGorXBTYQ+3uP0dg0okn3k2RPIuKUa1rx1EoY5/2t3ISq7QrR3CbZYTCiynxdXUxA+W1yHZubtwgzPnmDS2TRFOLGeCbRixZqlHKOnHv94/X5pPqSIln1mbaIdDIqpjOo6pmuFN1RbtLzp/BBdFFfe2omkhdsQV8AmAo2wsmnVGqJV568ndDDWqInWyt6LmUV1SMjbK/2O6drhjlN2kqwnZczW0y4egiRPNWamrcdF829CwcoWib/wZskCLTtcRbZsc6iXavdCoR/WMyF8jPiZfOOu41Nv67/nkLt9PMd7TsqGYO8DT+MT2SuRwOxiugRJsosZj26BtczWk82uQ2KJ0pO1cnchoURdh4nUkx0vpj3RyiLkukcSZw+D+5ppd7GGu0ba+Zx6pvg7Yz2VSMrajH+5rhztz6hM9h7W8PSdEE1mSi5KYpDdu7i3bxA9PdqVrMvjdIaxisnyfN8PotW/O/wZdL+vN8yhm+ZQ1zHfZyMKPmdci+99fhALbixD4pe+pdq7Fh1Uz0VeFeI9VdIzPDq7TLwA6joH21zyXtGSJcmmGqINJVJXLwS94ZemOfwZ12oqsHFuZlbINfzKmgclzOeUlEkpVr+TH0CLlnOMs85SO71BxzXBH6j/FCxg5w7qxtYnkLxwrcjjsSxDLDLPyAOfvtCLSnBh0UQhC5WGu3UgFx3ukEq5o6dLtAlJxa0iF/dnuZvgWdEpZNutyY67dLltdE0E7E1R8OF1L996IdHfux/mMz7o8qZfiUlLxycVEz41bMeNB9nInB6PLpw6pfRkv9PyJD6UvQYz0zZgVn6Veni5cDIBim4WnptY+ra1L8TqdrnriT7ydST0NQ691hOFaU20hVoeUsvcuRd1XT7iTnJzuYttKzbWsx3Jvh3SO13E2kvug1Vwl5SBpfjqMTN9Jf512Vq0Pfa6hCeC8TC9Ax1JYGrwA3qzGCQtPUZ+/t2O0Fiv+1j0M+V+xtzPGl91Iw2N/gGVYSwbBbt1pL+3K6RO9lPfqIN16XKkLtUbTR2qCnqD9Doj8zRs08Of8Rklgt6i6YcQQg27jrrdJ9WhpOa/hCVmBxC/+ADi8ioxO2MjvtvwW0cZKnQuqM2R+z47RKsD7Ypo+VO6XogBefC2//hNzM1cJ3+E1ldwF2DwriFkVA+rpBFWCd1wbaKpGcUNzOUb8JGcjShc2SmZyE68lkLq/afQ4+8Ct0fhD3Y40YaTrXuB4av+mbwnv8TWkyXRSrcg9f/497nIiTtkGOg6dUy+Jsn+7Tf3I27+RiRm7hS3VIy3xp68+iHXVqiy+CeTnux4Mb2Jtg2xIUTL+6tJNti/+LR6soUNmFG0B9ZCpScbzwzjKxuRUPogkn3tmJm+GZ+6ahOaf/eKnYkfgN9WReFB9/UGl7iJG2cm2rHgRHcfegaGnOdSGlHYCZBsscjPcEHXerKxaRsx66v3wlpIa4vXfOS8NDg7OJ85f9VaFazlZ8hK2n/ml8PyMPm3SWW/FxyQ5kPsCPXBzFXY9dBLwfrZswynjlabuA7R0tUy1CUF0Xzw7noF+LP8LaL6IKU9nnoVFB7lBAzGBlm4vJUCaaTvaZS4bQJ3Tbk1mJG5DR9cdAdK1h+U3si8D8rdRbLVRUD2Tt1+Ss/2kIcvBNoqFnexECxltli/pz5EzQDG6kkUg2zLOagIl9ZF+Y+ex0dy10kzioT07SJ1R3UQafrONopMBHN20sGkjMmkJzteTHei1W5/xyLQZSNuK+t0erJixVYiaRkzZBm7b8EHv/lTWPPLMWPhZvxDyTa0PXHCCaF0sT6W3hx2R+IlDPLbpBruZ+xM0LNAToXPmEOwKmt6aGhILFk+6W492YSs7UgsalGtFEeZkwZjw1iIVs1XbgxZJcImO82Y4S3Hn+etxoOvuBpVnGUoorWzWEOJ1o5vDPplYX18CPjHq/ciMWs7khl3y601RDtOcAFKpgZrQaVynbGZg4tskwubkJK5FecvuhOetfvxrF2cru4RH0YujMH2bEH32Og77HDoB51fq4XWtmJp1drEQHKVDwSGJR7GuAO7he1+5E18KOsOzEjfIJYsSZaxaFlQC+oRXcS4hotoHcLVpQbu2EjkYnoTLVuLurNa3RiDnizJtphxfDuGn1OP1JwafCBrB/65cDM6n+hXoRNu7HqkwaLKUfAPyF5wshKtHnJdz/LKxjTq+0BQ6s7fi56ePpVlDODnJ4HPfr1M6mTP8+0Wi8pK34WUUtW6MnxOGowNpyNazk01VysV0YoHhiWKByXbeEbuTvx98WZpMmT7V846VAtGm2i1m1FuvC7+Hg4Ia7MB/qW3tIkUVWoxH4pqVSM6ygkYjA1cwFIoF+fZi+QCJgo1w/I2wsrjAtRpNwNvgpW2FTPSVqBg2/14ejDYV1MUSJwdcDhGEq+bYDXUD+yYPNVM2LvYdhfLXGCHMBYrMit9WHUK2/3I60hdeAdis7YpK9ZTIUkYdBlbHsbwWSurrRYXJqGe7HgxrYmWtfThbuJz1ZNl85aCw4hZcgSzipqRcMnt+CfvGjzwXEA2lbTo+v1cgbjF60U/CZfzmslPrO+Z4KGfqdGH9jSd7lW99PcrctWNadgnt2dYkSzrZD/19Wokp68XPVkmU84obpQQTZSRuRsXRhKtDnXoGG2lmu/Mo2E5JvXYc6uQmrkRl3yv1gnpjWU4RMspG0q0KkbARZhTnL/02qqfY1bGOqTwAKi2MgmSUSIZvMGJeVVIyNyD2KwyJLEVnTR2aIa1+BCs0sPq5rITV365kK133QG86r7BQqjBmM5I2KTrIlu3y0otWnart4C9ALBMwkZvD7OcleABXVh7fvwyLsq6HQm+MsQUN6uECk+19G+W3R9JlglzntpRiFbF6QzRTiWipRZzkGjdJDsmPdkl90gvY/ZOT1m4Af9x1Q4cfqJHjkG8KQgg4GcSYC/8fcfQ36P0ZEUD+cws976M0Q8hmBSjwGc0/L0gzqYnG7twA6zLNzt6sqxaoJ5sbPYeQ7TjQCjR6k5Zimg5T0m0EqOVub5PjB/mKM1YuBpfq3hEMsDpYxnLGFW9RxGtXsADkvzC3dXun76Fi7PXIDlnJ+JpnfAARjkBg7GBi1JKYTtm5LcgLpuLUS3iCllkXq/KY9gTmYvY1Wyl1oSojO24MH0FSjccUkLDrrrB4P1yCREINOGq++wmWrWOac9FOAHzZ4p43zjeJ/d/7V3P4LzMFUjxselEpZR3qAXYrnctakKUdhmTaBmndYg22EpxMunJjheGaG2i1e7ic9aT7UDy1YdhXXon/nnJdhy0SVY2/j126eFAN7q6jyMgElHKUzPcqxI1FVlN3NDPUyjZ8rlxl+iEhXf0xpdxWFYS2Jvh3v4+HO1VJHv4BeDSWzsQfeUqIVa3nqyE7BbtQEphfTDp0OCccVqiZVkZs7LpdSHRFqv8g6iiNvFAzlpwByp+cUzukxNqPcuw9E5LT5jgpAl2J6HLkNbMvS8O4+N5K5GUvh5Jxc1KwspYteMAe5I2I7HoAGJzGxDnqUFiQS0sbwWsogZ1g6leQgWgkgNCtskZW/CBBbehYMW+kDrbUMI9vZ6tvs/BJChFxPo9532SbCCAU1394sLb8uDL+JB3E6xFWxDFQnjqyRa3I7q4VZEME59IsDxmirmTXKW8J9SanWx6suPFtCdaUddR6wAXrHPVk41ld7AFa/Bf36lH5x/9Tt/Yvi4KBPgRGFA2A2sV+X5v34Dq/qQ3klNET1baLNoxWYq2f+nmNlhfuV1CMrLOckNj68lKaWUOS0+qpsQzNFFQRKv7PwdrjZWaVJBoucZJSK+gAbPz9+L8BTfj4dcVJ54D0aovRhItByfDkPTZ5ILObkXUfqT7OIGLKot4DdGOA1ygjij42uWmM5YVn1+G6AJajHWwStuUZct+wfmtSClqxqzsHSF1tiRCPqSOnu1oZMuFVB7yINHKI09C5f8fUu91DwADdoudk6f6ZNFd2forfDBrrcSKY5cwVmHryUpP1bBkp3B38Rll7iJ/kZj2ROu4jEfXk5Vae5IxY7GFB1TfYrZV9DRLvPGCrLX49LLN6Pj9cclkZ5cn0TgmMdkKPKRaHhmhrpjRk1XvmbV3PAghWl5XMWqU0ILMeYY5CuphsSkIw3nZZZiduxX/ULRePIpcd8c6+yz3N+ETR42AJKFyEeZEyLi1FrMW3inxRFWgbm72u4Y8OHQL3wsrf7/ccEkayd+D+Pw9sAorYRU3KjdyKbPeOhBful9Kf6zLN+DDuRtRuKpVYrZ0Y2jCHauerW60ztCAfG+HaNmP4liPSkZZ0fwLfOrq3aqfKrOiqbjDnR8JdwroyY4X05pomXUs9/0MerKct+mNsK5+SMndLahC3NKD0souJXMz/mvZRhz8zWtO6dqAJD6p7OK+gX55j+/oGm7HgpgkROs2ToJEG2rNGj3ZyYkRREuvgZCtKvFRZYo0KJl53IyYvArMyliDK2+qFy5k7pJ+ps82rCChqhE+ebSbg1/Lwtv6c8y47Ebp4Uv1GXOjxwHZRd0Nq4hkS4u1RS1WvjIk+Ui2ZbB8do0td1QsgbBLf9jUIilrFy5eeAuKN3biGTthjVaBLEwiEOuybHVilH0vxT0H4B274xMtWo6+nl4nGWP3T97En2s92axyxNOCFRdKC6ylLMmwz8G9wx4lJhuC8GsQ4ZjWRKt7HZ9JT5buTpKshxszW082bRfiMrbj70u34e5H33KOobeHK0wvAn5lK+g5SpLlMWmiVesS5zR/MnHXMHytHJVotSfJ6MlOOnA+s9kK47QO0TLpqVB5aIJEWyOJn8m+CsyYfztuav61bIy4mobz5+mGEK2bUDn0ZFALQzDewJTzg48fw+yvfFfKUcyOapygNcDarEImPSklH8cy4IJFFNVJglQc451CtqrOluUQbBo+M2MDLlx0K3LWHcJjtntfK/9wcXfHgUYjWk4Y7QLRKiFvDwHlPz+KizLXICpth8oktYkkrrRZJTzpZLhwoo0wPdnxwhCtItrT6smy/rDkbljeTilbY8xxTt42/H+l29H+B7/K2gwE0H38bSDAv9+LoeEu+DHgeF2021i3Z1HrFeey6gEwUeP0RBtcM42e7OTFmYhWvG4F7BWh5jwJl8/CrCtvQesTqonTWEmWwwq3XDn4no7hDQ5qF4hahB8/AfxF1u2S5ixJOuZGjw86tulKEnHvYBN8dZIkRVe91NlSOSKPrRvZLKBZJZ0sXCd6lN7tP8KjAWXZ8iEeoWerY0Wue0yb4DhrFe3FjCRd88gbmHUFO9DsUnF49vmkmzi3ErEFNYjiYiDZeC6SddxboYlPIy1Z2/UV/n8iFNObaJkMpRLfTqsnW7gflo8KVQek/jP2yzfj732rcM/zapPX3xfAcLedeQs/evuOYwiMzQ5iIKDaEupSM4FDbkrO81wWu/d6jIVo+bXRk52cGJVoOV/la0W0cUWNas57qhGfuQ1/lrsKv+4CuoQqx77Js0IsVxfR6i5RAwNKkUDiIQjg9WHg899hsfRe47oYJ9TipDqQKFIi4fJG07rlAtWOGE8jorMrpM6WXoR4HTOgEAGJjlJiedVI9ZTJw5q7/jCes12/fKjVwx+MF+mHXy8SdDHzPp+wS7gqfvYmPrjoFsz2uvRkc5T1GcuOYDlKTza6oBqWN/L1ZMeLaU+00rM4aNWO0JNltry3Seqsk9LW4T+u2obDTyipO/G48AB6OQMD6BvoRZe/C1Q4HuCawx8yWU9fLpvR9PpE6Gs6EUOT62mJ1l5PjZ7s5MQIoiXJCoJES4tWwiC5lYhL34T//m6drK89ctOD9/hsI5RoXdaOJlrJSuWkH1SF4rR4lpX9BFbmHjslOrIXyokEs9pSvdsEimwZ4zxkx2yZIHVESn9SClqQmLUXyV42tahEtK9KCRGQbD1t4kbmQpaYtgEXpd+Okk2j6NmGEa0aKnvzxHGlJ7vx3ucwN20FZhdUiRRUTFEHYor3qdhwYRtiqCdLkme/a2ZG5+1WdWgRrCc7Xkxroi0m0e47o54s8zhmXLUf1pdX4e+X7cb+P/QF9WRPvS0XhRU8J3uVG1m5iAPoHTilRE0Gu5WKzUCvalJhxzn5OyY2QnsWorVh9GQnL85MtMoQEmOILWU91UjM3ISiPT8TxTKRxrNDcWMZrmQoNTH0w6fjIWqR7rVFlgNCtCuOPIf4jK3S99FZSE+T6BK0cEYpVp/mJM0FiRJhyT430TJme7dDtKyzZVOLhNxKJOWVIUlquypgFdICZm/koJ4td7gpGRtwwcKb4FvVKlqJzmIkBfQjybarq0tiRnseeBofy10pu2vqycYXdSDarpOOK7V70ebWiXh7fHETonN2IaWIzQgiW092vJgyRCuCEn3yDefMb/qAvyzdgURPmXq2qUEtzzitLH7NhYkuTneoQNdMq2eb950hJrpEP/PderQ/NSTrhxDTyTeFRIf7h8QlrCOuJwMBHO/vwTDfGTwVJFpC1KQU0XLO6hryP9XQa6MmUTf0+/z7GiFrqct1zPeNnuzkhF635PpLGMSGw0+NYtUmecsxN3s9bjv4lNxD9paQlrVjJdpgkoyaLDoBwcnuc8X3+Cku3ne/BlyQuRqz83WGoUuVw9GdVA+gqkcKupQUKdtuJV0SMsoFmA4QQpJ2dIxp6cJ+O8FIYjNh8Rl3owd7cYvNb5ZSCZko3mYklLSLwtIHvNuQsfowXrAt255ev2paLj2N+6S+j/eZqkBaT5YCAUzGkE4+vgZFHnJ/dNKTismSWEmwQrLOuYz+OhLKDR1E+M8jC1OKaP0DcpAksN/0An9ZshdxunkKPSjFnHMkWs6L/YjJb5MucTM9tp4sqxCW3Aer+C6wDCwxv17qZP9z2QYcevQNVaLjH5ZyQfn7QWYKIS31Nj+ks3dt2J3KRn52PCMYMuNwk6n+/W4ydf9dvho92QiGs4lRGxh9TeVnLPPhBsjbDpY1zsnfjYsW3IgHXxmW9bTXb8/PMQ5L1aJJ7p8TRyCcXyEp6n1SXC0xBtut9K9X7cDM9NVI9u6xkx800doTwu4GpEk2mCTBz9kZq3rnEH4BDMYEPnCUpUtmPKGQAgQdiFp8DyxfK6x5W/CBvK0o2XofnuwN7v7ZwHx4eFi+Zhz32y1PT2s92fEi0omWG2o5LiFaWpGqrvq3PWFEW8quX3x2baL17UdsfivOzy9DzDylJ0stZWthI6yrHpTuRayT/Y+rt+DAb19T2cVMYJIsXPV3nQYrEzrOTLRjgdGTjVDoZL3CfUKwtFqd0jS+X3QEVvFh8dzOzt6Afy5cjqdda+lYrVkOW/hdWbTaZRySZGATLd02fAC5OFPJh+UkrCmi+0I1CNeuI5Ks3oGNlo1oiPa9AicErVe6lS1vA6w8Jp8ccWK2qVlbcP6VN+KaHXfj6T7ltuL9YxDgxX5g70Mv4iM5G6a1nux4EclEy6PQ3iuxGEm0Q2qj/WgP8NfFuyRGa7EtaHENrMJqyThnnJabrVhfG6JzqoRkrZw6WN4WzP3OT2GllyMhfTP+dvE2dD5+UkhGSL2beR5KT5Zn7njNJtlwk+2ZoO8iX3l/jZ5shCGEaOvsBLMwomUtc041ZixajvQ7GsXQ5PMh935QnpwxDUs1nT8d0dqJUHZXId3zmIk2t3c+gQsW3Y5U7y4X0ZJk3X5uRbTaqjVE+96CE4Ku3lQ2cC/kQt+mGgQUH0LC4v2YUViNWWmrccGVNyB/Xae4kYnHAkDVr0/i4vk3Ymba+mmtJzteRDrR6j5MEsMfVETL73/fA/xt8Tak5u1ETEElYgqrEF1YjhhfBWJ8VYj1cv7Ri0IXm47h10sp2uy8Hfi7ks1of7JfYrJcjrqOv6M27MN+ISS6XB239SQd+tjO9Gr0ZCMYZyRa1tOq/gbsx00hgeUHHhdDhf0k+Oyo53hsw9KdSzhZ9C4zuNNkVirjecrq5XvMSKRl1Pjb4/izzFsxw7PLRZ4kWiZJuIqpXe5jFVMIbzJuiPbdghNC9GzzypBQ2IjYEmYFd8DysL6xA9Heesz0lOP83M34QMZKXLHqLvyMKjy/BGbMv0M0Lmd5K6a1nux4EclEy7+uWxuqBYDeK/X8P9EN/EPRJszK3SoSjXEFFYgtKEOcrwzxnC/eBkTlc57dDStf6clSpzr6K7fjb/PX4J4XVOIke2czRqlbgQ71HHfWmwGp75nYwSM4/VHYPUlP+6pejJ5shEITLbO56R3UJVMO0aqfsSPUhWm3Yf8zfmfjqFLczsV17MqM00Tr7DT5syG7Vy4D+66mBr94G/hk8RpJhAi1Utvt7hrMklPxB23VKriJNhjgNzh38FqSZOPYWCKnEtGsa6T4AOtwSw6J6kdUXhUuuroF1hdvw/n5u/CPN96ND13VhJis3fLQsyZvOuvJjheRTrS6taFaAJgMFZA14A/dwD8WbpQm6uxQFldQJZnxjNnGeZkwx7nQCav0Plj5TBppkPKyf796B/Y/2RNsUUeBgH4q8fQCvcelgT7XFXGzToIxOtEGy3MUmOAU/l4QRk82QiEeWLtsKpxoJat+H6ILW5CStxt/X7IBj/YCb9sqUoMBttQc+/M7QiaP/9UxiCXTT1m0w32MtKiHkA8nd2tZt9ViTt5W+8A00dKVpIlWWbXB7FpDtO8leC1Ti+qQUlgLK49WKGsbWR50UMUW2CwgsxpR3hpceE0norP3wMpgw4kKWLm1iCtpn/Z6suNFpBMtt8/cPMs6INnoqsfwEz20aDdiVu52pSnLcALvOb1SjN1LJnonrPxOpFyl9GT/ael2h2T5OzQBBfq7lbSdK4NYCJflROdgFfwphl73QsmWFqu7RMcuiXNDPmP0ZCMaI4iWuUSaaFVVDOd9SuZGpK1oF/EWcp+eL4zBj3WMKpMXQrTiDmEdrdqJMq35WL/6gz+oflDckpISLYuwTbS23zuUaMM0SF0xvxEXwGBMkGuZXY6k4iaVDMWYmcjpddq1eZ2ILqUkWT2sjHKZNPHFLUpfkdc9rwHRxazBnb56suNFJBMtjyIYox0EBln+xS7DwGO9wN8VbUJq3m671MtOhvMx41i1BowqaENsXo1TJ7vvqaCebE8314ugnqzewA8MDAb1ZP38zMQRrbZm9cKpvHj8x0WyTnKTi2y1Neusj0ZPNiIRRrQk2VCibUF0bjlSFq7A9fU/k5CpVOQExk6weohMnp5kbsjgRNKxBzuWywVDXE5DwN1PnsCshcuVwICnGglLqdBhk+3iQ+prW+A52C3IEO17Cbme0kjArnWVbDnd4cTtvleWaLAMK8yroBHuLj6jzJ1ZJCKdaJ3GNHzGh0h8vSoZqhf465ItiM7cJfXZTLCjnmws9WRFj7gV8QUNOC9rPf7fVUE92R4uE1pPdjioJ6sbTKgzjiA9WTYlcJEs468sj+MYoqvd6MlGLmTNCyNa6ijLGqkMxPjs3fho4RY0/O44XrMTBbUX5lw6bTvqPSNI1olN6IdGLQy6BpPfPdUFfMy3QRJyEvIZ4+OiTEUPTiaVkKPrxEYQrUw027IKvwAGY4dDknYSmrTEswWMXVnd2grV7nvnXsj/te/FORPtKMczzRDJRMvjcupoSXpDLL/pll37b+3OUKI7vagWMUvvRxRVeOZVIHHJQSlNScrZif+8arPUyTKwJL+LdbJ2gxsmCXFhonuaP6cXTC1U9t+bBETLcx9JtKHWbO+p40rf2V5gB4fUGij31ejJRi5GIVqpurDDm3xNztqGTxSuxy9PuNzGgQEMDfkxdA7eGFHvCZloznAF/GVhsGO5w8NiOvOz3MF+8QfNSMrciplFNbAy9yK2mCn/rbBylZxbCNG6OgkZon0P4JCkTbI62zukhZjuQKVKd1RNs4LqgmI/+HqHPUpMNgThxzDNEelEyyOQ5z7QBQxJnrBYnr8aAD5eugtRebWIo2B7Vges7FZcxFjjol2SyPM3V1fg0GPvCHnydzgu4X4Vj+VZ8neRZPmb+RokWiZZRgDRuvRkGZPTd46bCmYWGz3ZCIY2UApUmZXqDKWMEP6caySTAf/rm3tFEU1yGciDg31CtOfiQj4L0arBHZz75yKdZz84321+AnFXLMcs3x7JZGWZicRwcrkwk3RDJZ7URNO7OkO044Lbkg0hWP4sLEvYVc8cohtKGTw30br+30jov+3enY9yXNMIkU60zlIhFqYiWu7cfzkAfGyxEo2wCg/DyqayTB1Ss/fi/Jyt+MtlZWh+Vq0BXCscPVmJvZK0B+R3c3Hi73NbtIrQSGD8buxWwXs9Tk+0wRitlCbZx6il7iiR9rbdu9joyUYwzkC0/J5r5Pm5G3Ft1c/kPvfK3LDnLTde52LR8lEfSbQukg3r56lL3xiHOTYEtDwDpFx5G2Zmb8ZM714kirpLrWoJKDJPhmj/ZBALVMd/giQZGosNhS61kk5dUtfM3+V2b4UmPjlfO3/XRczu/zNNMRWIVhEMczFOYBi94gb9mR/46OLdiMmthZXdgtlF+3FRfgNmXHoz/rlgFQ69bOses3MjyUjHZKVOVlmB3PHzDHUTHB0PVkuI9phN3BgL0fJrcYFTZUiXNw4Bx+1+AkZPNoLheASDRKvDagRbMrJXd/MfA3K/+waHgAATBvmsDDlcOJYRQrRqBB8AvqfdJDLJhhTp6s+Jyscg8NelOzFz0SpcULAXSXksHalCUkkHrCy1kIcQrWNBqZ3EdF+oxwVNtNLykt+765XDhR50LFcRqY7VTnc92fEi0onWIT7ZpZ/CEFQ3p0cGFdEm5tXCyqzDzKxqXLhwAz5/1Xbc/eQp+QxtPa4HolnN0r9+1UBfCIpKOzZRuf9eOLlN5HAfz6hEax+70ZOdonCIVrv2Q4mWsqR/UbwNjwbUxkrmg51bwDrwc5m/ZyRavs9HSO9GuweVPJD6bEDiL88AWLThAcxJW4k5eduQklcmLavYy5OyakqjtEnplo4gWrNQjwuaQO3ym2CrS7eikq5v1nFcFzGTGNi3eBrryY4XkU60ukGNai/RhUH0Sx0oifZji3chIacCFxS3I/oLy/HvJTtx7+MqWUosvT4SM9DlV3qywXUkoOpk6ULWSU9OT3Ulc6c37+eyWL3X44xEa4PWrD7eo37g9T5Fsj95+hjSbqo0erKRjDMQLb9mH//L19yLZ+2EPnlSOJf9J8Wjey5zNyRGq0ZwB6qXg167LRtFBfQOmIxO8n0RwI2tj+OijOWihcp2fixo1wQbdJXovriuHZ6JT4wfLnexu6e0Ilpao9rqdSVMuZKllEU7ffVkx4tIJ1r9/PNYGIHkM02i/aUf+P9KNuL87E1IvXwlPvf1eux/TInC8z8Gut8Ghrsw4B9yNuM8m/6BAHp6mHlMnzI7Qmmi1Sphqiji/SBa/bs1ibqh39fnP2INdLmO+f4J25IVd/ELQ1j4/XIkXfJtoycbydD3Jp8CGXWqtMfmK96X2Xnb8P3Op/D8sJrfAb/KqB+mRjIC7668Z7QRPjnDPyu7WWbcvdCPj2bfKa3GYos7YHnbVDtAj9L3Uw0tXJ2jZKFX5BAa/zN413DVtoZaoW63sRuh/1+TafjrSJBY3Qj/+fRCJBOtJhSWqEhyh52wRKL9XRfwX6V34s8vuxZfuGo99j+q6mSdrGGxVnsdIgpfG9SGXWfvBklLj5Gff7cjNNbrPhZNnm4ydZNq+HtEX78/WAdst5+lO1w3ozj0EvCv19WInuysq1lVoTefRk824sD74SWaEe+pkU5dUT4m8zYiJq8Cc7PW4KFXgWPymHJODIAOYyljk3k/9udXGla826En6ws9wKev2So1RzHF+2D5OhGz+KC099NiAsqy0n2QGXymBUY1HzPRDCIXEU+0JBPb0uTRcK9OQn3sOPDvaVfj/wq/h8OPvq4EAmiFCjvaYiMDwYzciRtnJtqx4HhXr3S8c4if90dKe5TaED9Da/ae5/yS+BSzaAPmXHc/rMxGm2RHzguDCAA5ycdOXR1I8lQjmaIqzBBniWrGTvzjtXvwTI9+bqnj3QtuLRkyHcAghoZVbsJYxntCtIxZ5G+8CzOyNilLiD09Wdrjqbf93qcjWrOjM4hsRDzRst+wxE6B3kHloSKp/O4NPzK/djuO/O5VsXD5HmOU4h6mWk2Aqu0q5jrZhptszwQ32bKEkclcqhOebtADnBpU69tDrwBfvL5SOuGxyXwCZSm9I+eDQQRBPAxtiCvpVH2OPVXShzq5tB3Wwk3w7PqpeDE00QaG+sSjI20YMYzA+0m0THvnRNz9s6OYlbFOVGCk566nEVY2rVm7AFj7w23XsSFag6mAiCfaIRKmasbAo9HlKyTXh594VZ5tkuwbvXqBUVnGyr0a6g6ebENbqGd6PdU7YH+vNx398hquJ/uZ6/aKaPv5+XtEu5l6skmUBTTrV+TCdh0zzMkEXhIt+0AkFtQiLm09Nv2iV54DeW4lmY92rDu3YOxzf9xEy/R+xnV+NwT8uXcjEnL2IGnxvmBZj7vVn5OUo4nWNKY3iGxENtFyBBAIBOAfVK5jLiLH/YpUpavTsLJkuZOXn3X3O0Q16HcithM2tHU6+gjXjw1/tY0FWuiaZIf75by0nuw9rys9WSZ6Wgu3INFXg9SiBpX0aWTuIhu2RUv3P7W4E31VQrJR6VvxkeJduPcE8I7t7dA9r/WT68yvMY5xES0HFxDugF8G8IUbGxG/cB1SipoQl98oSjFOnZhDtDrj1SRDGUQ+Ip1oNVFxw9wzYFu1Q8Gjo3OYLmV+3T0QEAtQu1pPT3Dv3xidaIPlOQq0vsPfC0JcxnbDja5TJ1Qpj63CQ5KNWUDR9h34wHceFnlJZhNfdE2HCC4Yoo1gkIfYJrigFXGF9UjKrxaRd+uKFbh0xRE8bucrcBOq5wfHkObXc+hYMW6i9Q8Cp4ZVl5hbOp/CjPnLkeopkywulXnHk9L1ShqKaA3JGkQ6IploeVzuOCVbDLqXDq23ydfu7m6nmT6hCXfsS82fZuhzCD0OLozuEh2XxJ07A3p4EP1dwU5W/qFB6XSlRdv/7wctYjiwhGfGdQ+otop0NfLep+8SdR7HkDCIPAjRsrynGfFFjYjz7MVM724kzb8TN9/1Cl7S+rMkVs4Z9r3mNzbRDtHSHeMYN9EO+IfFrfTqMHDfq8CfZa3AebnbkOyplFaMwfT3YO3miBM2MIhQTAWiZSaxQ1ZsSOPvszs7+eHvsQXbB/sxODggu3uSLI98JMG9v0Nbs/o49PFrElWwLRGd4OTElfVnlLu4t7fXickeeRG45JZ2RF1+p7iKRU/Wtw+Wh60V9yGeGs+5NSIeYEJfEQzhIj6rDYgtbEBM1k7M9e7AxTmr0PqsMh6lYlYml020A5xH9nMyds/x+ImWf7NnSCVM0H3831/dhQ97NiNm4RaVmScEa2swhpNsWC2ngUGkIdKJVh9FkDRDCSgITVDqs/r/TW6iDdOTHRpAX6/q8cPh1pN118l+8roq0ZM9bxkbTPA+637iRk92SkHCmezJX4eYgnrE5+5G6qKV+J/vVOAFqPgs54WaV5w/nE8kXBXjP5e5P26i5QJCzzUTJ94E8PVd9+MDC27BnLy9SvlDWi2yXZ+qN3OaKRjr1mAKYCoRrRo6HsUSHtWwQRFtsJRnMhEtj2Uk0YZas9STlaYc9vE7/892CfJrZlcfeX5YYrJsvHPB1w7DyqgOkmpIkxbdVtGo70Q0aOj57EZKnmrMKCjHzPm34qrdD+CNcLUpkqsQLeurObfOzaMzbqL1D6i4Dg+IVm3nYyfwwcu/gw8VViAmlxOVE3K/Q7ROxxSZoHoCj3IRDAwiAJFOtPpIRiXaEIwk2nNZaP4UY2xEq75mOVJfX5/EoXnsum0k62S5brFO9gvX1yIpTcVkJUmG7mK7H7vq5mT0ZKcc8uqRuKQTVmYF5hZW4qKFN6PuV+84XdCcUh76iek6ZkhlSPU5PpeN5riJVrRvuYgElJn9/ADwqYIVuDBvu4toVS9QTtKgJqMrMSr85A0MIgRTgWhDCdPldg2Pb4ZbhOew0PwpRvhxBIk2GKMVMXr7uLXUXTdLd8L0ZP/rup1SJzuzoFpJfDLxafHdDtEaPdkpitwGpCzdDyujHKk5O/AvpRvweI/y0Oq5Jc+tPMR2W84hVeZzLr26x0206gDUSsI/ThdM6bp9mLVgNeI87Ai1H1ahIlpOUjZu5oQNxj3MRDWIXEQy0XI4BBUyQstfggiO0f/f+zvGQrT8mpbsgBZGYS1wADg2rAQCWCfLtopUH4tbsFaSnxJKSK5tsPJ003mjJzsVIb0evI1IKmqHlVON+IUb4F13SDZf6slUbTlDiZYCGUo2kRavfqbPNt4bomURnu23ZqpB+Q9fwvnpa4NEW3DIEK3BlESkE+1oQ5NWOCbb0Md1WqK1Nwe9fSpLmiTLDldaT/b+FwP45NdrEb1wI6x5G/Cxbx5yVHfmfPUuWNmsmnCpjRk92SkFEm2cj4ICTYjNq8OMzG3Y8uDrMjdkBJTmbCjRUkyj39m0vb9ES+V5CRKrP/6zt4C/v6oSMdmUiToIqzBItAkO0WrpKEO0BpGLyCfaUGtVLyyjIZRsR1q57/c4I9HaoGQff86Fkckt79gtYx9+8m2RuhPRdl8LzvvqEVjpexCfWyYkyjrZ1CV2EqfRk52SkFCmtwlxuQ2Iz6vHx5c14IfvqHkiyU/sFuYmU8li7wKGe8Wa1e7lsYxxEy2znSVAKxlZSpvyVQCX/qAViRnblNC7WLU61qHcLm55qfALYGAQKTBE+6cb+u9pEnVDvz/68YW6jvn+sb5hR0+WKjwLbixD6leuR1x+vdKT5T3LVVbqrOJ6xOSUS52sqo4werKTFzoT3M4i1o2QHNlQrbNtu4r1/7M/E+NpRFJeA1JzqvBfNxyQElUSKFhLToGJkLnFeaWy8HUy3ftGtM7ktic1/zB3jNU/fxNz5/0AcwoqEF/chujFh4NZfJ5GUUhQWXzG9WIQuYh8oh05wknNTW7v/RhJ9Bp6gQsnfPf7lLdzv8/uVQFu+ml9+BlP65XyHi6KjL11Pgf8y9eqYV2xBqlL1eZfb/i5Fkn81ejJRgj0vbOTagsbYBXWwSrkfVG99OkWjve0ICGvRV5JuEKyRfxcnTyvs/MbEXfJbdj1sx68Ngx0McFe6mVVcwr30+oQ7jluNN8TopWFhJPb3j3S9H7ktWH8vecOnJ+7GXFU9Ck+IDq1snv0tSCltBVJ9q5j5AU0MIgMTEWifX/HmYl2LGCnKqaJBDcDrhKlwT75DDf/h5/qxWe/XYPYtI1IvZoxWLuhzij31SASQKLlZsnO9SHRFtXCKqxGdIEKUSZ4mpCQ1yqI9zB8abf/5eeKamXTNCuvAn/p2YQfvaXi9/KcOi081bzSFixf1XNMvlM6zmMZ4yZaPQb7mAY1KC3aqGnJ5hXpdzRjdvoaxGbvESkiy9OuCLegDfGFzSJJZIjWIJJhiPa9H26yPRM00WqSZdenoT7G0Px2gwrgeL8i2QdfBv73W3txXsZqcflGe+oQxfLCUe6pQaRgFKJ1W7RMXPPQkm1FfF47Yj3tdiizybZoqyXLPGXhJsy/86C4jUm0smFjn29atLbxODrRjl2PedxES4kt+WOiazkoDcgZQmYsZMO9z+O89JWIy9gu0nmWl4Lw1KPtQJSvEVEeXQBuYBCZMET7pxuy4J3l9WSPlu3jGhRsrnHyZJfTVvHH7wCf/XoZUufdjtl5O5DirZAYbLzxqEU4TkO0Bax2UWFJWrAk2BjvPkT77PaZhUGinVtQjdQr7sDa+9/Ea0yWs1tBBfp7/v/23gM+rqtOG77q3S0JhND23WUXdoHdfYF3X5Z9+baw7AYSXGRbbTSjLpc0UmhZAulx3Hu3bHXJsmW5JXEqkBASIKEnkB6T6sRNdTTt+X7P/9xz585oXGLFlu0555cnM5oZjcZzzznP+dfHdh0rouVKJclG3ce8dwaJlh1XImGSbACRYYaRw8L8VMB44ijwNzXLkT1jKfJndcPybYXl7ba7rjD5wCQSGJzbMEQ7uqGt08RD9ZQ99q26ET1dET9QRDvQ3+vEZB8+APzDVQ3IL16GtKK1SPdsQV51OwqqW2EZmbtzHO4YrU5wihItX5NasR2pJFnfTpUjpEm5pgNpVY24yLsGf1m2AE/2K+Owl9zJSSVEq3t8q7U7Ik7rKiE70Rg10Uat2YA05+bPZP63gkpkYPrde1EwYyHyq1rEirXKO5FSt9tWxIj/4gwMzi0Yoh3dSEy07mQTgrGy+MfiwAzRSEBIVuvJ7n4hhP99zRZkF62ENXUNLrj+EeVJK2/GBbO7JKRliPZcxrGI1q1zTiuWJMs2wK7+1NUdyKpowMSpt2H6zZ14DcCbIeUelgk55CJaV0IUbx2iPUmS5Xh/iFa3bJPJHhTZLVIuZYZWP/4uPuJZjKzi1chmKj2t2hr9DzYtGA3ObRiiHd3gdxPdvPTgnuIu0XFJ3LnKdmSv6T/itIjke/SHFcnu+KNfEp/SpixAds1W5H/zYVgz6C7sQRqv1dRVos5jGk6cy7CJVnOIhALoMraJVpdm6X77biGIqjbk+9bj4sk3YsPDL0lOEWusZY0yPjvcD4SGnB7f7nkqczXxCfGY4/0jWtt9TL92v39YapGoUfvUIPB3NUuRPXU+xle3IL2yU7KOLa/pDGVw7sMQ7akPvVeN2MCcw3t8z2UXyTqvYZP3QQQCAfSFlbt4337gy99pRdrkeeImtrxUaeEmu0f2nYy6nWofKm4wMdpzHlGiVXWzNtHyOU201S6itbPM0ypbMcG7Cp8p+wGeHwDeDEQl8UKDqp+xsmijRBs7R8eKaF2LgX+fJjiz/V4AULf6YRRMuU1cOBPn9NhW7W6bbA3RGpy7MER76uPERKu9ZFGSDQbEuad+n21fw4MY6j3kxGR3vgiRuqMlO2GW6lGsNmMtAmD0ZM8vxBKt1EAL2dpEW8de+z1IvfJ+WOVbkVbH6pdm5FQ2Y9yMebhyWTde7VVNKga1J1hnHEsylA5b6En33ghWj/eHaGNOoGrz4P/pPqZJvu6xN3BJ4S1SU5tT3qBitcwA40nD1LEZnMMwRHvqQ5PsSKKNtWYDg32IsFOPHRNzkzNly3ifh/rdzw3j/36rDRnTl2HCFbtgzWyKkqrTQUi7G11uxATX1eAcgMRlo0SrGokolSWHaGt3wqrbCau2B1Yl12g7rNJNGFexBZMm34xtT7wCFoIxrj/ImKdMsDg+k59dk3ZsiJYjjmztDlFcGtT1+70f+Oe5y/HhskXImLkSWbXUAdwOq26PIVqDcxqGaE99nBzRRveU4eFhkbrjT7qp+5FhVfv4k9eB/++GLZJdLL3UfduMnuz5DhItRdvta8j2vpm+NoHqAGV385qzC5avDVbtNqT4mpFevA6TStfgH2qW47VhNZ9EQjGgV6jmMzdck/QUyHbURBv799yZgGoxcBHQqr1248MiqsuFMK5+u1oItfSbm4lucO7CEO2pj2MTbfTQPnCUR3W1n2iCpQXi1pP92QGlJ8s62VzvZqUnS5Ktu8/VY93oyZ530ERbrUIEJNosL7tB8Vrr9pnUFd4By9cCq64T2ZVbkF+yGhMLF+Kbm34mXldOuWA45MzBgDTwtxetQ7j2k5yKp0C2oyLa+IWihj4NqMeZoMAswF3P9uOjhd/HBWXLVQ0bE6Iqe8xENzinYYj21Ef8/pGIaLUlOxSMOFbswSBw2G6K8+BbwD/OXSt6sjkzlyGjvFH1Vq/fA8vT5RCt0ZM9DxFHtJm+DuR42wS8r9zHnbDoQa1ukQYV+ZUNKJi+GBdPm4d7XgB6Q+RRziy7A1Q4gqGgIl32zY6Sqk22Y0W0ertIRLbywe34yYsAvnLDRlxUsgjZnk12rMQQrcG5DUO0pz70XnVMotWesUBIvimS7Bv9UT3ZfS/48blrW6R00Jq8BB+/bo8o61B1J3f2LliedleM1ujJnndwE23FNkW05YpsFdGyp3GX6hZV2warYiPyPKsxbtqd+PI3W/Ey55RMPM6sIEKRsBzomGcs3hOdA6WJll0Q3SR7polWt6bSG0l0oajHuTBYU7tg34u4sGg+cj0bFdFW7zJEa3BOwxDtqY/jEq2NwcFBeZ57DDNDD4YVyT74m9dw6fWrRE82rXYnJl19L6zp65FX2Yxs7xZY31iOcXPZpMDoyZ630ERbEyXa3HJCxWmlzKemQ5FsdSPSqjciq2gxPli0ALfs3C+cJCvQbts5HAxgiLHa+HaLZwPRateP2wWkhloo3GB07+Nf9gGXFN+JiRWbkM4MMDaucOqfooh29XAFtDVcadyqZirBBTAwOEMwRHvsofeC+L3J/fgx9w6X65iPHxwMC8FyH6EKz5QbNyLva9+VZhSWZ7t0nOOeQNcxQ1NsFm/0ZM9zCNHSYFPZ5BRxz/LSom2Va6yubQuseq7HLciub0H2zEX4hG8xHn1bJeqqNRklWgpUcNaJUp6ek87EHSOijS4IZWOP2D74QcIh2WSOhFVSVMndOzF+xiJkUjrPduVwgWh9R02g6ouMXSSSyi1Bb36RjcisaDSuH4MxhSHaaPIjh3sP0htV/GHc/fh71ZNlneznr2uFNXWJ0ZM1sMk2WuYjCVG+ZuT6GpDja0AqD1wV7Uibey+s8mYUlCzH9Nu3u0g2dg4fk0cTPnjy430gWn+MQK42u+XzyAdTRMwthf+4NT95HR8uXYi88gZkVrFDR5Rk3WSrvki70Fw6exBRos3xbRayNb1KDcYShmiPT7Qng5PRk2X46Z4/DeBLNzRF9WSLSJKmPDDp4SrzIR+QF3J9G4Voxcsxaxes8m0SSigoXIDmp4+Kl1VxkzPpTusYPdE6HTTsE6nj9ybs50NBZ7H8IQT809WbkDNzBbKZbi8WbLSjh4b6AnkKdXd10e2z+GU2I7Oi2ZxIDcYUhmhHDjfZHg+aaI+nJ8s6WbqMWSf7bzdsxKSZ88Xlm1LeqjrMJbgmBkkEaVrh8lZUtgovKI9nMyxfhyLa0laMq2nDZ+ZuELEbIVoRw4mfvadnjJ5odVG5dv3EuI5tZZ/QMPzDYUlkoErCda2/xvjCu1Hg2+yQqo7PauJN6PZxxWijHUAM0RqMHQzRHnvoPex4tyejJ/vYO8C/XLvJ0ZPNr2iUWGxWdadZ/8kMN8naggLiFa1sdnhEJd1uR3ZNp/S+/m7XMxLCFK8ru42dO0Q7MkYrG4ocW4NAcFCs2uHhIPrs5hWsfftk1TLxl0vAOo5EY5HgCzYwOEuQ7ESrrdPEw04eOeatujmeniz3is9esRF5RUtFT5YES6EAWicpJRtM6CiZQc5w6mjbhGBpxdKqVZyyQ7oPptVsFy/IJSV342dHgHcdjjpXXMeyyrhoooFk/gPks2ui9fcJ0YaDIVk8zBqk6V4yr0eEBqTuTTeGdpGtU1jucifHWrm69ZYpDzIYOxiiTbRXRctzFPRh/Dg4hp7s569tcvRkL/rWj9XBu6wRE+s7jZ5sskOIljk8jM22IqtisyTISjIt83pq9sKq3o3s2u1I+/qt8C6+Rww9lomFhLKiB77TPUZHtByulRaz6HR8Vuv6hVXROd3HJNvmn72Jj8y8VVqmHcs9zEWUMEkqJm5riNZg7GCI1nW4doZ9+HZKdE5dTzazcHFUT5bJTzU7lSjJN5Zj0pxuU3WQzHCIdrtYs0x+YmxWDDKSbO09sCp3iTF3YeEt6Pr1QWm5KLkBgaBSfzqniNZFsiOIlpp+TGyIqHo4qakNA68D+OLsxZhQvt5lqUZ97rplGgmW7gDlEnARLU8sko1siNZg7JDMRKvXuyZaWfvyPxfJvh96smXUlOWGuhdU/Uqv7VF6smX2pprguhgkAVwWLfmBlSiSAMXnbKJNqduN3LJ1+P+uW4f9YSXfSqOPfBQK0ndyZsboidYesSRrEy0XEpOhwgFEAuofxZZXNN3f9ANrH3wBk4oXI7W0Adl17EvaAau4CXlX3Qdr+mZk1HTFEK3Ec+ULJtFSZ5CiBCa932DsYIj2eEQbQNjfH0OyrJENUe+Tv8eNzujJGpwqeP1rd4n8XVZNG/LYQ790MyxfJ6xZ+2B5bY/Hf34fzb98F6/02gw1PIiQ/8wlQnGcfqLVoCICu0QF1KmClu1vDwF/Xb0MBd71SCvZgMyaTpWK7eXmtQNWuYrNutO15QRriNbgLEGyE6244UYQbaw16+8/qg7cYsnGkrPRkzU4ZdAD6qW2eQcsbxPSfC1IZ/MKSZDaiZSabmSVrMOn6lbiZ6+Ho7WzbIRCizZw5tbfqIk2hmDdD+gkKdtMBzcX1suRbP0hWVyMxVyx6SeYWLwA2cXLkV3RhFS20yptRdaV9zvdXka4j8VlYIjWYOxhiPZERGt7tey+xQPDKlejn3mSRk/WYLRgwmxdtxJ097YgpY5CNdtheZSFmz35Vnxzy2N4I2yvNunroEKZrIQ5U+P0Ei17HQfV9hIMRv9RlL0K+IdxKAg88gbwsdI7cKFnGcZVNMAqakAKJa7q9zq9kLVVGxOnNTFag7MAhmgTEW3UmzXUR1tVWbJsTKGl7t7sDxs9WYPRQdfO1m1Dav1OiPSqdBIk0W7BRO8afKz4Vtz/kl/mmqw/e14Gh9nN+MyN00S0dtp0RG0wvBsIhhGivp8MtRC5zbwFwLNgByZMvgkXVq5HRnUHUmftheXjyYTqPtvFqk0YpzULzWCMYYj2+EQrh+1wGH1DAYdk3x6CZH8aPVmD0UCVgTbBKmmAVUvDa486oNXvRLZ3E8ZNvRUV87fKYa6P64/nPXuiBoMqOfdMjVERrV5czgd2SDZan0SDVi/G6D/Uzja0F9ue5/244OvXo6BoES64eg+sknZYVXtg1d6r3EN2f2NNtCpO666lHXkRDAzOBJKdaDXZJiRaV0yW8mOaZLWeLFV4jJ6swamC1mwOBd2LNsCq2Q2r9n5YNfvEE5o5cykunvJd7Pz16+i35x/nIcOyeq5yTZ6pcVqJlj8OU9/Plh5yFiJjNsP9kol8JKLaMk6+uRU5U25DQf1WRbQ198Ga9aAdh1XNoke4jw3JGowxDNEeg2htDAwMyPNaT/YQlbwAPPy7N4yerMGoQB7IrW5SnaDq7oVV8xCsOT+G5elETuHdmPz9BrwetLVlQxGZmiRcrjpZgXpBnoExKqLlGEG0rm4behEO+MPw2ycJ9Qu2RWu7j/llbPr5O7iwaB6s4o3IvGIfrDIuMKZuK9exbl6hXEauHpcJLoCBwZnC+Uy0el3rNe6GftzxVrn3gTjXMT1ZfSGV/EgP1kOvhPC1G1aj4LIbjZ6swSlDOgYWr0F+XadqTlFxL6yrfgqrqBEfLF2AFff9Tg53XGeh4JCEMDgj5dAXiMTN2dM7Rk20Jxrxi1MNV8F6aBD9IeAVAJ/7ZiNSitYhrWYHLG87UsqbJDmChcjR2CwXHK1cWzbPkK3BGOLcJ1ptfarhXq96I3KTqZtUeWv0ZA1GAxpNpwpe//GVm5Feul4lz7KpCbmhaB3+6arV+LOWXoxQEYpqUAGZo2Lhjjgcnt5x2on2uINE28/lp9zHd/3oIDKmr0BWRRtyKluFZNXJtUGl/IsbiWU9e00dncFZgfOdaE8GRk/W4FQRT57vBSTaCVVbkFW+CSl1OyElYZVdUip6x+4/SIhC2n+GjwJhRmqTmGhDfe/KP/YNAE9HgM9c0yan3Qk1KuGBYPIDv9j4eE20kH3kBTQwOBM494l25HCT7fGgidboyRqcKuLJ872Ang82Mkopa1DlPcVNSPc24i9nbxTdc2a2K6LVFq3SRT/TJMsxtkTLk284IEXsXIz7AfxgzyvImXwHJvg2SpwmtkjdLQBvSNZg7HE+Eq0eeiM63q3RkzUYDeLJ872hQ+L46VXtsHxsWNGM9OmLce22P+JNzk1hUxKtsmY5oquOXpwzt/7GmGjVYh0M2mIDtGr7gH+9oQGZk+chv8Z2LUlM1o7L2q6mtAr1RSsSNjAYG5zrRKut08RDJzYe61bdGD1Zg1PFSPI8ech7VHQha9ZuWKWNGFfdhL+oXomng8qLQk+LmpPKu+K2ZtU9km80bHI6x5gSLb8Hvd3wH8/FeQjA3T2/Qt7XbxK3sZArS32q77GJNtqOTVm75kRsMHY4P4k2Wp7jnPyNnqzBaUA8eb4XiEezln0XWpFb0478mQtxXdtTYs2qvsZ2noArNkvIOrQPhUlBtPwHM+1fdH3Yg9Iu93ly/yC+fP1mpM1YZRMtC5HZjm2nU7BOmKxDg7HG+UC0I+NVuhZel+gYPVmD04N48nwvEO8m5fBmNEpS1N/NWo1fHla12jICvWpuIiwcQ1rlrTxNKzfMw+GZWYNjTrQ8eQzKoXgQGDwoX8zhMPDD7b9B5rQFsCp3xFi0XJisoyNUkpRZqAZjh3OZaLU1q4lWbUD8n4tkjZ6swWlEPHm+F4hFW7EDebN6kHn5Xbi64TE55MmqonBAqE8OiZzSWjHOWXHkG8Zuk4VoWVAsFm3gKBA8CAwckC/jqV7gU3MbYHlaYNUqEV+rYjtSvS1I92xBQW0nrKJNZqEajCnOb6I9OT1ZWrU6Jtv9XBj/dEMrMqYtwrg6l+Vh9GQNEiCePONh+TpELpX9r3Nm7ZT+CkQa1xtlFD0d0k3s7+rX4td9tss4PKxIVpKgVJ035yehZi6TcJPMou232zMi2AuE3gX66GEPS2LUjT0vwJq8CAVX7IU1fYsEvVPKm5Fa1ojsStXQwhCtwVjiXCdafpKRRBtrzR5XTzY0LPeZfLLn+YCjJzt+7k5YRc1RUjV6sgYJEE+s8cio2S7QP6dXbxOSleeqtiKroh3WV2/FD3Y8Kwc96V8c7kfo8BuKSO1VpuOzao6TaP020SZJjJYxHfZCRqAPCB0GBt9W5QEAft4HfPqqRmQUrUGapwnZtduR4m1DRmW7WLZya4jWYAxx/hPt8fVke4OqGcUj+yP49+80Y1zpClmbVjmlLPc46js6gVGslJh6eEO0yYx4Yo0H4/nZ9T1CsLRus+rYhnMrrGLVXyGneA0+WbMKTx2BiAcgyFBGnxOG5Nx2N6hQEz2ocoKIZEiG4r9ZfwGR4QFl6vNLCg7JIqaE3oIHX4P179/Gx67eDqtkM1J97cqF4GlBWhXr8EZePAODM4Xzk2ijMdqT0ZN9/G3g/31zLQqm3oE83xaksM6dMdlZ9ztEa/RkDRIhnljjYXlaxYLVBMv74jYua0FW+WbkXH4LFj+wH+9K/2JO1UHVbdBWh4vJNJb5bZOszO9omdrpHmNKtBx6gTv9USW5wi89U7mQnwsAX7p6NSaVLkNayQY54WTO2gPLy83NtG8zGFuc70TL+8fTk33gTeBzV66Xjk/ZM5YirWyzskBm3wOrjH2KjZ6swbERT6zxoNuYZMtbyVYvbxNDi8Sb69mIf75mE54bVrk+kjMQ6lf5PlSOCkScTGM14Umy5BfyjHslnP4x5kQL2XTsRS8HZy02EI39tP7yHWT853cwoapJfdmyeLthVXWb7lAGY4pznWg12SYkWldM9lh6sv94TRNyy9bBmroMH7lmpyQq0nWcP5f1jS2uGK3RkzUYiXhijYd4L8taYmKzTIwSwi1ehXU/PSC9F9S09QNDR8Sq7R8YFpIlAYttK4uQJEuhC2XtOlbuGRhjTLRhRAJDiIRV/eyQToySp4ZksTMGRBfyV77fifEVDYpYfT128wqSrSFag7HDeUu0Nk5GTza9bpfSky1ch9yKJqUnO3mF0ZM1OCHiiTUeJFj3rQobtsIq2oJ/uuUBvGjPS4TZArQf6GWOjx99/og8zritIlr7eclGVm1Dufpkup+BMeZEi+CAlBBwMbsLilXMdhj+kG3V/m5IYkCiU1nBGA/VGpRFq1oxxkNfzFiJLXVxo6+Lv/AGBu8FZzPR6k1Ek6gb+nHtOtZkqwZJVn++4+vJ5tRvg1XKmFk7MqpVjTvLLTK9TVIhYPRkDY6HaAghdp/mY+Lt8LUhd/YuFSYsbca4OT0SQryorgWLn/DLfJTV1MfMeNbOqpIdztyjQVf5qBCtXTsbVrW1yUO04jO365nseiedIaY3BD727jDwNoDSu7owYeZCiQOxUFkK4G25pMyKZgdaIF5dTJ6oNWzNy8o257WGbA1Gg7EnWm19quEmU02ebjJ1kypv+/1qU9Lwh8IIMtYF1tCys84g+vsOO73Iu18AvvDtDqROX4682dqjZPRkDd47eO1lr2YbTu7P1TthVasEOT4mh7DiTUhjnNbbiXFX34/U4rXIuvw2lM7fJa0WSaSKLGPzCtzzXp6XReFuuHLmSJbjLCBanjBUhw7+w3WWGL8OfkncoPjzYQD3vzCET3jnY7x3g1rcHlVfFU+0jAE5PVSFYKOqP/riUl6JML1WDUaDs51oTwR+giMDfonBOpuSvJ9KTAwHBuQ1XH97/tSPL36rCWkzlyGPerKl9vpK8L0YGJwIshdXNiOtshVWNdspst0uyZb7tCJaeklkbdX2SMXJhIr1+IvSO/GT/UFJyHs/VtCZGGcB0UY7dHCR84vT6dj8ma3deJ++dlq1cxseR9bkO5HBWj1uaNrNYF8YBV1GoE/TUYuWjxmL1uD9wtgT7cjhJtvjQX8KP71qtA4G+hAY4vYVwLBffe5Dw0ro48FXQ/i3b23ChKL5yPKsg1XaZPIjDEaHKrVvk1RlLtGaFXCvVs9n1vfIa1nKmVuxBdmX3YyrGh4XLuh1ramzfYwt0Yq5H1VR0ERLqJO1eg1LffgKuq4ePwr8dc1KpBcuxYTZdvGyK+46onTA7bZy+//p3pKLbIjW4NRxNhKtHnoNHe/2cP+Q/bnCiAR54OVKC+DQ4aPiluOae/hN4AtXrUX25FtRUL4G2d4GEdvOqlVrKf47MTA4aVR12KQat0/bxlH67N0Sp82vasGF5avxl555+GUf8EZYZcEboj2pQaK162ddRBv98tTzrI/iqZvuq9cAzNv3Ki4ovAMTKzYpy1Vbqw6RJrigcdDEHP+4gcF7wVgTrbZOEw9dkH+sW/WZAqEg/ANU4VGH3r6+o2DWBEn2nteAT89Zj+wZi2FNXwmrdJOSJKtpg1W0zoReDE4dJFh2fCJsC9YhXcZrqfRUv0fm2AUVG3DB1B9i0d4/yrx8Y1Alzx577p9d4ywgWh2gjrqzZEOSHcRWBwlKq2g5wbDU5wUAk3/Yjqyv/1Dcv1HXsHYPaxwnw9hFzAYGp4qzk2ij5TkKdhecEY9HERpmcCaA3t6oQMCO5wL4+ys3IatY6cmOv/ZBqV+0vM2YOLvLEK3B6OC4i7lv08vI5Di6kUnAu5UEnrdLDnUFU27Dv129XFzGLDHTSjwj5/7ZOcaYaDmiyRx605AvT9pjBYAQy3xUTS23p3eC6qTd9fQB/G3FAuT6GmJcDbFkeww3cczrDdkanDrOBqLlu8VuOFw77kPsMfRkEcRQP/1E9Cgx+zgiJREk2a5nBiXxKWXqAklIyb36QVgz2mBV98Bi05gpKzDpClWuE/+dGBicFIRodwvZkmB1xYhYtppoPR1SBvZJ791ofPQlSYA6MqC4YDiaA3jWj7OAaNWIIVl5wLZmdbKUbdXytK17rNav2IOJ5attEk1MoG6iTZyJbIjW4NQxlkSr14smWnVA5f9cJHs8PVmxdOkxGsDQsB9Hwra7+FXgn7/djJRv3CVuYqu4BVbZNlg1ShM6paZbeYlMeY7BaMB9uIaEulP25phKELqOq3Yit34H0i+/E9WLd0pSHrPjw8FocPFcGWcF0Y4gWWejcBGtxI9UZjLJlo6uNwB83LcMWSXrpPUbT94Zs3bB8vFCKtewJtqYuj0dA5CLaYjW4NRxdhPtSD3ZYMAvKjxqUC5sAP1H33XVyUZETzZ12kLk1WoPkPtgqsrkjDfIYNTgHKrcBav+XqT4WpDp3YLx9Z2wSjerfby8DekzV+MT1Svw236AMu5qwnM+R/MMzoUx5kTrJtmRRGuLDGiiFReYeh23KHaqWfyTA8ifNg/jfeswoY7xI9ZkdSNjzl5YcvJW5TwjiJadagzRGowSY020fKeRRBtrzQ72HlbyYXaIhp9Fx7dCwSG5L6Ltzw7gC9c1I7VwidKTpSXrJlUHdnMB4xEyGA1kXu2CVbMLVpmK+6eXrkdBbTtyqzsxsbYDE2Yuxm17XpT5KatFhAPY03ggnjTO6nHWEG3MA8dzfdmbBQet2v0Apt7Vg8xLb8RHZjfBKlqP9Hp7E6iJtmjURCtuCclsM65jg9Hj7CfaoPQT57qhJTsYCMtf7aXiSQQ4HFAtTu9/OYAvXd+AnJlLYHkaYXk6o3qyLs+QyujXXXzMQdVgFODcqdsLq6wDObN2IK18CzI9DSIek12yBgWFCzDljt3Sz5ixWZnbg+xX7AeGmbdz7li1Zx/RujIhTwRt1d7/agSfKL0FFxYvwISaVkiyRmm7StyojHaDcohWLrJ2h5mNwuDUcXYSbfSg6taTZbtFLXX31kBEyuXoLv7R68AXr1qF3Km3S1MAq7JLuq5Ztfc6a0R5hYyerMH7iW1Iq90Jq7QN+VfeA6toI8bXtkvnv8zLbscnyuah51m/7PGHOWk5t2nJBujlpCAN53jcojhLx1lOtNHnY19nbyQ86YQV2S7Y81tM+sb38MG6ZvHxC8nW7labgW7T6FNdo6LuYxNnMhgdznai5X3qyR4d8Dsk+85wVE92z37g07NXYdyMeciYsQSpns3IqNsh9YtWKdeJtmijerLHLJkzMHiPEBF3Xwesii5R5smpbMW40hX40PTbcEvnL8VlzMYpvQMhmduydLiY+J8h2pMfiQk0SrLuLUlvKNHXqUYXfRHVyOJrN7XAuux2ZFa1w6rdBat2b8yJXBGttmpNHa3B6DHWRKvXSEKida2jweBIPdldfziKz17TiKySNbAmL8HFV3VLxyfWyeZdsRdWeXs0RuvSk9W9wk0LU4PRgHMnq7oTlqcFVnkncubsRUZ5M1K+dhum3rIVL9vqO5JkHAH8Q6HYeX6OkCzHWU20ejuKFxpQv8j4k5I9Ghzsl9TvzmeG8NHa9ciqbLGbU5NoqVu73UmI0mR7Mt2jDAxOhLOWaG309vbK8/F6sg/8+s/4r2tXiApPSt1OTLzqHmlKoUssrGmrMPEauo7d8Vgtc9eIAu96I3NnMCpwLtGCTS9vQSoToiq6keZpwsdrN6HlV70yTwelnofZ8SRaFS4UHuD/DNGe/Ij9rmLdxomI1nk9CZnZyIHDQriHgsCfAVzb/Tysb8zH+Cv2KPextmjtk7jbqjWncYPRYvREq+Z6oqHnuiZRN/TjfCeN6Frie0bfPxAM42ggqid773ODQrITp/xA+hVbZYzJdiC7rgu5VW3SiYeHVZZcqBALu/dEiZaWLEnWEK2Bmh9Rz6A7rKCgX6ubCOn+Bnar3JJGjJu7G6kV25BX3Ym86YtxTcuvpQMUk/Uk4SkwhHAwgoit5BawK09kGZ0jY8yJ9ngjfnOJbiQctH4DQP/bYtVS6osbCTPU/umGZmRNX4KM8kaRVmIMgLdpPptoy5slwy3HNEU3GCXeH6KNkq17rmvydJOpm1R5OzAcUodRu2RnMBAUFR4Jq0hHtUEMDhx16mS3/jGEz3+rHSmFy5BZ0xnNVYjTk42JwbpLe+zNNKZcLsH3YpAE0IcwV2Y6c2C4x+p8GM6njLqdSK/bpcIPvi4h1bSKrbC8W2H5dsHybMPEui7kXX4rpt3UpOKyMsl1rkG0D/4Ig+scGWc10Z5wiFXbj8BRbiHKNfbHfuBH7wIfLbsbOTMWo6C6FVY50SbB9szqLiHavOp2pJY2uATiDQzeO0430Z4IfIdDfYOO1J38rTA3p2FFtGG/vIaH0B2/P4zPXbMRVuFioydrMHqQaF1lXuLt8DF+3ywQbwfj/GwgVMEQRI+4iFOrdyCtYpsi2vKdyJ5zH9KnLsanvHfjJy/04Z1+Eix9xX020aq5ndCzeY6Mc5to7ZhueFh1uuFFOBgG3gRwc/dvMX7KD5Ffth7ZNdwQ6f7qkYue4qV7rAOZ3iZDtAajwvtDtLHDTbbHg34XTbLMVdDiAIHhAQTDIRwJKj3Z+1704/9duw4F0+9CeslqaRCQVqe0Pg0MTgkJLdpWpfXtU+G5NEmiI0jIu5FCUibJlncKSLoFtV3I/NrNuHP3c3Ig5D4uRMsmKyKGEWvN6nV0LrHtOU20/J6HghG14QSDUpDPC7G/V7VnLLl7J/KnzUduRRNy5t4Lq5wXeCvSanbAKtmMgtpOQ7QGo8LoiHYkybqH3keOd3t0cNh+3zCCYgGoDmq9fQOOnuy+/cDnrliNvGl3YELFetGTpdxdTr3aHOP/TQYGJ4VjEK2Cam6SUtWNlLrdSKm/TzVA8SpLlq7jrIp2TKrrROrX70DR4ofwMg0lOwQyPNAPhFWrRc7zEW5j+d/x18/ZNM5popVTPAvx9ffNjiGy0ag6wScPAl+6oQnWZXcjnZqHtffAqt6lSLdwHXKqTC2gwegwWqLV1mnioTvfHOtWvSffxa0nOzQ04MRkWSf7ybrVyCxciNTitcjwNUkPYyY8pZRsiDZwMTB4r3B6Eajwg47RxjQ2KbM7jFGJx9cjRJte1Y3Mqq3ILN2EgumL8ZnaFfhZL1QCFI0nP2tmdXczNdW1/ydqzcZWqJzt45wnWilZUNyqNprBg5KN/M7hXnGZbXryEC72LIVVuAoZ9aqBRSqL8cs7kVbVOXLyGBi8B5weonVn39sZxCfQkw0HuBIC6O/vdfRktz07hH+4qgGZRStgTVmNCdc9BMvbLnWyk+ZsQ2rpRkO0BqcOLdLuSpITd7E0NeFrtsMqt4UDCG+3uI0zaP2WboF1+XxcUngLmn5+UMJ979pWa4Tpxa6QoDvQ4lizusWoIdrTP3gBeHIXZ1mAWZaDQOioItvAoDSy4AX8n22/x8UVa5BRtkkJV5d1IHPO/Xb5j2laYXDqeD+Ilj/Fkq2dDOJ0dzq2nuxAL6NaSk+W79MXViTb+ft+/N8bGpFWuEjKdgqufQTWTNWWVD4r62TnKrm7+H+TgcFJI45oo9nqfMyWwSPJVtHI6ZH1QZLNKlmPD5QuxXe3PCrz9UBA7eNKAS+M8LAfkbBSa9OrJcaapVuZMER7+gcvAhNBeBHkCw/0A/7DwNAhsW6DoYi4kOn7//oP2pA39S7k+ZpgTd+MjCseguVjbMFkXRqcOkZDtJE4onVO60K0mlRPrCcbGe7DoH/I0ZPteT4oJJsxbQGyq1phlbWrzW72A7Bq94gEmWyGpZsN0RqMDglJ1hW/rexRuTEV3ciq24HMsiakFa7EJdWb8B83doq7+HDQjr/aC0His+xIYbuN+bCGWkAkWh0mNER7Boe98cRvTrbwAFvOPX0I+D/1i2F99Qe46Ko9sIo6YNXvk644lqdVXGrS45UbZnmb3KYyrhs/sQwMXDi9RBtAcLBXzeXQsDxGPdmBAbqJ+VrGsgYx1H9YlKxIstueC+FfvrcV6dMXSzxWPqcjoKFh9GQN3l9EidZ+zI7f6jAda2dzKtuRU7wGF5Qsw4dLF+KJfrU3O94c8eK4EV0XzvqQ17Gs01i0Z3DwYkRJlSN6QdRmRYkw/nzAD3Q+uR//ULcM1tfnIXvOPbA83arcR5Mq41eeVqTVbEfWrJ2GaA1OiNESrT6pxxJt7IGRCjxa6k5mNk/9dj4Um1HwMMl8hJ3P+fGZuRtgXXoHxs3pUWUUblJ1YPRkDd5fJCRauo69WyURNdPbguzidbikYi1y//MG7H4NeMkO+8WESQT25LaZNbou9ELR+75JhjozQ042TANn0FxtWrxwhLouQWDwqMrE9Afk9PTDjieQf9kPkO3dAqu8Q8g0e/YuZNazxlb97JAsVSUSTCoDA43TT7RBZc0iLJYsy9nES+OPSMb90ZDqXXzvC0P44rUblZ5seZOUsUmWvav0wujJGpwuxLiNBXa7RU8rJs7ZiayitbikcgMKvnoDftD1W2mXy8OhrAl3WMRlzbrJNvZn+zVyaz9/lo/zhGj75QvnBsRzP+HEbcODCPUdkNey3+urAGpXPYScyXcg27NJtaEjodJ9XNYiBCska1u28RPKwMCN00O00RO+v5/HQ3Vq7xsKOFJ31JPlM3QXP/BKEJ+tno/My2/GhLo2icFaXjZoiVWvMnqyBqcLqndxrGHCx6Tcp3gDPlixHjlf/Q58C3ZJj4P9Q2oeqwWhiTaOYN2kGk/A59g4t4mWdOoExRW5aotWES2vk92KLqha0fH0/2wQ+PJVq5A/+VZpZiGTguRaRrkmu9yhvE1ZuQkmlYGBxukmWk2yvYPDDsm+G4jqyW5/Hvjb+hW4oHQR8spW2TJ3tkykyz1s9GQNTgskFBH9WYsFaJIdV7cV6YVLMWn63fjiFavx+wG1B3Mu+/2qIYVDoO4Rvw7cFq97vZwj4xwn2uiF4JfODUv3w9Sbl39owHa9KU1OblB0WTz8Qj++ULcI1pTFYr3mX3mP2izLWoRg5T43rPiJZWDgwmiJVs/bhETryjvQerIUbdd6sruf6cWnr9qMzOLVsKYsxYe/uVOE2y1Po9KT9VE0wOjJGpxGuMp7CE2ynGciLlC6QdbBx0rm4ZG3gTeoK8s5HRgGWCfrIlm9BhwC1bFbnfjkIlr3AfVcGOc40cZenETQGxy3LdJtry0mzCzNhh+/iA9Ub4Q1ZZ2yZCvYf1NZsoZoDU4Gp41obRw9etQ5QHLeHrZJdt/Tr4rUXXbpWli1Pcit3wHr8hUoqG3HxNldsApXI7PWlfhk9GQNTgeOQ7QUFkidvhIf8q3BiieH8FxEHRL7B4aBUD8QZEZ9dA24oRaKrpf12yDZqiXC/ZwwRHsGhvsCxX7hUUuAzzEneSAQcXplsvaW8S6W+l/b8wIm1LK2di0yxAXCJChulIx1dSO1is2x7QbZlHbShdjVROwkM0g+sLsYIZnrJN4Km2h9XZhYshqPvdCvDno20QqhCtFyg4m6jmPnsF0jK1B6sof9wDt2new9fxrAV65eiolTblaasd5upNXuRN7sbtncsiuaVGmPt9neCI2erMGxYHs7ZB9z72XuLHU31PNO6KHKXTerwHVAazbf24CCGQvx/b378bzdrexdisySQEN9DtHGk6xDtNqzE2PRGqIdk+FYAscY+vlEoFVL/dq5rU/hQsa3pm+Ufpyps/bBquyEVduCtOqNyKrciFxvI7K8HUitYMxrN6y6vbBYg0vCHTF5DZIBEoeq7BSkuYjWqiDRbse4stX4yUuDKh7lCmnQutVz0B8KyobRH1CJToFIGMGg+o1IQGXMDw70RfVkn43g89/qRErhSpF8VJub0ZM1OAXInGDHJnZv2umEFxxjQg5oO2DV2B4R3pff4RxrRXplMyxvE/LnsilFu/165rVsQ46vEXmF83FN8y/w+0Flyfo50dmIIsS6cD8i/QzkRduQuhEdUe+ONqA4Rr7u7B7nPNGOZnA7o1X7JwBT79yDghnLMYn1tcWtKhO5rh1pVQ1CtPnljcjxtiHNxwmoiXa3IdokxnGJtmI78j2r8SObaHWr0HiiHaZ7eGhAyFbZuSEMDB5FOGAr8YSG5TnRk/1dHz539RZY05Yj78oHYJVqkh352QwMTgx7L6vc6xAtG0twHiuLll47m2iFbN1E24z0ykZYzAko2Yzx1z8Ma2YjsubsQZqHQi53oGjJg/itnfwkViotUpKsf5CiyeceW45iJDXR8uJLggmAX/mB/7qlC+lT54trLWfObli0YKX+UIkZ83GnCbspj0h6HJdofV0JLVrZW9g03b6vcwdCCKN/4AgiQVbHBjDs74vTkw3g/127AQWFdyO9eB2sslak1XKTNPPP4BQhexcJVpEsQ2OO+o7tFZHXSJjMtm5dFi3DalZNt0JZKy7+9oPIKNuA3Onzcekt3XiyVx0QuccODAwBoZAQbHA4JHM/6iI+/0dSEy1HYFjFbqkc8ctB4FP1i5A1Y76IEVul7bDoKuYkZJy2qlGhslkmJU9/ZqNLbugYbSzRsja7C+PLVuInL/ULmaq2//awY7SEP6RiVLwvAgEuPdnDoQR6sr6NqtlKyWbk1FEUYORnMjA4OdguYptkM31tYlDQ7ctbJ7TgkK3uMMZDZpsQbsoV+yTxjwmk2eUbMaFoPv7P3OX46QFFsjw2yrFSehcr1y/zFSQxlV1FnZ34/B7JTbS88EEG21WcjA2uH+8D/rLyLqRcvgh5jEv46FZhHKMDVvVmidlmVjaIGznLFjAeOYENkgUkWAHdbjoZykW0j77UJ0SqXcOys+jEDqqU2G5k1nkrPdkAjhw5Eqcnu3Kknmxti9GTNXgfsE0MBlqxJNdc72ZJYsr1NSCrYrNKluPep8nWaedpW8TUmq3dhbxZW5E9bR4+XXEnnnwbOBRhvoE9112JTIPDqqMZM+ipNJUsVm1yEy3jBAE/EGSq+WGwpQXdyD0vDOCvKlcjo3A90tlhh66V6g5YNY1Ird6I9KoG5Ja3IqecySfxE9cgmaCJNkWLX7O8R4h2KyaWrsBjLx5V3KoJlZasbDyabO0hRBuUNotaT3bHcwFbT3YZrCmrMOG6B2D5KIDRhElzO5Fatt4QrcEooWKyJFpasiRZnZGe42uQhCdlveqYrcuy5S1FA8pakT5jGf66ciH2PHNUehXICA2orn3DvaIty/k/FFEES6LVOQvJMAzRssVdsA8IcGvrF0viNaqg/BH4aNkKjPM0I93H0xuJthVWdTNSq5olAznTWLRJDxKsBn+OJ9rHX2TlazQuq8oV6DNTZBsaYvtQlRgyFIjmDFBP9n9fvcHWk92KgmsfglXUDKtmO1Kq22EVLsPEK2wXXoLPZWBwYmjXsWrRKRatTxNtA3J8yqJV7mOXApTbsvV1INvbgA+WLsCGJ95WXZ8CIWDgXaUNzjKeiB9hxmZ1Ryi6lMPAsHP4PP9HchOtFET7gYGDQJhky2kSlNPWKyFg8y96cUnpEowr36hS2cWFQtJV8dk0J0PPIFnhJlop1ve1C7gBTSpdZhNtOJZoI0ryTsiW1m0ggEAQOGrXyXY948cXrt2C3KKlSk/WQ4uiB9ace2HV9Tj13VbpRlOeY3DqECtVySbqki+6i2nJkmTZ2CSa/KmJNkqyfC6vfAMmzZyPdT/vxZt2QyAl69gHDBwAho7IXKflemQoLBat9uMEh5m5kBwjuYnWaQzADU/FahFSAXuSLTe9DU8ewAdn3o7sotXIqdkhzQGkzpbqKPpUFz+BDZIGJyLaR59jml0Y/f39CDHrUs+5SFjcaSx3GOrrR3/E1pP9E/Av39sm/WEzvC3q74xw2W1VcPWYNTB4z5C5FM0mduqrWbpToZr05M7dA2t6AzLm3IvU+l2wZm5B/tw9yJ+zAzll6/Dh0vlY+/gBUeOhy1iOk8w1oMuYruM4VTVFsvTg8DV2C8YkGElNtKq8Qrk0nHxzyVpRmyGnCZUmGn91BBcWLkDalPXIqqRofBdSr7wfFtvuGaJNaiQk2opWpHgV0T72/EH4/X5V1mPPu8HBQQQC6jQ/2K9qaEVP9k8hfGbuJliX3oVxc3bZerLaitAJKDbJuok3wecyMDghhGh1jayeYyxptEt7+JqiZuRefb/UyFolTbjg6r2wClchu3Q9PlS+DGsffQMvDimSlR7G3DtDKqkvElaWLB9315GLYUOLV9zKrjyF83gkNdHqOloiNIJo2aN2ULpHMRt52YNvI/+/70Z+aTsmXPGgnOzSrqbeZ4IJbJA8kA2q+5hE+/NX+yQ+JXMtGMFgQN0XkYCIcrUpPdlhfPHaBuTMXAbL0wLLs+0YerJ2+MJd1xj/mQwMTgZuoo050NmJT1XbxZK1PO2ibsa2igW+zbjAswoXzLwbCx96HW/ZIgGSQ69Pk/aJ0k2yhJJ2oTVLT85hIMx+UcnhPk56onW7NMSLwQeJCCmWGaN+vHKwT8i24YkA8i69G/llTchgQkqFHbeNn8AGyYOq7pFE63Id/+T5w7bnBOgLRNWlqI18MKgSnx54JezSk+04jp5sq60n63InG6I1OFXEuI7d8Vcdj92BFLaZ9bZjXP125JdvQPZlt+LjpXcJye63906HXHUagjZibBLWzVqUNcuwCTtD9dk64saiTYqhJ4WAWXDOpOFJa1D6zfLHQ0N2zPbxPmT9542i+pNevtGUVyQ7jkO0zDr+2f4hObP3haIn+7f7QhKWIMlufz5s68kuPLaerF2jG6snqzpTjfg8BgYnC10LGwN9gLOJt6gRE67YhfGVjcifNg+fKL0Dyx94XkJqNEVkcxRNcFUny37GujmLOAcd/nXlwzgQOzh+Sz4vR5ITrVaHUBdbe46dmC1N3MF+R57poE22Lb8eQM5Xv4NxJavEnTJiAhskDxK5jl1E+/PXlVjAkYDamKgny1vGtHb9/iA+e9UGZJYshzV1IT78zR6kejbB8mxRerJeboS2teHoyaqaxyxqffqMKIDBKCGVFBraytVkux2Ztd0Sk51UtgofK7kTqx95WQ6ITN5Tm6YfCCjLNBSKSEhEe22UBcs9lvsnE59Ue1GqVul9Vr/N+T6Sm2hJsGwUYHflYb9ZHVMQstWHsF4dTxjEkQjwUgDY9izwwZmLpch7xOQ1SBokTIZyEe2Dfzwkm06frSVLguVMevBXL+Hf585DdtlKWHVdyJ21DdY3lqCgrgUT53S69GRJtOxMRjfyTikrI8kWlLPesUFIN/4zGRicDHQfd2kpy97F0phCW7kqLEEZxnEVW/BR30osevgNvGXvjwiHgNCgavbDW9bJhqKu4qEQq9ZYzcHnWE8bjclyS+Vhk0gOx7EhWqlhBBu5R5gZGnCIVhrAk2gHSMYMrr2D8NDb8IeHZLNkzHb7nyDyeqw504ID8RaGTmLRUG4/vibeZWPD0YZ0JSa4+ikrl6F2HxprZqxBHVpNtPyZJJvma0FGeSMuKlkk6j3cUNj3lYU+0lbx9+/gP+fciY8W3YJUHtR8W5FWtw15s7dLHWN25ZaonqzMA7qQSbaKaJXWJ1vlsaGAIdqkhrZGYx5LsK84e0ns7yq9bTbhUUSr95V0EW5vRXbRWny0Yh02/irklPDIEOH2w9L1SbmOVQ4piVMsWnESsk+BTbThw0CEx01bFtIQbRINiS/Y7mO7ybuTC6Wf1y5kO66g3R4kZG6eu/YDf3dlA9KnzENm2Xpk1W5F9uxdos+YXr0VObVbkVPZLM+xg0qqZ7OcEjNn7YHlc6lnyGYa3VCjt1G3oY7TcXPlZstbQ7Zji2icVG1iTFhid50Lylfg4yW34cevAy8PK4JlXKvnxQi+dH0Dsr5xCyZUbYm2t4s7lI04kDkHMK0nq1RWzPVPYjilOK55IIRqx1hj9pX4MjFF0KmzdsAqb0FKzTZ1W9qMcZWdyJ25DgWTF+Ofv9kh3js2o6A9Ku5gyRo+CATftftz25J37i3T2WNdcVl7n+VzxnVsxkkPWr7cPPe+Dnzx+s34QPlSKeK2pq9B3uxuUXWxShrEOsmuaMK4ug5ksWcyyzcopeaxY3BusnXfyv34+FyHqGwYoj3LYJOgFPn7GnCRZwn+V8kt2PMyxBIgup4ZxOevXIOUS3+AibO7kFLRPvJ9DAxOFomI1jmYcd/QZBufVWyTLeuxZ2xGzjfZQ7sTVvEWfHBWN3KnrcD4y+7Cv13Xjn0vKe8dLdkhlsiyhZn/kLJQk6g8Z7TDEO0oBl0kjFlwE30BwFe+04D8r/8P/mJ2E6xpy8SFKBO/tgcUApf7TDIob4NVzlpLLhDVzlFL7sXf6kWls0xJtu7s0xGLz+DMQzYueyOr3CphhAnlq3FJ2XzsfVvNDVqyX5y7BBfOuB3jPauQUt6k5kL8exkYvBfoJiausJLyekWh9gqXS1knO1XvQN51j8D6xlrJB/jAFd3InrII4y+/FTNu24lfHFIkK9kpdA3b+16EvboRQDigOj+ZceJhiHYUQ8ca3okoy5aYvWIvxl96PT5Ssw6Zno0iHi/1kN5dsHw90oQgtXYHLE8TrGKVzKLdhdod6EasK1EvsGPEXAzOPLSrjqU4TjnOVonbTyxfhfsGgZ43gM/PXYH8r30bF1eswoQqxl+ZrW6uocEoIFYpiVNZqDqkQG+X6Mp6FRhrdbxfQrQ7VJMKwtOJ7Nl7kFfdjuwZy1Fw2Q9Qv+oRvGSHxrTKzoBfuXwJaf7kZBWbcTLDEO0ohsQaQhEhXOZMHWQTAgC3dTyKCV+7AQWlK5SSy5wHYc19FFbtQ7Bq7oFV3Y1UbzMyvVtsF7DqL0pLiI283eBjuu+oowvpKig3G/UYw020NbudJhPc1Ei2N/4U+OsrNuPj1atxoWcZMmYuh1WyEWm1DA2wBtdcP4NThNs6dfUqVrqylLxTCXO8z31Gmp1o74u0XdyJ9Noe5FS2I2fGKlxQeBe+1/kbvGK3BGUxjtroWCOr4qskWWYU6+ziZImxjnYYoh3VCKP/6LtAeEhJnoUCOOwPC9mufORlfMy3EFbhSljFzbDqH4A15xFYlez60ylu5YJ63VaPVqsm20bJPHWDj/H5GAFme6GYjfosgFwTEu1edZDirU22uRVNyC5ZJXJ3f/HN7cj0NMAqa0b2VQ/AKus018/g1BFHtHyM+wlJlZYsCZbgfSFaR4nH/r2qrRhX1Y70yxbg4pkLsfzRQxIGe50qd7K/BVQ8dpgx2QEhWxIrHcfMT+lnhU/8lmhGwmGIdlTDbic2fFjpLzIDjy6XgIptdD47jM/d0AZr6hJY09epWC3BSU7XIWO4csIkSKIuwq3c7CC9UhNtW7ShvBCtsWjHGtH4F1vZ7bbJdq+6T0u3eAvyajuQX9UC6+uLkMuaWSqiFPN6mutnMAq4RSb0PmJXJygZz9icjmiZYauU84gU3qW34t+/1Y7W34bwsh3+YjiMPQWGBriLsfqboAiA2t901YWUQMbtiGYkHoZoRzWCSjSePTtF8skvihXSyxYqJf7xPqBwwT0YP/NusWzEXVzTqTKSKRpP6T2tnuHEWrgYmoVgFcmqOrco0Y48yRqceeiYmLIUbJccCZbuYyFaWyTb2yrJT5JxztpYX4e67sw8N9fP4FRhZx3LviCkq0NK9HTRq0Lsluxjkq9yKzci17cRBd61khl/2Xda8NPXlWHAjk/MLqbLmD0FhHIjJFnuZqRfu142CPQNAIFoVY8ZJxiGaEc1ovW1uvRat3GUBAK23gOwPwLc1PYY/mLmTZhYvECVAJVtQeqsvUqhZc4DsGbvs1U0GLfjBtyB9LqtqpBck6yAyVWuE6xRDxozkGgZQ9fNSuRxZ6PTZRWKSCUb1JXYFv9eBgbvFTKPyjcjxbsF6XX24dvTDav+IVhXPg7Le6/KDZlBAZQujK/vQkH5GuQV3olP1C5H7eoHpL6bFMq9Sic+0VCgfGhI+gbwEVIvb1kLyyYUTtsBw7QnOQzRvg9DF2DrHp/RQmw1G/kzCXfjg7/D31ffLfW2eZWNahNmAg2zkcu3w6rbg5QrH4RVv1tZu6xtcxWXJ0SCBWhwZqCJllYCrQVFoCRWXa8Y22TCTbaGcA1GC1qzbIaTXd0Iy9Oo9oxZ98Oq2AfLez+sK5+EVbkPWVf9GBlVW5FZtAoTZ8zDp+sW4bY9fxA3sbRTpJiKy0jQ+5giXe5fzDi2W0wwKSpEPVmCP5vynpMZhmhHMdwEq5VZnD7J/L/Tfky1HuPJ8cd/juArNzZjQulSWNNXI3P2bliz7oFVu1sptui0+5oeWHVUcNEuZdt6td1Fujep2azHDjrL050Zrgk19nWJidaQrcFowPWf6WtAVtUWWKzLZivQKx+GVXM/LN99sK78KSzfblglrZhU1468aXfgX2/YiHtfCQnJ0iEsIxwrrKJJVu9nvK/2NFsggC0X2YKRPY6TROZutMMQ7SiGzsCLn5QqE48Tsg/oe021Kwv3wx8KS9r8M2HAu/IhfLRmDVKnr5T4XXZdF7LqGM+jO6hduZBJvlKfacf67KQpLjC1sRv1lrFEIuKMQZykXSKyNdfP4FQhB+6KJljlm5Be3WG3UdwGq+5epM6+H1ZZB9K8nSI+kTf5Nsza+LjsPXQXM/KqrFm78b/IgqqsYh360vuZJlrx0kmpj9+Vl2KI9mSGIdpRjHiXcazb2JaGkglJWzYgBHyY9bZ2dt/Cfc+JFulFZcuQO3OxJEvlVbdiwpV7kTV7L6wSuoeZVGMTrh3z05aUacF4FsDJ9owmR6lro66Pk5XsgiZcc+0MRoWqDqRUd8LyNiG1ZivSatnWtQVZ1Z2YWNeFnOI1mFS8FH9XuxKrH3tLsoq59zDhqS+o3cEkWDv+ahOtbkbBZ/V9p//7iN8xruOTGYZoRzHck9Idk41ORjURj/b1Oi4ZLQB+NKSKwp84DBTe2Y2C/7oeH/IswUfqm2HNXAuruAkF1z5ik6zOIGSTAyXHZprKnwUgwTodoVQ7Rd2ZRzcikSYB+rUmgc3g/YSeTzXbYbEHek0HxtW0IH3qQmRfdiv+xrcIl3+/BY8fUFYsSbYvAgyGFI36h/sQQtAGiVd1f3I2NzfkRr2Gr9VwXm/GcYch2lEOh2C1uLG4U5ilx8kL7D/Y5wh9v96rSn/U6wcxPDwkSVLPhYCVD76Mz1YugPWvN+CS+hZ8+Lp9sC5ba1u099iwS0ZEYMDVw9RgbEBy1U0q7OYhqs9sNG7rHISc5CgbLjUeA4NTAudR7R5Y9fdIIhSVwfJLluPCwjvwz3OX4/o190rJzjvUAdDx12Ee86MWKX/S2caOE5gJTkx0YsJTkLfRzlDarczf4e+qMJkZJxqGaEc9bAtW4ha2q1iIVk1KTsi3AyomIhNaTOBhIKTqb/kakjAXxCP7I/As2I38r9+ElMvmY0ItxQW4KbMWzq6Jc6TzorJ5sfHA+Mxku6jdcXHaWbEO3sNmr7OcTdazgkO0rJtVVq2OwbqTo9R3H0e0roxkg3MX0fh79OdjrgtnDSY4aEnuxfGg38e1hjmH6vbIbWZVO7KKlmHitFsw/bZO3PunfjnEH+S5X7iThMk6WEKRLa3ThETLxChNtBqGaEc1DNG+L8N2GTs9QdWU1a5l/UiMi1knFUT6MBzoxSAiQrisuZ234xn8Q+1qFExZiAvZIq2sHRnVbN3YDatsG6z6e2FV98AqYrvGdoxjlxdvs5xo06takFXPphatsDybYdWw7lZv9LZsVgVLivYi1bcbqRU7HPWgqGJQ7AbgoFrX8bJxho1jbSrJgBgCjY3VjojBxriOo681OHehDrr0YqguTPrg61QDxBx29VzhgYwHZjsUJI+r39EHNO0RYfjBKtks4Yismm1IZ4KkEOwuWFV7YHm3I83Xig/O7sT4kiX4SOk8fK/9FyIIQJLt18wp3jabZO1wljvsFRv+0u5i7lEu2LHY+N8zruOTG4Zox3TQNXMQiHBZ+OWESLJlPGX3MyF4FjyAiZffifEz1mBCZTty67pVkhQXW1kHsq7eB6t4E9K9jciuakVmdSvSq9qQUkFlmFZJkHAWuZyiXdq3JNuKnTbRbj8x0brJlahpNURrkNSIJVrd8jDavzzatckmW1mDNtHSQyVrUWUPa+hsdJ2DkVXdJeveKmmUvI3c+t1I5/sUtSK/uguTytdh/ORb8B/fbcGeV4DXALzLMNUh1a3YySq2O9fpLGFDlGd2GKId08FTYjSBnkuATmeSLRMXnhkA1vz4bXxh9lrkXnoLJpVvQB7jfj4KhnfB4u2s7bDqmdLPpIhuWL4uWCXtsIrbkVa2FVnl25HpVeBmoFxbtHjtDlMOscbD3lCORbTGojVIeqjQThSqIkAhSp7awhUXsxxmles4+noXGTuWr63O5d0Gy7cVufU7kFPRgZQZ6zGxshkfmtWJnCnz8Zcld2Lt4wdEcYeVDK8N617FZFFXSEtINmrNai+bIdozMwzRjvEIRcIIRYICneB3sHcQ7/QHHcL9+TvA7FUPY/zXvofsyXfjQ7O3oqCWaf3tqr6WpFvRrdzJ1bvFzZzBVmwzWpHr2Yac8m3I8m5Fpk+dtuWU7VikasMYCXszORbR6paQIzYfA4NkgU2aFexbTW+Rqghwk62yUFW8XlmqtiC7jxnqUevX6VUsWeysNGCCnYr/p9b0IKW0EZOqWvDxWU3I/O8f4gOFd6Jm9Y/xzDDwcgD4sx94NxJtmBMKDgMBTbAaUWvWEO2ZHYZox3BwkvvDquxnMBDE4KCqtxVxguE+BIYH0OdXhEt38r5XgK98twVZ//V9jC9aiVxfG6zZD8CqfwRW3YOwKvfA8qjTck5dDzIq20X0mYiWnLgaJYg1Gh87tC1evZk4cSYNRbCOW2zE5mNgkCwg0ZJgNaLJhbFE64q9+lj+FcVIQXYttXg/rJr7JLxjzdyMvPIGTChahkmXfx/f+H4btv/BL6Il3DF0/kcgGEZwmMlLw0DYFZd1SDba/Sk2Z8SM0z0M0Y7h4CQnyQ5QSDkEBAODCA2wixTbNh4Egoy29GNoeBB/PuKXzGTqRS7c92f87/q1yJ28SGI1VmkPUqvvQ1rtXlilbVK0nlKzFalMhBJBAiVMoE/W+kTNmNJ7Jdp4d9jIzcfAIFmg3cBuoo3N5NfWrTv26ibZ2Mx0t/qTSpbKrO3GRbO3iifrr70LsfTBV2UP4F7w9hCrb4LAcF8sqVIfWzSybXexi2T1vqNjtGacmWGIdgyHWLQh4AgrguQRZvj1I9z/OhA6AETeBfxvSeSWi+JIGHjDryStfnUY+Nbm3+CTVY3In7Ia2VPXYmJVB/I0wdZRkKBNxW6JWp6Y1QZAkqUrOctrlw04JUAuxG0UzoahtS3tcqKRm4+BQTIhGnONwYgMcwVdCqS1YmPq4O3X8jGScI6vEWlTFuCS8qW4uvlX+M2wWvtvBYF3h+09g/HXwGElzh7sBYLsREeSdROs6d401sMQ7RgOLhRqOorbZziC/r6jdgo+T6hcOO8gYlu1wdCQvI7P6gYYfObHrwJzV/wYf1OyABdOm4f8ohXIoHQWM45rWdC+G1YdBQsoSq5rPRmvVadqdZpOTLLEiYg2ZqMwMEgyaOJU68BFujqZKR4xhKyJV1m8LOkhuRZ4N+ICzypcUroQFat+jN0vK08Ww0eHItHmE4HBPsB/GAgcBEL0grlIlklPkYiT9xGz6ejyQqn/dz9pxukahmjHeuiVoBeA9BtVOpAhAXsk8zG73Rn/x5eFgEgEGIgoFY4H/3gQnttbcPHkm5A/dRHymChVRpGCe2HVPgxr9o9g1d0nGYxWdTvS6tuRWqt0blkGpEqBaKG2I6Wi3UWusZuJ+0Qe3WAMDJIPmiBTvS2qI1j1NqQwoUkyhRlvpRt4jzT5F91paae6C1YlZTG3wmKCYm030jxNyPZswiTfeowvvAsXF96M0rt3oOu3RyUOy1attux6bALTcbKK3QlPMbFYqYvV8VvTq/hMDUO0Yzk0aRL2SuCiiJfd0ydY53dCYWUKMz4DPw71HcSRiMpQ3vPsEP7rhlbkX3onJpRswaS6vUr4mai/DxnXPABrLmNBTGRqglXZIsSaVtUpGwfv65/Tq0cSbDziNx8Dg2SBEK2vBaneZmkcQaJNq9mBFGYOV/QonWkSbHm3SlKs24usK/bBYolPmb3mShtwUV0LJpauwMQpN+Pym9rQ9tS72B9WTSdi1r7Qpt4w4pvkxCY6xQudRPcPvt7dwMIQ7ZkYhmjHdIRVdqBkCEbr20iu2j1MsPScC0YZvSRYv4rFEEyEsPsqv3lkSKxbEm7Pb3rx39dtxKSv34QPedbgA3XtcnK2ZmxW5UBz7xeB+ey5u0WiT07mdo2unM4rO0UseiSxHqMMyMAgySAeH6/qaa2zh8WirepRzSho1Xq7kTnrHmRQW7qsHVZpk5ByVmUL8io2Y4JnFSZOvwv//r0OND49IA0naMFSfESGWKy2Api0d41V2dG3boLVlfkafCxK1m6L1hDtmRqGaMd0cNJH0++5aLQ1q4mWt5poZfBESsHlYJ8QbWhwEAE/l1jUA31oIIiDAbVgu36xH8W3t+LCKf+DnMK7UcDuUbU8ad+LlFkPqMVf1ABr5iaklDcjs2qrIlg2wyhnU/x46zU2uSN+8zEwSBYIsfpakFHdjsyaTvEEWZ4OaRqTUtmDdMZkS9uQUdmJTG8Lsso2YlJ1Iz5UtxkTSpci82s34cvfbsampwak4QTdxAfCihy5kCMDh1TsNXRYVSJE7OxiUc6JuoY1jkWyMRatYwWTbI3r+EwNQ7RjOjjJtZKGisOe0PVDi1asYLZVCyqjWEqDGLMlzfL9SM8ULPALSb8WBrb99k2ULujBB2YuQNrly5BZ3Ia0kk4U1HRLx5ksb5v0TZYEKcacfO0xFu3IMiBNuCM3IAODpEGF6uqUUtUl0K1M2YUtw9uOC+q3Iad4HcYXL8dHK1fhA9NvxYWX3YBpd2zDtj8FxIJlR6e3wupgLTRKkh222yaKJasESFTfOCUG4CZYt0WbCNrydeK0ZpzxYYh2TIcSX2byk1oSrtOlXhkjoDMGdWYhu0vZYduAHwiRWulOPopQ+LAkU/VGImLdckHvfB6oXvlTfMq3HnlfX4TM6euQMrMBGaVNQrhEalkTUspbhWhVrS2RgGQFCTYfA4NkgGTpb4PlpRXLhMIeZM3ajczq7Ugvb0N68SZkTluOj1Wux8dK5uNjhTei7I527H2uX9Yia2F1kpPj3o0Aw0N+hIZsN7FjeWqXcaw1G7896K3jWFuIJmUN/VozTu8wRDuGg5M8KKdTJb4sS4ckSotVtCBtPUjRhKTpqhIg1O8pDAYHbLLmOwUQ4u/Zg78yFASGwio7mckVhJQFPXcEN3f8Ah+v2YKs0iZY0zYI2eZVbUU2S348LdLIPCHRsh6XrR9FFSjBBmRgkAzgWqhl+0W7rKd2F1LZ3am0FRlsmVjZhA95VuGzdatxxdpH8NibqkSHeRSsg+X6FTk68UyFJQykDtJq/QZDkeNaq8rL5U6I0rWz9m1cHW0ib5kh2jMzDNGO4dBEOyynVC4GO3YiJMuEJz/NVEW4siCjC0YvFJYABSN9CIT7bcKNcrJYujb04nQvsjdCwJMB4KaH/fjCt3dh/IwlyJ++DOM96zDB14D8ikZk+Zjs4a63JcFSh5WZy0z84GO6KXpcA4uYWK6raN+tFDTCQo5zRzsdqTQSdaYa+Tdi4sf6MDCinaRpuDFqOPXX9qEr/lo61zQR9Hu4dI7fy63z9+P/nvtzHQPH/F1+ruM0n4j796dRWae6SzL0s1kaN2M1rK/diQuLF+PzV23CHXtewpNHVKMJHnIPsZGTY71ybQ+qnIswk564/hXR0n2ciBjdJKtIMi7mOgKabKMWrX5P3hqiPTPDEO0YD7dbxzl9unUgyZjOzyN/h64ktWSiJ9dE750IdFlxA6Abaz+Abb/rRc2SPfh0xV34wOSbMKHwTowrWopxvk3Ir+mQcgTL26V0cdmTdTYbn7fBqtgMq7wBFjU0Z3UjczYbo6uC/LTa3YIUtpZjmQOVhKp2CSjRp2TDbDF7gUsQW7d8dNpHNiO9slGQWbkZ6ZXNirDZD1YQ1wpPb7pUKeLm7BZFcMn8xWdWvxfEb7xJBU1Ubg+H3GqNXhfiycu5Pqp/dvQQdfK36ppStcr+mxo1+jPx/btssFMa0a5QydtOWOUdsCr4O2zoQp3YHjWXKnepGliW6LD2lXOTNeiimkVXcYf0Es+rbER2ySpkT1+ISTPm4W8rFsBz1zZse/qAuIZpvTK5UZNr/BqMEqVe+ye/fqNDr/1jITqO/R5mnM5hiDaJBxcaN4DeEHDYrtvj5vDzd4E7up/Gf393Cz5eepcU0adPXShF9fmzuiUOZVVShL4NVvFGZNS2IXfOdqRUq/IFq6RZxazqKXLQKWSaWrMHqVU7kebbgQxftyCVhf0JN1+9kdubsNOruVmhqlGBmrtiHVNyTOnqqvdxWUyO9UqCVX2f5ba62f7ZEO0pI4Zo43A8giVstRv1Hgk8DScF+xDlJlb+7EZCgqVes020Xj63E1YtG0sotRxpLEGy9fFg2AWrXL2OJW/5tV3IqWyVDk4XVm/BxKJF+HDpfPzLtZvwP51P4advqTXExKY+HcXRbty4elcTI02eYYg2yQcXunYnMY3qYBhgd2VmQ74MYNMvDmP2pp/hs3PXYdy0O5HxjbuQNm0JcsvWYUJdBwrm7EIKdXBFzKBdyDX7qgfUxlXUgvTZ9yBtlpL6EovAwwL/FslwzpIG66oGUUPLhil1oLiNNX4TlYYasTJk7ubtWjGFz8ff6t9RFtJIAj1ZjCCfZEP8NXK7ZgXx7mIFdShK4LZ1W6YnBP8WD2LqAMZbfSgbAWdOEaojmnxe+TzdLqiDAOthmQw4flY38iqbkV26Hvlla6XutWDGQkyYPg9/4V2IWRseRdPTR/G87RliDPZASOUHK/dwPNFG15wh2uQZhmiTeoQRCbA3qjppc9HTnaxyltXJnLV9rPF7sh9Y/4s+eJbej7+pWIhxl92I3G/cjqziBlhlVAPahoyqbqT42H6uy2WhcvOiVdAGy8suVDbJVTTB8jRIDJg4poyf22qi5UI3IcEkFLFk1EYbs8nGkW6UfF1aoLZ6UTxxvleMIJ5kgsu17yazKGJ7YscgYYw+nkiPAwkzbJO5lFnRKFBhBYYXFCTUUNWGtOo2pFexE5MCPS/qthNWBdEln4mfNbOqAzlVHcivasGEqiZkTV+CiSVL8YGShbh45u34lG8+ptzWhZWPHcAfIupAynXCrH6uGa4driHJoximv8idrBTbHtEQbfIMQ7TJPLj4Was3fAQYZFG82hi4+On1Ojysyg+YpcxYro7nPnUEWHnv71B2Vzc+XLoaOYVrkF+0CRN9Lcgta0TazAaklTYJaWbVbkV6tSZN23Vb1SJu25TqqPWpydAhWNnIE2zATMJyQMKleEKHAvs1E+K6tH9PCN+O3TqxXLoGlXtQXM/xJPAeMIJ8kghCpPQSaHKL8RZoSUb72rrEKBRc35+TpBRPvMeDcjurvxHvqdDeijbJKyCh6lvWujJ5ibd8TDSbK9qQXdGCnPIG5JSuRW7RcoybuUhiruMv/x98ynsXptzUiLt6fo3H31aHT66F/UPAUWb1h4BhJh/GhEN1GV5srNQQbXIOQ7TJPCJBBI68CQxSA5eF8SoDMuxnDV/I2RRIvzylH40Ah0Iq/sTT+2sR4JG3gJt3vYn//v4u/LVvFSZNmYdxUxdiQvEq5JasRpZnAzJ9DchgRypK90nyVDOsmjakzNYxuvhN1L2ZaiSIA9KipfyflgEUtSLb4mWZhVg9TGxhTFmT614F3z3ys8R3ExDoySKefJIJJFoRM2cSXEXUktTE5w4H6EOUtnAV0bozyfV9hZEuaQX9XPS7H+mWToyRr+dno0u4oHQVCkqWY3zRYlxQtAAfK1+Ev5+1El+6ejWWPfQKHnw1gldty5Xz3unWpt3CbIUa4JrRXd4ClNZByM9XRdlXJyBpt7G4ls1IimGINpmHtmhJspTbYrMLrQQSHha3cljqctVmIXV9tqyfJmCSrohQA3j6ILDmgZdRvXgv/mnOakya8gPZuHKLliLLsw6Z1c0usm2HVUErlBnKFLqmsgkRn4Fskyw3SafMR23csvkK2drkqi1dkqxDtHZmM+FYtDuR6qM1ywQqY9GeKhyL1iFWbVnGWrEOebq+M/29uy3ShHC5gglN6AwzKNLlfGH2uxZLt5OZCLnu3arOtaJLkFLBVomdSPV1Itu7BeOmz5duTR8tug2frVmCybduxZ17/ohH31XSdC8FVO9wznPJHqZM3XAQQTaHkVK8PrtNot29KdBnk25sWY0bZiTfMESb1IPlQ8NqYwiQYONr8GyEhhXcSR1C0upMHqTrTCdTRRTp/rYf2PqHIVSvfhhfvrEdF3uWIH3KPKTOWIo0WrkVjcioYcYnrU83ubpKfDTBOpt6bKKTSm7RruI461d+167ZdQlt6/isidG+PxAydcXBo1Zpgu/Hvibua+u+rvFwk622mt3g31bSc/cpkHA10dplXiRUNvFnr2ESa155A/I9xCZcULYcX75uI65YfR+afvEOfj2gyFV6DtshExIsE5sOD4YwMGg34eeaoO4rydV/EAiyJ7FNtDykhvyIhINyKE1MstqtzHXkWo5mnLfDEG2Sj8Sn7Lg6vBiCdZOwrSwS0X1Y2eNKnfy5QdESYEz3OQD3vAbcvPslTLnrPnz2igbpuZx66W1IK1oLq2Qj0sq3ILuqVeJlKeVsAdmETCav+GwLSVtHvqheLmNsWVXbkVm5TRq3S/P2qq2S0Zxe3ozU0i2SaJVd0YQcZo5WbkG2twFZ5RsFdGlbXpYiUR6QMoFbkSaxO4V4Uk2EeOJJNohaDcnTthgdiKuf2qysU9XhAZb1MFmOWqyd6pbJc9UUuWC9KstptqpymsoupNVsR3ptt2glS8N+b6s08ed8YGyVsnRS082aV9ZlV9kxd28bMsqbkevZhInlmzChZAUKChfggsK78KnatShc+CDueOhddL8UTWbiXGVCE0vctGIW57GOpTrrwlkDtg6sRpy+q47DjozF2kRt9GCTahiiTeLBxc+NIL7jjN4YYgk4EelK5JbnfVf0yi8dqvhefFbX53Ijo5XwOoBfHwV6fuvH4n1/xldu2o6/vWITLiiaj9ypt2PczAUYX7YC48pWSiOAzOK1yCjbJMQpm2ulcv1JowEqo5R3IdPThczyTmR4OpBW2oa00hZkeFqQRfeiZzMyfCTxZuTUNCGnphFZVZuRUbEBqb5NorpCUpX3tBsR8D4fy6jZHkO8iRBPPOcbdLP8xLCJU8iWnohoeYwTC6UrX5Oxj98xs3xt4mXYgFJyjJ/X3AOrlu7fPapphK5hJflWq3IbEm9W3XZk1m5T6lKeJpkXub4WFFS2oaB8M/KKVyF/xhJMmrkQHyqej09XLcXkH27Fzdt/jx3PBvCrPuAlVymOdgknUruJJcf4ue/qvCTWadRNrNdSwvdyE7WRqUuaYYg2iYeOs8ZvNCdPvGz56Jc2kLxViDZAd28igWHAz73F1RbywIDa7J4JALue7cXt23+B4jva8flZi3HJ9B8g52vfk4YAzAJNn7kaKSWblLVSvQPptTuRXrMbKZ6dSC/fjXTfHqR6e2B5VPepjOpdyJq1R9Xv0rLiBu9theVrhlXZCquGmcqKSOKtWDfpxhNrPOKJ6XzDSHKNQn2vtGZ5S8LsVq5/WqgkWFqpHtZXs7SLli3BcAHf2ybc+n2wah+AVWW7fhlnlaYRexR58720FSwHINU4QjRdyzZi/IxF+EDh7fjgtNvw0Zm343N1S1Eyrxt39PwWHU8dwHN+4M9syGIfA91dmo49r+NJlYjz8tiDv6vfS5OrG7FEG2cRG4s2aYYh2iQexyPaRGQbvzHx51hLgD2b9W9p95qKWQnYs5m9mwVBwK8sX9YeMrZL1x2Jl+0g73s5hKUPv4LyZQ/gP2/pwd/MacD44mVInboUKYUrkVa0UUQQaM1mle9AlrcHmeU7kMY2j55tsDys3WW7SLbMo3VlJ0vN2gVr9m51W0dh7g67xpeuyXaHYN3W7fEQT0znG+LJNZ5oU+pojdoxdhIuu32xjrpqm7wms74HGTX0GLSL2ze1okVqW6nhSpewVdljkyrdvxRMp1VsEysVpCrbkeltEq8Gwww8cGWXrMEE30Z8pGotLv1eI65YvhtrHngeD78axp+GVcMVelC0j4VzM0p0jK9yLvYCQ9R4dVml8WERTYYui5VDr4FjkWv82om1jOMI3BBtUgxDtEk8tJvLvTG4EU+u8eBrSNI6nqXfR/ovy0ZCgmXJUL9dAtEHDB0BhnvVz6FBhIZIs1FFosOBCA4Go65muvheAPDTo0Dnc8C8h95G1bqf48vf6cRfVa3HBG6809cgbepKpE9fi+ySzcjztiHb1y7NKbLre5Am7ktu6LSydisXJTtXVe9E5uzdyKztFutUW7LadcwYYHxMNh7xxHS+IZ5cY2G7jjXYmIQJaBLr7pQmEZanUeLvTH7LqWpEbjVvtyDbtwGZng3IKG+UGtaC6lYRsWC5TfqMZcgsXIzcwoXImXyHNIv4u9nr8K/f74Jn5Y/xw72vovU54LFelbikY6uaWKX8JkJlKzWzIkz4Cw7Yc05nCTPLnkLqtvclIdkmdg27LdhjrZeYRZbAEjYjuYYh2iQf8eQZj0RDP64t2liS1S9yJX24k0ZiwK5UynKIBAcRZramrbfJ92MPZm6aonpiWylMXKHFsj8MPDMM7HkVWPVEH65p+TUuu30nvnB1A/6qaiUuKlqI/GnzkT55AVKmLEFa4SpklDSIwH0O468s9aA1W9IEq6xFrFlFEIpgCff9YyGemM47SOek48DTIQlMTELi98G2hWKF+lqRUb4ZmZ6NyPU1oKBqM8ZXbUKBdy1yPSuQU7IMeSWLMW7GPEycfhcmTbsdF02/Hf/Lcze+ePV6zJjXgznrHsGaR9/Ajj/68XRfNCOYWe08hHFOaHewEGtCK5KP2PNQytdYL+4WU3eTXwKLM4E16ybZeC9P7HvYZC1/P5aoR35OM87nYYg2qccxNpYRm0wC6B2Ct3xI32rI7qN+iERC8AeGMBgYdlzN2l09MOy3NXTVa4eHhzA0NCDlEervuEAlI76MAd5ACIFASDZX3UBDiyL87hCw+3fvYuMjL+LGpp+idsk+fPVbzfhM5XJ8dMZCfGjafHywcDEmzFiFlJmbYJU2w/K0CtnGu4ZPhBHEdL4hzpUej+zaHcis7pKMb8kQZ4KSZwuyyjcju3wjMopXIKt4OXKKFiNrxnzkzLwbE71L8L/mbsLnr2+Ed9FOfHfzw1j70HO497lB/OYo8GpYHapEPzkSG1eVIZKRirzcpKezAwSsdw1R61lmoMjOyW0c4i3SGMKMgRrxROm81iHWBAdLOUzyN9Tv8N+iwy2GaJNjGKJN6uHeIOJcZTFky9v4jccm23iCjSFa9Ve4uXDz44apXc26u468eyiCADdP/Zn4aGhI6fHy1u1+DvYp0A0trj/1ThEMKeF7ewPj39E9m6XMKAK86Aeefge45/cBrNv3Cn649Q+YufwJ/Mf8x/CP392Fj9VvwcTSFciduUSQX7wMecUrBDnFq0Ygq2SdqLjoPs1uxAsluNsPxndBioXbLR3f3UjDJsERnbTcNaruGmQi/u+o+lW3+AIhn99Vq0rSTPc0CDIdbBTklG3AuJJVKJi+GLlT5iFn8l2YMH0+Puxdhk/NWo9/vHoTvnrrDpSufBjf6X4WS376Dpr+GMHet4Eng6rsS1umUl4TAXptyzSGWDkHRZ/Zvv687sGjYpGyoYomSN4eC25CdcMdU40lWj0XRxKt/lvqtfFryBCtGSOHIdqkH/EMeQwcb0fQu0884p6O3/hGbmx6uP/uCaxuZ8tUr3f/Lfdm6rakNXStL12RdEm+GASeOgjc99wAWp94Desefh63dj6B6zY9gooF3Zj8/S34j2+uxP+dtQh/77sdf1V6BybOWID86cuQO4NYgewZy5E9fSUyZ6xG+vTVyChai9SZ65AycwNSixqQXtaMDC8JjcpFrAfVRKdIj2UrbLKQwnpSbxfSq3YgTXc3YpIRH2e2LiHNH5iIpMthmIxkJ3/xtaxnZYKXp0VKYayyRqSUbhFI2VPZJjksZBWvRtbMFcicsVya6GdOW4CMqXcja8rd0vN3wsyFuLB4IT7iW45PztmEL3y7A/9xyx5MmbcX32p4GLe1/gir9j6Njsdfwb5nD+Opt4GX/dFm+zp+yu/biaG6Qg7xyUN6XkTnhp4L7muvk5Sir4uffqeCkx2xr41fK/FzVD8X/TvHnvtmnI/DEK0ZSTtkwwuPJGRNwiwJ0fFhHRsWNaMQ8LujwBMHgD0vAFufBbY8NYilj7yNW3pewPXNv0H9+idRseoxFM5/AN+4ax/+++a9+Nf/2Yl//vZ2fO7adnz2ihZ8cnYDPl69WvDRylX4sG8VPli+CheVrcKkktXSL/pCzwZM9KzHhLJ1GFeyRvXlLV2FcWWrke9ZjTzPeuR6NiKvbKPcH1e+HhMq1uMDlZvwoaoNuKRqnWTn/mXdenxqbgP+8Zom/J8b2vGl73biyzd24rI7dmPa/HtRtuJHmN3wc3y76w+47d6XsfiRN7HipwfQ9Udg98vAIweApwaBZ+kZsCUUWRPN74akqYlThwTcMfsoocRbf6a8xYzkGIZozTAjztIgQWjCpZAC44SadN2JWSxJGggr5RbGBLV1pn9Xu8hJ2jqOzPcR0g4DrweBVwLAS37geZJYL/C7g8Cv3gZ+8QbwxBvAL94CnnwL+NkbwGNvAI++buNN4LG3gEf52FsQwXESPy1yxjn/2K/e89UA8FoQeDOkWgq6rUveOv8W+77bApXPG442ddAkStC92x9W/0be53O8FYQBP7+TYxJtvLVnhhnn9zBEa0aSj6hbT35inhUTacKKSCRhi8Rk1/lqAiIZkVzARK5Ar91MnrHDATumzB7RAWB4CKDm7zDjzq64Npt2hIHBoWH0Dg7hUN8QDhzuwxsH+vDKm4fx4p8P47n9B/Hca0fwpz8fxh9ePYjfv/IufvfyOwqvHsDv97+D3+8/iD/8+RCefe0gnnvzMF55uxevH+rDO0cGcahvEP0DwxgYGsTwkB+hoB33ZrkLM77DATkkaGIk+DPBuHmQvayFJV3uWv7bdLY4gtJkXxNsIlfwSKJ1ka28r/OkGWact+P/ByEYFZUa2UL0AAAAAElFTkSuQmCC;" vertex="1" parent="1">
          <mxGeometry x="440" y="475" width="110.4" height="150" as="geometry" />
        </mxCell>
      </root>
    </mxGraphModel>
  </diagram>
</mxfile>
